<?xml version="1.0" encoding="UTF-8"?>
<!-- Generated by jsxcad -->
<!DOCTYPE svg PUBLIC "-//W3C//DTD SVG 1.1 Tiny//EN" "http://www.w3.org/Graphics/SVG/1.1/DTD/svg11-tiny.dtd">
<svg baseProfile="tiny" height="211.15269mm" width="212.02381mm" viewBox="-0.00099 28.53675 212.02381 211.15269" version="1.1" stroke="black" stroke-width=".1" fill="none" xmlns="http://www.w3.org/2000/svg">
<path fill="#000000" stroke="#000000" d="M78.48837 119.84444 L78.49766 119.54711 L78.48936 119.99546 L78.52261 120.73120 L78.59804 121.42884 L78.72094 122.14551 L78.89134 122.86203 L79.10290 123.55341 L79.35244 124.21788 L79.48837 124.52130 L79.48837 140.66003 L79.23822 141.25980 L79.00142 141.94785 L78.81111 142.63913 L78.66400 143.34231 L78.56108 144.05330 L78.50283 144.76793 L78.48936 145.49546 L78.52261 146.23120 L78.59804 146.92884 L78.72094 147.64551 L78.89134 148.36203 L79.10290 149.05341 L79.35244 149.71788 L79.48837 150.02130 L79.48837 166.16003 L79.23822 166.75980 L79.00142 167.44785 L78.81111 168.13913 L78.66400 168.84231 L78.56108 169.55330 L78.50283 170.26793 L78.48936 170.99546 L78.52261 171.73120 L78.59804 172.42884 L78.72094 173.14551 L78.89134 173.86203 L79.10290 174.55341 L79.35244 175.21788 L79.48837 175.52130 L79.48837 191.66003 L79.23822 192.25980 L79.00142 192.94785 L78.81111 193.63913 L78.66400 194.34231 L78.56108 195.05330 L78.50283 195.76793 L78.49075 196.42055 L78.48837 196.34444 z"/>
<path fill="#000000" stroke="#000000" d="M78.50145 196.76287 L78.50797 196.90729 L78.50496 196.87518 z"/>
<path fill="#000000" stroke="#000000" d="M78.61166 118.19987 L78.61867 118.15547 L78.61047 118.21210 z"/>
<path fill="#000000" stroke="#000000" d="M78.69548 117.66861 L78.77006 117.33533 L78.68058 117.76303 z"/>
<path fill="#000000" stroke="#000000" d="M78.64968 198.22996 L78.71252 198.59642 L78.69548 198.52028 z"/>
<path fill="#000000" stroke="#000000" d="M78.76441 198.82833 L78.83164 199.11101 L78.81436 199.05150 z"/>
<path fill="#000000" stroke="#000000" d="M79.31213 115.57157 L79.43867 115.27920 L79.28359 115.65103 z"/>
<path fill="#000000" stroke="#000000" d="M79.25634 200.46198 L79.33136 200.66175 L79.31213 200.61732 z"/>
<path fill="#000000" stroke="#000000" d="M79.44729 200.92960 L79.55161 201.16246 L79.52836 201.11690 z"/>
<path fill="#000000" stroke="#000000" d="M80.31636 113.62595 L80.47721 113.38891 L80.27867 113.68967 z"/>
<path fill="#000000" stroke="#000000" d="M80.28940 202.51736 L80.32412 202.57437 L80.31636 202.56293 z"/>
<path fill="#000000" stroke="#000000" d="M80.47914 202.80283 L80.65542 203.05483 L80.61284 202.99988 z"/>
<path fill="#000000" stroke="#000000" d="M81.66510 111.91079 L81.84827 111.72763 L81.61548 111.96713 z"/>
<path fill="#000000" stroke="#000000" d="M81.61944 204.22625 L81.67972 204.29271 L81.66510 204.27810 z"/>
<path fill="#000000" stroke="#000000" d="M82.05472 111.52117 L82.10657 111.47551 L82.04010 111.53579 z"/>
<path fill="#000000" stroke="#000000" d="M81.87155 204.48455 L82.11106 204.71734 L82.05472 204.66771 z"/>
<path fill="#000000" stroke="#000000" d="M83.33294 110.46892 L83.52999 110.33521 L83.27799 110.51149 z"/>
<path fill="#000000" stroke="#000000" d="M83.76988 110.17244 L83.81546 110.14547 L83.75845 110.18019 z"/>
<path fill="#000000" stroke="#000000" d="M83.53284 205.85561 L83.83360 206.05415 L83.76988 206.01645 z"/>
<path fill="#000000" stroke="#000000" d="M85.21591 109.38443 L85.40322 109.30336 L85.17036 109.40768 z"/>
<path fill="#000000" stroke="#000000" d="M85.71550 109.16820 L85.87083 109.11241 L85.67107 109.18743 z"/>
<path fill="#000000" stroke="#000000" d="M85.42313 206.89415 L85.79496 207.04923 L85.71550 207.02069 z"/>
<path fill="#000000" stroke="#000000" d="M87.28131 108.67043 L87.50449 108.62049 L87.22180 108.68771 z"/>
<path fill="#000000" stroke="#000000" d="M87.81254 108.55155 L88.10286 108.50575 L87.73640 108.56859 z"/>
<path fill="#000000" stroke="#000000" d="M87.47926 207.56276 L87.90696 207.65223 L87.81254 207.63734 z"/>
<path fill="#000000" stroke="#000000" d="M89.45764 108.36103 L89.56995 108.35752 L89.42552 108.36405 z"/>
<path fill="#000000" stroke="#000000" d="M89.98837 108.34444 L166.48837 108.34444 L166.78570 108.35374 L166.33736 108.34544 L165.60162 108.37868 L164.90398 108.45411 L164.18731 108.57701 L163.47079 108.74741 L162.77941 108.95897 L162.11494 109.20851 L161.81151 109.34444 L145.67278 109.34444 L145.07301 109.09429 L144.38497 108.85749 L143.69369 108.66718 L142.99051 108.52007 L142.27952 108.41716 L141.56489 108.35890 L140.83736 108.34544 L140.10162 108.37868 L139.40398 108.45411 L138.68731 108.57701 L137.97079 108.74741 L137.27941 108.95897 L136.61494 109.20851 L136.31151 109.34444 L120.17278 109.34444 L119.57301 109.09429 L118.88497 108.85749 L118.19369 108.66718 L117.49051 108.52007 L116.77952 108.41716 L116.06489 108.35890 L115.33736 108.34544 L114.60162 108.37868 L113.90398 108.45411 L113.18731 108.57701 L112.47079 108.74741 L111.77941 108.95897 L111.11494 109.20851 L110.81151 109.34444 L94.67278 109.34444 L94.07301 109.09429 L93.38497 108.85749 L92.69369 108.66718 L91.99051 108.52007 L91.27952 108.41716 L90.56489 108.35890 L89.91227 108.34682 z"/>
<path fill="#000000" stroke="#000000" d="M99.81033 206.84444 L110.80396 206.84444 L111.40373 207.09459 L112.09178 207.33140 L112.78306 207.52171 L113.48623 207.66882 L113.45518 207.84444 L99.63353 207.84444 z"/>
<path fill="#000000" stroke="#000000" d="M125.31033 206.84444 L136.30396 206.84444 L136.90373 207.09459 L137.59178 207.33140 L138.28306 207.52171 L138.98623 207.66882 L138.95518 207.84444 L125.13353 207.84444 z"/>
<path fill="#000000" stroke="#000000" d="M150.81033 206.84444 L161.80396 206.84444 L162.40373 207.09459 L163.09178 207.33140 L163.78306 207.52171 L164.48623 207.66882 L164.45518 207.84444 L150.63353 207.84444 z"/>
<path fill="#000000" stroke="#000000" d="M168.13294 108.46774 L168.17734 108.47474 L168.12072 108.46654 z"/>
<path fill="#000000" stroke="#000000" d="M168.66420 108.55155 L168.99749 108.62613 L168.56979 108.53666 z"/>
<path fill="#000000" stroke="#000000" d="M170.76125 109.16820 L171.05362 109.29474 L170.68178 109.13966 z"/>
<path fill="#000000" stroke="#000000" d="M172.70686 110.17244 L172.94391 110.33328 L172.64314 110.13474 z"/>
<path fill="#000000" stroke="#000000" d="M174.42203 111.52117 L174.60519 111.70434 L174.36568 111.47155 z"/>
<path fill="#000000" stroke="#000000" d="M174.81164 111.91079 L174.85731 111.96264 L174.79703 111.89618 z"/>
<path fill="#000000" stroke="#000000" d="M175.86390 113.18901 L175.99760 113.38606 L175.82132 113.13406 z"/>
<path fill="#000000" stroke="#000000" d="M176.15129 202.57010 L176.19808 202.49922 L176.16038 202.56293 L176.15507 202.57077 z"/>
<path fill="#000000" stroke="#000000" d="M176.16038 113.62595 L176.18735 113.67153 L176.15262 113.61452 z"/>
<path fill="#000000" stroke="#000000" d="M176.94839 115.07199 L177.02945 115.25929 L176.92513 115.02643 z"/>
<path fill="#000000" stroke="#000000" d="M176.98837 124.52885 L177.23852 123.92908 L177.47533 123.24104 L177.66564 122.54976 L177.81275 121.84658 L177.91566 121.13559 L177.97391 120.42096 L177.98599 119.76834 L177.98837 119.84444 L177.98837 196.34444 L177.97908 196.64177 L177.98738 196.19343 L177.95413 195.45769 L177.87871 194.76005 L177.75581 194.04338 L177.58541 193.32686 L177.37385 192.63548 L177.12430 191.97101 L176.98837 191.66758 L176.98837 177.50936 L177.03831 177.22693 L176.98837 177.21810 L176.98837 175.52885 L177.23852 174.92908 L177.47533 174.24104 L177.66564 173.54976 L177.81275 172.84658 L177.91566 172.13559 L177.97391 171.42096 L177.98738 170.69343 L177.95413 169.95769 L177.87871 169.26005 L177.75581 168.54338 L177.58541 167.82686 L177.37385 167.13548 L177.12430 166.47101 L176.98837 166.16758 L176.98837 152.00936 L177.03831 151.72693 L176.98837 151.71810 L176.98837 150.02885 L177.23852 149.42908 L177.47533 148.74104 L177.66564 148.04976 L177.81275 147.34658 L177.91566 146.63559 L177.97391 145.92096 L177.98738 145.19343 L177.95413 144.45769 L177.87871 143.76005 L177.75581 143.04338 L177.58541 142.32686 L177.37385 141.63548 L177.12430 140.97101 L176.98837 140.66758 L176.98837 126.50936 L177.03831 126.22693 L176.98837 126.21810 z"/>
<path fill="#000000" stroke="#000000" d="M177.16461 115.57157 L177.22041 115.72690 L177.14538 115.52714 z"/>
<path fill="#000000" stroke="#000000" d="M177.03807 200.90969 L177.19316 200.53786 L177.16461 200.61732 z"/>
<path fill="#000000" stroke="#000000" d="M177.66239 117.13739 L177.71233 117.36056 L177.64510 117.07787 z"/>
<path fill="#000000" stroke="#000000" d="M177.78126 117.66861 L177.82707 117.95893 L177.76423 117.59247 z"/>
<path fill="#000000" stroke="#000000" d="M177.70668 198.85356 L177.79616 198.42586 L177.78126 198.52028 z"/>
<path fill="#000000" stroke="#000000" d="M177.85808 198.03342 L177.86627 197.97679 L177.86508 197.98902 z"/>
<path fill="#000000" stroke="#000000" d="M177.97179 119.31371 L177.97530 119.42602 L177.96877 119.28160 z"/>
<path fill="#000000" stroke="#000000" d="M79.48837 124.52130 L79.64451 124.86984 L79.98636 125.51981 L80.35640 126.12737 L80.78371 126.73822 L81.22756 127.29416 L81.72091 127.83814 L82.23321 128.33605 L82.77183 128.79830 L83.34876 129.23410 L83.96342 129.63985 L84.59450 130.00103 L85.22399 130.31109 L85.90373 130.59459 L86.59178 130.83140 L87.28306 131.02171 L87.98623 131.16882 L87.72442 132.64968 L99.04879 134.65182 L100.53831 126.22693 L99.65129 126.07010 L99.78378 125.86940 L100.14496 125.23831 L100.45502 124.60882 L100.73852 123.92908 L100.97533 123.24104 L101.16564 122.54976 L101.31275 121.84658 L101.41566 121.13559 L101.47391 120.42096 L101.48738 119.69343 L101.45413 118.95769 L101.37871 118.26005 L101.25581 117.54338 L101.08541 116.82686 L100.87385 116.13548 L100.62430 115.47101 L100.33223 114.81905 L99.99039 114.16908 L99.62034 113.56152 L99.19304 112.95067 L98.74918 112.39473 L98.25583 111.85075 L97.74354 111.35284 L97.20491 110.89059 L96.62798 110.45479 L96.01333 110.04904 L95.38224 109.68786 L94.75275 109.37780 L94.67278 109.34444 L110.81151 109.34444 L110.46298 109.50059 L109.81301 109.84243 L109.20544 110.21248 L108.59459 110.63978 L108.03866 111.08364 L107.49468 111.57699 L106.99676 112.08928 L106.53452 112.62790 L106.09872 113.20484 L105.69297 113.81949 L105.33179 114.45058 L105.02173 115.08006 L104.73822 115.75980 L104.50142 116.44785 L104.31111 117.13913 L104.16400 117.84231 L104.06108 118.55330 L104.00283 119.26793 L103.98936 119.99546 L104.02261 120.73120 L104.09804 121.42884 L104.22094 122.14551 L104.39134 122.86203 L104.60290 123.55341 L104.85244 124.21788 L105.14451 124.86984 L105.48636 125.51981 L105.85640 126.12737 L106.28371 126.73822 L106.72756 127.29416 L107.22091 127.83814 L107.73321 128.33605 L108.27183 128.79830 L108.84876 129.23410 L109.46342 129.63985 L110.09450 130.00103 L110.72399 130.31109 L111.40373 130.59459 L112.09178 130.83140 L112.78306 131.02171 L113.48623 131.16882 L113.22442 132.64968 L124.54879 134.65182 L126.03831 126.22693 L125.15129 126.07010 L125.28378 125.86940 L125.64496 125.23831 L125.95502 124.60882 L126.23852 123.92908 L126.47533 123.24104 L126.66564 122.54976 L126.81275 121.84658 L126.91566 121.13559 L126.97391 120.42096 L126.98738 119.69343 L126.95413 118.95769 L126.87871 118.26005 L126.75581 117.54338 L126.58541 116.82686 L126.37385 116.13548 L126.12430 115.47101 L125.83223 114.81905 L125.49039 114.16908 L125.12034 113.56152 L124.69304 112.95067 L124.24918 112.39473 L123.75583 111.85075 L123.24354 111.35284 L122.70491 110.89059 L122.12798 110.45479 L121.51333 110.04904 L120.88224 109.68786 L120.25275 109.37780 L120.17278 109.34444 L136.31151 109.34444 L135.96298 109.50059 L135.31301 109.84243 L134.70544 110.21248 L134.09459 110.63978 L133.53866 111.08364 L132.99468 111.57699 L132.49676 112.08928 L132.03452 112.62790 L131.59872 113.20484 L131.19297 113.81949 L130.83179 114.45058 L130.52173 115.08006 L130.23822 115.75980 L130.00142 116.44785 L129.81111 117.13913 L129.66400 117.84231 L129.56108 118.55330 L129.50283 119.26793 L129.48936 119.99546 L129.52261 120.73120 L129.59804 121.42884 L129.72094 122.14551 L129.89134 122.86203 L130.10290 123.55341 L130.35244 124.21788 L130.64451 124.86984 L130.98636 125.51981 L131.35640 126.12737 L131.78371 126.73822 L132.22756 127.29416 L132.72091 127.83814 L133.23321 128.33605 L133.77183 128.79830 L134.34876 129.23410 L134.96342 129.63985 L135.59450 130.00103 L136.22399 130.31109 L136.90373 130.59459 L137.59178 130.83140 L138.28306 131.02171 L138.98623 131.16882 L138.72442 132.64968 L150.04879 134.65182 L151.53831 126.22693 L150.65129 126.07010 L150.78378 125.86940 L151.14496 125.23831 L151.45502 124.60882 L151.73852 123.92908 L151.97533 123.24104 L152.16564 122.54976 L152.31275 121.84658 L152.41566 121.13559 L152.47391 120.42096 L152.48738 119.69343 L152.45413 118.95769 L152.37871 118.26005 L152.25581 117.54338 L152.08541 116.82686 L151.87385 116.13548 L151.62430 115.47101 L151.33223 114.81905 L150.99039 114.16908 L150.62034 113.56152 L150.19304 112.95067 L149.74918 112.39473 L149.25583 111.85075 L148.74354 111.35284 L148.20491 110.89059 L147.62798 110.45479 L147.01333 110.04904 L146.38224 109.68786 L145.75275 109.37780 L145.67278 109.34444 L161.81151 109.34444 L161.46298 109.50059 L160.81301 109.84243 L160.20544 110.21248 L159.59459 110.63978 L159.03866 111.08364 L158.49468 111.57699 L157.99676 112.08928 L157.53452 112.62790 L157.09872 113.20484 L156.69297 113.81949 L156.33179 114.45058 L156.02173 115.08006 L155.73822 115.75980 L155.50142 116.44785 L155.31111 117.13913 L155.16400 117.84231 L155.06108 118.55330 L155.00283 119.26793 L154.98936 119.99546 L155.02261 120.73120 L155.09804 121.42884 L155.22094 122.14551 L155.39134 122.86203 L155.60290 123.55341 L155.85244 124.21788 L156.14451 124.86984 L156.48636 125.51981 L156.85640 126.12737 L157.28371 126.73822 L157.72756 127.29416 L158.22091 127.83814 L158.73321 128.33605 L159.27183 128.79830 L159.84876 129.23410 L160.46342 129.63985 L161.09450 130.00103 L161.72399 130.31109 L162.40373 130.59459 L163.09178 130.83140 L163.78306 131.02171 L164.48623 131.16882 L164.22442 132.64968 L175.54879 134.65182 L176.98837 126.50936 L176.98837 140.66758 L176.83223 140.31905 L176.49039 139.66908 L176.12034 139.06152 L175.69304 138.45067 L175.24918 137.89473 L174.75583 137.35075 L174.24354 136.85284 L173.70491 136.39059 L173.12798 135.95479 L172.51333 135.54904 L171.88224 135.18786 L171.25275 134.87780 L170.57301 134.59429 L169.88497 134.35749 L169.19369 134.16718 L168.49051 134.02007 L167.77952 133.91716 L167.06489 133.85890 L166.33736 133.84544 L165.60162 133.87868 L164.90398 133.95411 L164.18731 134.07701 L163.47079 134.24741 L162.77941 134.45897 L162.11494 134.70851 L161.46298 135.00059 L160.81301 135.34243 L160.20544 135.71248 L159.59459 136.13978 L159.03866 136.58364 L158.49468 137.07699 L157.99676 137.58928 L157.53452 138.12790 L157.09872 138.70484 L156.69297 139.31949 L156.33179 139.95058 L156.02173 140.58006 L155.73822 141.25980 L155.50142 141.94785 L155.31111 142.63913 L155.16400 143.34231 L155.06108 144.05330 L155.00283 144.76793 L154.98936 145.49546 L155.02261 146.23120 L155.09804 146.92884 L155.22094 147.64551 L155.39134 148.36203 L155.60290 149.05341 L155.85244 149.71788 L156.14451 150.36984 L156.48636 151.01981 L156.85640 151.62737 L157.28371 152.23822 L157.72756 152.79416 L158.22091 153.33814 L158.73321 153.83605 L159.27183 154.29830 L159.84876 154.73410 L160.46342 155.13985 L161.09450 155.50103 L161.72399 155.81109 L162.40373 156.09459 L163.09178 156.33140 L163.78306 156.52171 L164.48623 156.66882 L164.22442 158.14968 L175.54879 160.15182 L176.98837 152.00936 L176.98837 166.16758 L176.83223 165.81905 L176.49039 165.16908 L176.12034 164.56152 L175.69304 163.95067 L175.24918 163.39473 L174.75583 162.85075 L174.24354 162.35284 L173.70491 161.89059 L173.12798 161.45479 L172.51333 161.04904 L171.88224 160.68786 L171.25275 160.37780 L170.57301 160.09429 L169.88497 159.85749 L169.19369 159.66718 L168.49051 159.52007 L167.77952 159.41716 L167.06489 159.35890 L166.33736 159.34544 L165.60162 159.37868 L164.90398 159.45411 L164.18731 159.57701 L163.47079 159.74741 L162.77941 159.95897 L162.11494 160.20851 L161.46298 160.50059 L160.81301 160.84243 L160.20544 161.21248 L159.59459 161.63978 L159.03866 162.08364 L158.49468 162.57699 L157.99676 163.08928 L157.53452 163.62790 L157.09872 164.20484 L156.69297 164.81949 L156.33179 165.45058 L156.02173 166.08006 L155.73822 166.75980 L155.50142 167.44785 L155.31111 168.13913 L155.16400 168.84231 L155.06108 169.55330 L155.00283 170.26793 L154.98936 170.99546 L155.02261 171.73120 L155.09804 172.42884 L155.22094 173.14551 L155.39134 173.86203 L155.60290 174.55341 L155.85244 175.21788 L156.14451 175.86984 L156.48636 176.51981 L156.85640 177.12737 L157.28371 177.73822 L157.72756 178.29416 L158.22091 178.83814 L158.73321 179.33605 L159.27183 179.79830 L159.84876 180.23410 L160.46342 180.63985 L161.09450 181.00103 L161.72399 181.31109 L162.40373 181.59459 L163.09178 181.83140 L163.78306 182.02171 L164.48623 182.16882 L164.22442 183.64968 L175.54879 185.65182 L176.98837 177.50936 L176.98837 191.66758 L176.83223 191.31905 L176.49039 190.66908 L176.12034 190.06152 L175.69304 189.45067 L175.24918 188.89473 L174.75583 188.35075 L174.24354 187.85284 L173.70491 187.39059 L173.12798 186.95479 L172.51333 186.54904 L171.88224 186.18786 L171.25275 185.87780 L170.57301 185.59429 L169.88497 185.35749 L169.19369 185.16718 L168.49051 185.02007 L167.77952 184.91716 L167.06489 184.85890 L166.33736 184.84544 L165.60162 184.87868 L164.90398 184.95411 L164.18731 185.07701 L163.47079 185.24741 L162.77941 185.45897 L162.11494 185.70851 L161.46298 186.00059 L160.81301 186.34243 L160.20544 186.71248 L159.59459 187.13978 L159.03866 187.58364 L158.49468 188.07699 L157.99676 188.58928 L157.53452 189.12790 L157.09872 189.70484 L156.69297 190.31949 L156.33179 190.95058 L156.02173 191.58006 L155.73822 192.25980 L155.50142 192.94785 L155.31111 193.63913 L155.16400 194.34231 L155.06108 195.05330 L155.00283 195.76793 L154.98936 196.49546 L155.02261 197.23120 L155.09804 197.92884 L155.22094 198.64551 L155.39134 199.36203 L155.60290 200.05341 L155.85244 200.71788 L156.14451 201.36984 L156.48636 202.01981 L156.85640 202.62737 L157.28371 203.23822 L157.72756 203.79416 L158.22091 204.33814 L158.73321 204.83605 L159.27183 205.29830 L159.84876 205.73410 L160.46342 206.13985 L161.09450 206.50103 L161.72399 206.81109 L161.80396 206.84444 L150.81033 206.84444 L151.53831 202.72693 L150.65129 202.57010 L150.78378 202.36940 L151.14496 201.73831 L151.45502 201.10882 L151.73852 200.42908 L151.97533 199.74104 L152.16564 199.04976 L152.31275 198.34658 L152.41566 197.63559 L152.47391 196.92096 L152.48738 196.19343 L152.45413 195.45769 L152.37871 194.76005 L152.25581 194.04338 L152.08541 193.32686 L151.87385 192.63548 L151.62430 191.97101 L151.33223 191.31905 L150.99039 190.66908 L150.62034 190.06152 L150.19304 189.45067 L149.74918 188.89473 L149.25583 188.35075 L148.74354 187.85284 L148.20491 187.39059 L147.62798 186.95479 L147.01333 186.54904 L146.38224 186.18786 L145.75275 185.87780 L145.07301 185.59429 L144.38497 185.35749 L143.69369 185.16718 L142.99051 185.02007 L142.27952 184.91716 L141.56489 184.85890 L140.83736 184.84544 L140.10162 184.87868 L139.40398 184.95411 L138.68731 185.07701 L137.97079 185.24741 L137.27941 185.45897 L136.61494 185.70851 L135.96298 186.00059 L135.31301 186.34243 L134.70544 186.71248 L134.09459 187.13978 L133.53866 187.58364 L132.99468 188.07699 L132.49676 188.58928 L132.03452 189.12790 L131.59872 189.70484 L131.19297 190.31949 L130.83179 190.95058 L130.52173 191.58006 L130.23822 192.25980 L130.00142 192.94785 L129.81111 193.63913 L129.66400 194.34231 L129.56108 195.05330 L129.50283 195.76793 L129.48936 196.49546 L129.52261 197.23120 L129.59804 197.92884 L129.72094 198.64551 L129.89134 199.36203 L130.10290 200.05341 L130.35244 200.71788 L130.64451 201.36984 L130.98636 202.01981 L131.35640 202.62737 L131.78371 203.23822 L132.22756 203.79416 L132.72091 204.33814 L133.23321 204.83605 L133.77183 205.29830 L134.34876 205.73410 L134.96342 206.13985 L135.59450 206.50103 L136.22399 206.81109 L136.30396 206.84444 L125.31033 206.84444 L126.03831 202.72693 L125.15129 202.57010 L125.28378 202.36940 L125.64496 201.73831 L125.95502 201.10882 L126.23852 200.42908 L126.47533 199.74104 L126.66564 199.04976 L126.81275 198.34658 L126.91566 197.63559 L126.97391 196.92096 L126.98738 196.19343 L126.95413 195.45769 L126.87871 194.76005 L126.75581 194.04338 L126.58541 193.32686 L126.37385 192.63548 L126.12430 191.97101 L125.83223 191.31905 L125.49039 190.66908 L125.12034 190.06152 L124.69304 189.45067 L124.24918 188.89473 L123.75583 188.35075 L123.24354 187.85284 L122.70491 187.39059 L122.12798 186.95479 L121.51333 186.54904 L120.88224 186.18786 L120.25275 185.87780 L119.57301 185.59429 L118.88497 185.35749 L118.19369 185.16718 L117.49051 185.02007 L116.77952 184.91716 L116.06489 184.85890 L115.33736 184.84544 L114.60162 184.87868 L113.90398 184.95411 L113.18731 185.07701 L112.47079 185.24741 L111.77941 185.45897 L111.11494 185.70851 L110.46298 186.00059 L109.81301 186.34243 L109.20544 186.71248 L108.59459 187.13978 L108.03866 187.58364 L107.49468 188.07699 L106.99676 188.58928 L106.53452 189.12790 L106.09872 189.70484 L105.69297 190.31949 L105.33179 190.95058 L105.02173 191.58006 L104.73822 192.25980 L104.50142 192.94785 L104.31111 193.63913 L104.16400 194.34231 L104.06108 195.05330 L104.00283 195.76793 L103.98936 196.49546 L104.02261 197.23120 L104.09804 197.92884 L104.22094 198.64551 L104.39134 199.36203 L104.60290 200.05341 L104.85244 200.71788 L105.14451 201.36984 L105.48636 202.01981 L105.85640 202.62737 L106.28371 203.23822 L106.72756 203.79416 L107.22091 204.33814 L107.73321 204.83605 L108.27183 205.29830 L108.84876 205.73410 L109.46342 206.13985 L110.09450 206.50103 L110.72399 206.81109 L110.80396 206.84444 L99.81033 206.84444 L100.53831 202.72693 L99.65129 202.57010 L99.78378 202.36940 L100.14496 201.73831 L100.45502 201.10882 L100.73852 200.42908 L100.97533 199.74104 L101.16564 199.04976 L101.31275 198.34658 L101.41566 197.63559 L101.47391 196.92096 L101.48738 196.19343 L101.45413 195.45769 L101.37871 194.76005 L101.25581 194.04338 L101.08541 193.32686 L100.87385 192.63548 L100.62430 191.97101 L100.33223 191.31905 L99.99039 190.66908 L99.62034 190.06152 L99.19304 189.45067 L98.74918 188.89473 L98.25583 188.35075 L97.74354 187.85284 L97.20491 187.39059 L96.62798 186.95479 L96.01333 186.54904 L95.38224 186.18786 L94.75275 185.87780 L94.07301 185.59429 L93.38497 185.35749 L92.69369 185.16718 L91.99051 185.02007 L91.27952 184.91716 L90.56489 184.85890 L89.83736 184.84544 L89.10162 184.87868 L88.40398 184.95411 L87.68731 185.07701 L86.97079 185.24741 L86.27941 185.45897 L85.61494 185.70851 L84.96298 186.00059 L84.31301 186.34243 L83.70544 186.71248 L83.09459 187.13978 L82.53866 187.58364 L81.99468 188.07699 L81.49676 188.58928 L81.03452 189.12790 L80.59872 189.70484 L80.19297 190.31949 L79.83179 190.95058 L79.52173 191.58006 L79.48837 191.66003 L79.48837 175.52130 L79.64451 175.86984 L79.98636 176.51981 L80.35640 177.12737 L80.78371 177.73822 L81.22756 178.29416 L81.72091 178.83814 L82.23321 179.33605 L82.77183 179.79830 L83.34876 180.23410 L83.96342 180.63985 L84.59450 181.00103 L85.22399 181.31109 L85.90373 181.59459 L86.59178 181.83140 L87.28306 182.02171 L87.98623 182.16882 L87.72442 183.64968 L99.04879 185.65182 L100.53831 177.22693 L99.65129 177.07010 L99.78378 176.86940 L100.14496 176.23831 L100.45502 175.60882 L100.73852 174.92908 L100.97533 174.24104 L101.16564 173.54976 L101.31275 172.84658 L101.41566 172.13559 L101.47391 171.42096 L101.48738 170.69343 L101.45413 169.95769 L101.37871 169.26005 L101.25581 168.54338 L101.08541 167.82686 L100.87385 167.13548 L100.62430 166.47101 L100.33223 165.81905 L99.99039 165.16908 L99.62034 164.56152 L99.19304 163.95067 L98.74918 163.39473 L98.25583 162.85075 L97.74354 162.35284 L97.20491 161.89059 L96.62798 161.45479 L96.01333 161.04904 L95.38224 160.68786 L94.75275 160.37780 L94.07301 160.09429 L93.38497 159.85749 L92.69369 159.66718 L91.99051 159.52007 L91.27952 159.41716 L90.56489 159.35890 L89.83736 159.34544 L89.10162 159.37868 L88.40398 159.45411 L87.68731 159.57701 L86.97079 159.74741 L86.27941 159.95897 L85.61494 160.20851 L84.96298 160.50059 L84.31301 160.84243 L83.70544 161.21248 L83.09459 161.63978 L82.53866 162.08364 L81.99468 162.57699 L81.49676 163.08928 L81.03452 163.62790 L80.59872 164.20484 L80.19297 164.81949 L79.83179 165.45058 L79.52173 166.08006 L79.48837 166.16003 L79.48837 150.02130 L79.64451 150.36984 L79.98636 151.01981 L80.35640 151.62737 L80.78371 152.23822 L81.22756 152.79416 L81.72091 153.33814 L82.23321 153.83605 L82.77183 154.29830 L83.34876 154.73410 L83.96342 155.13985 L84.59450 155.50103 L85.22399 155.81109 L85.90373 156.09459 L86.59178 156.33140 L87.28306 156.52171 L87.98623 156.66882 L87.72442 158.14968 L99.04879 160.15182 L100.53831 151.72693 L99.65129 151.57010 L99.78378 151.36940 L100.14496 150.73831 L100.45502 150.10882 L100.73852 149.42908 L100.97533 148.74104 L101.16564 148.04976 L101.31275 147.34658 L101.41566 146.63559 L101.47391 145.92096 L101.48738 145.19343 L101.45413 144.45769 L101.37871 143.76005 L101.25581 143.04338 L101.08541 142.32686 L100.87385 141.63548 L100.62430 140.97101 L100.33223 140.31905 L99.99039 139.66908 L99.62034 139.06152 L99.19304 138.45067 L98.74918 137.89473 L98.25583 137.35075 L97.74354 136.85284 L97.20491 136.39059 L96.62798 135.95479 L96.01333 135.54904 L95.38224 135.18786 L94.75275 134.87780 L94.07301 134.59429 L93.38497 134.35749 L92.69369 134.16718 L91.99051 134.02007 L91.27952 133.91716 L90.56489 133.85890 L89.83736 133.84544 L89.10162 133.87868 L88.40398 133.95411 L87.68731 134.07701 L86.97079 134.24741 L86.27941 134.45897 L85.61494 134.70851 L84.96298 135.00059 L84.31301 135.34243 L83.70544 135.71248 L83.09459 136.13978 L82.53866 136.58364 L81.99468 137.07699 L81.49676 137.58928 L81.03452 138.12790 L80.59872 138.70484 L80.19297 139.31949 L79.83179 139.95058 L79.52173 140.58006 L79.48837 140.66003 z M152.48738 170.69343 L152.45413 169.95769 L152.37871 169.26005 L152.25581 168.54338 L152.08541 167.82686 L151.87385 167.13548 L151.62430 166.47101 L151.33223 165.81905 L150.99039 165.16908 L150.62034 164.56152 L150.19304 163.95067 L149.74918 163.39473 L149.25583 162.85075 L148.74354 162.35284 L148.20491 161.89059 L147.62798 161.45479 L147.01333 161.04904 L146.38224 160.68786 L145.75275 160.37780 L145.07301 160.09429 L144.38497 159.85749 L143.69369 159.66718 L142.99051 159.52007 L142.27952 159.41716 L141.56489 159.35890 L140.83736 159.34544 L140.10162 159.37868 L139.40398 159.45411 L138.68731 159.57701 L137.97079 159.74741 L137.27941 159.95897 L136.61494 160.20851 L135.96298 160.50059 L135.31301 160.84243 L134.70544 161.21248 L134.09459 161.63978 L133.53866 162.08364 L132.99468 162.57699 L132.49676 163.08928 L132.03452 163.62790 L131.59872 164.20484 L131.19297 164.81949 L130.83179 165.45058 L130.52173 166.08006 L130.23822 166.75980 L130.00142 167.44785 L129.81111 168.13913 L129.66400 168.84231 L129.56108 169.55330 L129.50283 170.26793 L129.48936 170.99546 L129.52261 171.73120 L129.59804 172.42884 L129.72094 173.14551 L129.89134 173.86203 L130.10290 174.55341 L130.35244 175.21788 L130.64451 175.86984 L130.98636 176.51981 L131.35640 177.12737 L131.78371 177.73822 L132.22756 178.29416 L132.72091 178.83814 L133.23321 179.33605 L133.77183 179.79830 L134.34876 180.23410 L134.96342 180.63985 L135.59450 181.00103 L136.22399 181.31109 L136.90373 181.59459 L137.59178 181.83140 L138.28306 182.02171 L138.98623 182.16882 L138.72442 183.64968 L150.04879 185.65182 L151.53831 177.22693 L150.65129 177.07010 L150.78378 176.86940 L151.14496 176.23831 L151.45502 175.60882 L151.73852 174.92908 L151.97533 174.24104 L152.16564 173.54976 L152.31275 172.84658 L152.41566 172.13559 L152.47391 171.42096 z M152.48738 145.19343 L152.45413 144.45769 L152.37871 143.76005 L152.25581 143.04338 L152.08541 142.32686 L151.87385 141.63548 L151.62430 140.97101 L151.33223 140.31905 L150.99039 139.66908 L150.62034 139.06152 L150.19304 138.45067 L149.74918 137.89473 L149.25583 137.35075 L148.74354 136.85284 L148.20491 136.39059 L147.62798 135.95479 L147.01333 135.54904 L146.38224 135.18786 L145.75275 134.87780 L145.07301 134.59429 L144.38497 134.35749 L143.69369 134.16718 L142.99051 134.02007 L142.27952 133.91716 L141.56489 133.85890 L140.83736 133.84544 L140.10162 133.87868 L139.40398 133.95411 L138.68731 134.07701 L137.97079 134.24741 L137.27941 134.45897 L136.61494 134.70851 L135.96298 135.00059 L135.31301 135.34243 L134.70544 135.71248 L134.09459 136.13978 L133.53866 136.58364 L132.99468 137.07699 L132.49676 137.58928 L132.03452 138.12790 L131.59872 138.70484 L131.19297 139.31949 L130.83179 139.95058 L130.52173 140.58006 L130.23822 141.25980 L130.00142 141.94785 L129.81111 142.63913 L129.66400 143.34231 L129.56108 144.05330 L129.50283 144.76793 L129.48936 145.49546 L129.52261 146.23120 L129.59804 146.92884 L129.72094 147.64551 L129.89134 148.36203 L130.10290 149.05341 L130.35244 149.71788 L130.64451 150.36984 L130.98636 151.01981 L131.35640 151.62737 L131.78371 152.23822 L132.22756 152.79416 L132.72091 153.33814 L133.23321 153.83605 L133.77183 154.29830 L134.34876 154.73410 L134.96342 155.13985 L135.59450 155.50103 L136.22399 155.81109 L136.90373 156.09459 L137.59178 156.33140 L138.28306 156.52171 L138.98623 156.66882 L138.72442 158.14968 L150.04879 160.15182 L151.53831 151.72693 L150.65129 151.57010 L150.78378 151.36940 L151.14496 150.73831 L151.45502 150.10882 L151.73852 149.42908 L151.97533 148.74104 L152.16564 148.04976 L152.31275 147.34658 L152.41566 146.63559 L152.47391 145.92096 z M126.98738 170.69343 L126.95413 169.95769 L126.87871 169.26005 L126.75581 168.54338 L126.58541 167.82686 L126.37385 167.13548 L126.12430 166.47101 L125.83223 165.81905 L125.49039 165.16908 L125.12034 164.56152 L124.69304 163.95067 L124.24918 163.39473 L123.75583 162.85075 L123.24354 162.35284 L122.70491 161.89059 L122.12798 161.45479 L121.51333 161.04904 L120.88224 160.68786 L120.25275 160.37780 L119.57301 160.09429 L118.88497 159.85749 L118.19369 159.66718 L117.49051 159.52007 L116.77952 159.41716 L116.06489 159.35890 L115.33736 159.34544 L114.60162 159.37868 L113.90398 159.45411 L113.18731 159.57701 L112.47079 159.74741 L111.77941 159.95897 L111.11494 160.20851 L110.46298 160.50059 L109.81301 160.84243 L109.20544 161.21248 L108.59459 161.63978 L108.03866 162.08364 L107.49468 162.57699 L106.99676 163.08928 L106.53452 163.62790 L106.09872 164.20484 L105.69297 164.81949 L105.33179 165.45058 L105.02173 166.08006 L104.73822 166.75980 L104.50142 167.44785 L104.31111 168.13913 L104.16400 168.84231 L104.06108 169.55330 L104.00283 170.26793 L103.98936 170.99546 L104.02261 171.73120 L104.09804 172.42884 L104.22094 173.14551 L104.39134 173.86203 L104.60290 174.55341 L104.85244 175.21788 L105.14451 175.86984 L105.48636 176.51981 L105.85640 177.12737 L106.28371 177.73822 L106.72756 178.29416 L107.22091 178.83814 L107.73321 179.33605 L108.27183 179.79830 L108.84876 180.23410 L109.46342 180.63985 L110.09450 181.00103 L110.72399 181.31109 L111.40373 181.59459 L112.09178 181.83140 L112.78306 182.02171 L113.48623 182.16882 L113.22442 183.64968 L124.54879 185.65182 L126.03831 177.22693 L125.15129 177.07010 L125.28378 176.86940 L125.64496 176.23831 L125.95502 175.60882 L126.23852 174.92908 L126.47533 174.24104 L126.66564 173.54976 L126.81275 172.84658 L126.91566 172.13559 L126.97391 171.42096 z M126.98738 145.19343 L126.95413 144.45769 L126.87871 143.76005 L126.75581 143.04338 L126.58541 142.32686 L126.37385 141.63548 L126.12430 140.97101 L125.83223 140.31905 L125.49039 139.66908 L125.12034 139.06152 L124.69304 138.45067 L124.24918 137.89473 L123.75583 137.35075 L123.24354 136.85284 L122.70491 136.39059 L122.12798 135.95479 L121.51333 135.54904 L120.88224 135.18786 L120.25275 134.87780 L119.57301 134.59429 L118.88497 134.35749 L118.19369 134.16718 L117.49051 134.02007 L116.77952 133.91716 L116.06489 133.85890 L115.33736 133.84544 L114.60162 133.87868 L113.90398 133.95411 L113.18731 134.07701 L112.47079 134.24741 L111.77941 134.45897 L111.11494 134.70851 L110.46298 135.00059 L109.81301 135.34243 L109.20544 135.71248 L108.59459 136.13978 L108.03866 136.58364 L107.49468 137.07699 L106.99676 137.58928 L106.53452 138.12790 L106.09872 138.70484 L105.69297 139.31949 L105.33179 139.95058 L105.02173 140.58006 L104.73822 141.25980 L104.50142 141.94785 L104.31111 142.63913 L104.16400 143.34231 L104.06108 144.05330 L104.00283 144.76793 L103.98936 145.49546 L104.02261 146.23120 L104.09804 146.92884 L104.22094 147.64551 L104.39134 148.36203 L104.60290 149.05341 L104.85244 149.71788 L105.14451 150.36984 L105.48636 151.01981 L105.85640 151.62737 L106.28371 152.23822 L106.72756 152.79416 L107.22091 153.33814 L107.73321 153.83605 L108.27183 154.29830 L108.84876 154.73410 L109.46342 155.13985 L110.09450 155.50103 L110.72399 155.81109 L111.40373 156.09459 L112.09178 156.33140 L112.78306 156.52171 L113.48623 156.66882 L113.22442 158.14968 L124.54879 160.15182 L126.03831 151.72693 L125.15129 151.57010 L125.28378 151.36940 L125.64496 150.73831 L125.95502 150.10882 L126.23852 149.42908 L126.47533 148.74104 L126.66564 148.04976 L126.81275 147.34658 L126.91566 146.63559 L126.97391 145.92096 z"/>
<path fill="#000000" stroke="#000000" d="M176.28378 125.86940 L176.64496 125.23831 L176.95502 124.60882 L176.98837 124.52885 L176.98837 126.21810 L176.15129 126.07010 z"/>
<path fill="#000000" stroke="#000000" d="M176.28378 151.36940 L176.64496 150.73831 L176.95502 150.10882 L176.98837 150.02885 L176.98837 151.71810 L176.15129 151.57010 z"/>
<path fill="#000000" stroke="#000000" d="M176.28378 176.86940 L176.64496 176.23831 L176.95502 175.60882 L176.98837 175.52885 L176.98837 177.21810 L176.15129 177.07010 z"/>
<path fill="#000000" stroke="#000000" d="M87.98623 156.66882 L88.69722 156.77173 L89.41185 156.82998 L90.13938 156.84345 L90.87512 156.81021 L91.57277 156.73478 L92.28944 156.61188 L93.00595 156.44148 L93.69734 156.22992 L94.36181 155.98038 L95.01377 155.68830 L95.66373 155.34646 L96.27130 154.97641 L96.88215 154.54911 L97.43808 154.10525 L97.98207 153.61190 L98.47998 153.09961 L98.94223 152.56098 L99.37803 151.98405 L99.65129 151.57010 L100.53831 151.72693 L99.04879 160.15182 L87.72442 158.14968 z"/>
<path fill="#000000" stroke="#000000" d="M78.50283 144.76793 L78.56108 144.05330 L78.66400 143.34231 L78.81111 142.63913 L79.00142 141.94785 L79.23822 141.25980 L79.52173 140.58006 L79.83179 139.95058 L80.19297 139.31949 L80.59872 138.70484 L81.03452 138.12790 L81.49676 137.58928 L81.99468 137.07699 L82.53866 136.58364 L83.09459 136.13978 L83.70544 135.71248 L84.31301 135.34243 L84.96298 135.00059 L85.61494 134.70851 L86.27941 134.45897 L86.97079 134.24741 L87.68731 134.07701 L88.40398 133.95411 L89.10162 133.87868 L89.83736 133.84544 L90.56489 133.85890 L91.27952 133.91716 L91.99051 134.02007 L92.69369 134.16718 L93.38497 134.35749 L94.07301 134.59429 L94.75275 134.87780 L95.38224 135.18786 L96.01333 135.54904 L96.62798 135.95479 L97.20491 136.39059 L97.74354 136.85284 L98.25583 137.35075 L98.74918 137.89473 L99.19304 138.45067 L99.62034 139.06152 L99.99039 139.66908 L100.33223 140.31905 L100.62430 140.97101 L100.87385 141.63548 L101.08541 142.32686 L101.25581 143.04338 L101.37871 143.76005 L101.45413 144.45769 L101.48738 145.19343 L101.47391 145.92096 L101.41566 146.63559 L101.31275 147.34658 L101.16564 148.04976 L100.97533 148.74104 L100.73852 149.42908 L100.45502 150.10882 L100.14496 150.73831 L99.78378 151.36940 L99.37803 151.98405 L98.94223 152.56098 L98.47998 153.09961 L97.98207 153.61190 L97.43808 154.10525 L96.88215 154.54911 L96.27130 154.97641 L95.66373 155.34646 L95.01377 155.68830 L94.36181 155.98038 L93.69734 156.22992 L93.00595 156.44148 L92.28944 156.61188 L91.57277 156.73478 L90.87512 156.81021 L90.13938 156.84345 L89.41185 156.82998 L88.69722 156.77173 L87.98623 156.66882 L87.28306 156.52171 L86.59178 156.33140 L85.90373 156.09459 L85.22399 155.81109 L84.59450 155.50103 L83.96342 155.13985 L83.34876 154.73410 L82.77183 154.29830 L82.23321 153.83605 L81.72091 153.33814 L81.22756 152.79416 L80.78371 152.23822 L80.35640 151.62737 L79.98636 151.01981 L79.64451 150.36984 L79.35244 149.71788 L79.10290 149.05341 L78.89134 148.36203 L78.72094 147.64551 L78.59804 146.92884 L78.52261 146.23120 L78.48936 145.49546 z"/>
<path fill="#000000" stroke="#000000" d="M113.48623 156.66882 L114.19722 156.77173 L114.91185 156.82998 L115.63938 156.84345 L116.37512 156.81021 L117.07277 156.73478 L117.78944 156.61188 L118.50595 156.44148 L119.19734 156.22992 L119.86181 155.98038 L120.51377 155.68830 L121.16373 155.34646 L121.77130 154.97641 L122.38215 154.54911 L122.93808 154.10525 L123.48207 153.61190 L123.97998 153.09961 L124.44223 152.56098 L124.87803 151.98405 L125.15129 151.57010 L126.03831 151.72693 L124.54879 160.15182 L113.22442 158.14968 z"/>
<path fill="#000000" stroke="#000000" d="M104.00283 144.76793 L104.06108 144.05330 L104.16400 143.34231 L104.31111 142.63913 L104.50142 141.94785 L104.73822 141.25980 L105.02173 140.58006 L105.33179 139.95058 L105.69297 139.31949 L106.09872 138.70484 L106.53452 138.12790 L106.99676 137.58928 L107.49468 137.07699 L108.03866 136.58364 L108.59459 136.13978 L109.20544 135.71248 L109.81301 135.34243 L110.46298 135.00059 L111.11494 134.70851 L111.77941 134.45897 L112.47079 134.24741 L113.18731 134.07701 L113.90398 133.95411 L114.60162 133.87868 L115.33736 133.84544 L116.06489 133.85890 L116.77952 133.91716 L117.49051 134.02007 L118.19369 134.16718 L118.88497 134.35749 L119.57301 134.59429 L120.25275 134.87780 L120.88224 135.18786 L121.51333 135.54904 L122.12798 135.95479 L122.70491 136.39059 L123.24354 136.85284 L123.75583 137.35075 L124.24918 137.89473 L124.69304 138.45067 L125.12034 139.06152 L125.49039 139.66908 L125.83223 140.31905 L126.12430 140.97101 L126.37385 141.63548 L126.58541 142.32686 L126.75581 143.04338 L126.87871 143.76005 L126.95413 144.45769 L126.98738 145.19343 L126.97391 145.92096 L126.91566 146.63559 L126.81275 147.34658 L126.66564 148.04976 L126.47533 148.74104 L126.23852 149.42908 L125.95502 150.10882 L125.64496 150.73831 L125.28378 151.36940 L124.87803 151.98405 L124.44223 152.56098 L123.97998 153.09961 L123.48207 153.61190 L122.93808 154.10525 L122.38215 154.54911 L121.77130 154.97641 L121.16373 155.34646 L120.51377 155.68830 L119.86181 155.98038 L119.19734 156.22992 L118.50595 156.44148 L117.78944 156.61188 L117.07277 156.73478 L116.37512 156.81021 L115.63938 156.84345 L114.91185 156.82998 L114.19722 156.77173 L113.48623 156.66882 L112.78306 156.52171 L112.09178 156.33140 L111.40373 156.09459 L110.72399 155.81109 L110.09450 155.50103 L109.46342 155.13985 L108.84876 154.73410 L108.27183 154.29830 L107.73321 153.83605 L107.22091 153.33814 L106.72756 152.79416 L106.28371 152.23822 L105.85640 151.62737 L105.48636 151.01981 L105.14451 150.36984 L104.85244 149.71788 L104.60290 149.05341 L104.39134 148.36203 L104.22094 147.64551 L104.09804 146.92884 L104.02261 146.23120 L103.98936 145.49546 z"/>
<path fill="#000000" stroke="#000000" d="M138.98623 156.66882 L139.69722 156.77173 L140.41185 156.82998 L141.13938 156.84345 L141.87512 156.81021 L142.57277 156.73478 L143.28944 156.61188 L144.00595 156.44148 L144.69734 156.22992 L145.36181 155.98038 L146.01377 155.68830 L146.66373 155.34646 L147.27130 154.97641 L147.88215 154.54911 L148.43808 154.10525 L148.98207 153.61190 L149.47998 153.09961 L149.94223 152.56098 L150.37803 151.98405 L150.65129 151.57010 L151.53831 151.72693 L150.04879 160.15182 L138.72442 158.14968 z"/>
<path fill="#000000" stroke="#000000" d="M129.50283 144.76793 L129.56108 144.05330 L129.66400 143.34231 L129.81111 142.63913 L130.00142 141.94785 L130.23822 141.25980 L130.52173 140.58006 L130.83179 139.95058 L131.19297 139.31949 L131.59872 138.70484 L132.03452 138.12790 L132.49676 137.58928 L132.99468 137.07699 L133.53866 136.58364 L134.09459 136.13978 L134.70544 135.71248 L135.31301 135.34243 L135.96298 135.00059 L136.61494 134.70851 L137.27941 134.45897 L137.97079 134.24741 L138.68731 134.07701 L139.40398 133.95411 L140.10162 133.87868 L140.83736 133.84544 L141.56489 133.85890 L142.27952 133.91716 L142.99051 134.02007 L143.69369 134.16718 L144.38497 134.35749 L145.07301 134.59429 L145.75275 134.87780 L146.38224 135.18786 L147.01333 135.54904 L147.62798 135.95479 L148.20491 136.39059 L148.74354 136.85284 L149.25583 137.35075 L149.74918 137.89473 L150.19304 138.45067 L150.62034 139.06152 L150.99039 139.66908 L151.33223 140.31905 L151.62430 140.97101 L151.87385 141.63548 L152.08541 142.32686 L152.25581 143.04338 L152.37871 143.76005 L152.45413 144.45769 L152.48738 145.19343 L152.47391 145.92096 L152.41566 146.63559 L152.31275 147.34658 L152.16564 148.04976 L151.97533 148.74104 L151.73852 149.42908 L151.45502 150.10882 L151.14496 150.73831 L150.78378 151.36940 L150.37803 151.98405 L149.94223 152.56098 L149.47998 153.09961 L148.98207 153.61190 L148.43808 154.10525 L147.88215 154.54911 L147.27130 154.97641 L146.66373 155.34646 L146.01377 155.68830 L145.36181 155.98038 L144.69734 156.22992 L144.00595 156.44148 L143.28944 156.61188 L142.57277 156.73478 L141.87512 156.81021 L141.13938 156.84345 L140.41185 156.82998 L139.69722 156.77173 L138.98623 156.66882 L138.28306 156.52171 L137.59178 156.33140 L136.90373 156.09459 L136.22399 155.81109 L135.59450 155.50103 L134.96342 155.13985 L134.34876 154.73410 L133.77183 154.29830 L133.23321 153.83605 L132.72091 153.33814 L132.22756 152.79416 L131.78371 152.23822 L131.35640 151.62737 L130.98636 151.01981 L130.64451 150.36984 L130.35244 149.71788 L130.10290 149.05341 L129.89134 148.36203 L129.72094 147.64551 L129.59804 146.92884 L129.52261 146.23120 L129.48936 145.49546 z"/>
<path fill="#000000" stroke="#000000" d="M164.48623 156.66882 L165.19722 156.77173 L165.91185 156.82998 L166.63938 156.84345 L167.37512 156.81021 L168.07277 156.73478 L168.78944 156.61188 L169.50595 156.44148 L170.19734 156.22992 L170.86181 155.98038 L171.51377 155.68830 L172.16373 155.34646 L172.77130 154.97641 L173.38215 154.54911 L173.93808 154.10525 L174.48207 153.61190 L174.97998 153.09961 L175.44223 152.56098 L175.87803 151.98405 L176.15129 151.57010 L177.03831 151.72693 L175.54879 160.15182 L164.22442 158.14968 z"/>
<path fill="#000000" stroke="#000000" d="M155.00283 144.76793 L155.06108 144.05330 L155.16400 143.34231 L155.31111 142.63913 L155.50142 141.94785 L155.73822 141.25980 L156.02173 140.58006 L156.33179 139.95058 L156.69297 139.31949 L157.09872 138.70484 L157.53452 138.12790 L157.99676 137.58928 L158.49468 137.07699 L159.03866 136.58364 L159.59459 136.13978 L160.20544 135.71248 L160.81301 135.34243 L161.46298 135.00059 L162.11494 134.70851 L162.77941 134.45897 L163.47079 134.24741 L164.18731 134.07701 L164.90398 133.95411 L165.60162 133.87868 L166.33736 133.84544 L167.06489 133.85890 L167.77952 133.91716 L168.49051 134.02007 L169.19369 134.16718 L169.88497 134.35749 L170.57301 134.59429 L171.25275 134.87780 L171.88224 135.18786 L172.51333 135.54904 L173.12798 135.95479 L173.70491 136.39059 L174.24354 136.85284 L174.75583 137.35075 L175.24918 137.89473 L175.69304 138.45067 L176.12034 139.06152 L176.49039 139.66908 L176.83223 140.31905 L177.12430 140.97101 L177.37385 141.63548 L177.58541 142.32686 L177.75581 143.04338 L177.87871 143.76005 L177.95413 144.45769 L177.98738 145.19343 L177.97391 145.92096 L177.91566 146.63559 L177.81275 147.34658 L177.66564 148.04976 L177.47533 148.74104 L177.23852 149.42908 L176.95502 150.10882 L176.64496 150.73831 L176.28378 151.36940 L175.87803 151.98405 L175.44223 152.56098 L174.97998 153.09961 L174.48207 153.61190 L173.93808 154.10525 L173.38215 154.54911 L172.77130 154.97641 L172.16373 155.34646 L171.51377 155.68830 L170.86181 155.98038 L170.19734 156.22992 L169.50595 156.44148 L168.78944 156.61188 L168.07277 156.73478 L167.37512 156.81021 L166.63938 156.84345 L165.91185 156.82998 L165.19722 156.77173 L164.48623 156.66882 L163.78306 156.52171 L163.09178 156.33140 L162.40373 156.09459 L161.72399 155.81109 L161.09450 155.50103 L160.46342 155.13985 L159.84876 154.73410 L159.27183 154.29830 L158.73321 153.83605 L158.22091 153.33814 L157.72756 152.79416 L157.28371 152.23822 L156.85640 151.62737 L156.48636 151.01981 L156.14451 150.36984 L155.85244 149.71788 L155.60290 149.05341 L155.39134 148.36203 L155.22094 147.64551 L155.09804 146.92884 L155.02261 146.23120 L154.98936 145.49546 z"/>
<path fill="#000000" stroke="#000000" d="M87.98623 131.16882 L88.69722 131.27173 L89.41185 131.32998 L90.13938 131.34345 L90.87512 131.31021 L91.57277 131.23478 L92.28944 131.11188 L93.00595 130.94148 L93.69734 130.72992 L94.36181 130.48038 L95.01377 130.18830 L95.66373 129.84646 L96.27130 129.47641 L96.88215 129.04911 L97.43808 128.60525 L97.98207 128.11190 L98.47998 127.59961 L98.94223 127.06098 L99.37803 126.48405 L99.65129 126.07010 L100.53831 126.22693 L99.04879 134.65182 L87.72442 132.64968 z"/>
<path fill="#000000" stroke="#000000" d="M101.47391 120.42096 L101.41566 121.13559 L101.31275 121.84658 L101.16564 122.54976 L100.97533 123.24104 L100.73852 123.92908 L100.45502 124.60882 L100.14496 125.23831 L99.78378 125.86940 L99.37803 126.48405 L98.94223 127.06098 L98.47998 127.59961 L97.98207 128.11190 L97.43808 128.60525 L96.88215 129.04911 L96.27130 129.47641 L95.66373 129.84646 L95.01377 130.18830 L94.36181 130.48038 L93.69734 130.72992 L93.00595 130.94148 L92.28944 131.11188 L91.57277 131.23478 L90.87512 131.31021 L90.13938 131.34345 L89.41185 131.32998 L88.69722 131.27173 L87.98623 131.16882 L87.28306 131.02171 L86.59178 130.83140 L85.90373 130.59459 L85.22399 130.31109 L84.59450 130.00103 L83.96342 129.63985 L83.34876 129.23410 L82.77183 128.79830 L82.23321 128.33605 L81.72091 127.83814 L81.22756 127.29416 L80.78371 126.73822 L80.35640 126.12737 L79.98636 125.51981 L79.64451 124.86984 L79.35244 124.21788 L79.10290 123.55341 L78.89134 122.86203 L78.72094 122.14551 L78.59804 121.42884 L78.52261 120.73120 L78.48936 119.99546 L78.50283 119.26793 L78.56108 118.55330 L78.66400 117.84231 L78.81111 117.13913 L79.00142 116.44785 L79.23822 115.75980 L79.52173 115.08006 L79.83179 114.45058 L80.19297 113.81949 L80.59872 113.20484 L81.03452 112.62790 L81.49676 112.08928 L81.99468 111.57699 L82.53866 111.08364 L83.09459 110.63978 L83.70544 110.21248 L84.31301 109.84243 L84.96298 109.50059 L85.61494 109.20851 L86.27941 108.95897 L86.97079 108.74741 L87.68731 108.57701 L88.40398 108.45411 L89.10162 108.37868 L89.83736 108.34544 L90.56489 108.35890 L91.27952 108.41716 L91.99051 108.52007 L92.69369 108.66718 L93.38497 108.85749 L94.07301 109.09429 L94.75275 109.37780 L95.38224 109.68786 L96.01333 110.04904 L96.62798 110.45479 L97.20491 110.89059 L97.74354 111.35284 L98.25583 111.85075 L98.74918 112.39473 L99.19304 112.95067 L99.62034 113.56152 L99.99039 114.16908 L100.33223 114.81905 L100.62430 115.47101 L100.87385 116.13548 L101.08541 116.82686 L101.25581 117.54338 L101.37871 118.26005 L101.45413 118.95769 L101.48738 119.69343 z"/>
<path fill="#000000" stroke="#000000" d="M113.48623 131.16882 L114.19722 131.27173 L114.91185 131.32998 L115.63938 131.34345 L116.37512 131.31021 L117.07277 131.23478 L117.78944 131.11188 L118.50595 130.94148 L119.19734 130.72992 L119.86181 130.48038 L120.51377 130.18830 L121.16373 129.84646 L121.77130 129.47641 L122.38215 129.04911 L122.93808 128.60525 L123.48207 128.11190 L123.97998 127.59961 L124.44223 127.06098 L124.87803 126.48405 L125.15129 126.07010 L126.03831 126.22693 L124.54879 134.65182 L113.22442 132.64968 z"/>
<path fill="#000000" stroke="#000000" d="M126.97391 120.42096 L126.91566 121.13559 L126.81275 121.84658 L126.66564 122.54976 L126.47533 123.24104 L126.23852 123.92908 L125.95502 124.60882 L125.64496 125.23831 L125.28378 125.86940 L124.87803 126.48405 L124.44223 127.06098 L123.97998 127.59961 L123.48207 128.11190 L122.93808 128.60525 L122.38215 129.04911 L121.77130 129.47641 L121.16373 129.84646 L120.51377 130.18830 L119.86181 130.48038 L119.19734 130.72992 L118.50595 130.94148 L117.78944 131.11188 L117.07277 131.23478 L116.37512 131.31021 L115.63938 131.34345 L114.91185 131.32998 L114.19722 131.27173 L113.48623 131.16882 L112.78306 131.02171 L112.09178 130.83140 L111.40373 130.59459 L110.72399 130.31109 L110.09450 130.00103 L109.46342 129.63985 L108.84876 129.23410 L108.27183 128.79830 L107.73321 128.33605 L107.22091 127.83814 L106.72756 127.29416 L106.28371 126.73822 L105.85640 126.12737 L105.48636 125.51981 L105.14451 124.86984 L104.85244 124.21788 L104.60290 123.55341 L104.39134 122.86203 L104.22094 122.14551 L104.09804 121.42884 L104.02261 120.73120 L103.98936 119.99546 L104.00283 119.26793 L104.06108 118.55330 L104.16400 117.84231 L104.31111 117.13913 L104.50142 116.44785 L104.73822 115.75980 L105.02173 115.08006 L105.33179 114.45058 L105.69297 113.81949 L106.09872 113.20484 L106.53452 112.62790 L106.99676 112.08928 L107.49468 111.57699 L108.03866 111.08364 L108.59459 110.63978 L109.20544 110.21248 L109.81301 109.84243 L110.46298 109.50059 L111.11494 109.20851 L111.77941 108.95897 L112.47079 108.74741 L113.18731 108.57701 L113.90398 108.45411 L114.60162 108.37868 L115.33736 108.34544 L116.06489 108.35890 L116.77952 108.41716 L117.49051 108.52007 L118.19369 108.66718 L118.88497 108.85749 L119.57301 109.09429 L120.25275 109.37780 L120.88224 109.68786 L121.51333 110.04904 L122.12798 110.45479 L122.70491 110.89059 L123.24354 111.35284 L123.75583 111.85075 L124.24918 112.39473 L124.69304 112.95067 L125.12034 113.56152 L125.49039 114.16908 L125.83223 114.81905 L126.12430 115.47101 L126.37385 116.13548 L126.58541 116.82686 L126.75581 117.54338 L126.87871 118.26005 L126.95413 118.95769 L126.98738 119.69343 z"/>
<path fill="#000000" stroke="#000000" d="M138.98623 131.16882 L139.69722 131.27173 L140.41185 131.32998 L141.13938 131.34345 L141.87512 131.31021 L142.57277 131.23478 L143.28944 131.11188 L144.00595 130.94148 L144.69734 130.72992 L145.36181 130.48038 L146.01377 130.18830 L146.66373 129.84646 L147.27130 129.47641 L147.88215 129.04911 L148.43808 128.60525 L148.98207 128.11190 L149.47998 127.59961 L149.94223 127.06098 L150.37803 126.48405 L150.65129 126.07010 L151.53831 126.22693 L150.04879 134.65182 L138.72442 132.64968 z"/>
<path fill="#000000" stroke="#000000" d="M152.47391 120.42096 L152.41566 121.13559 L152.31275 121.84658 L152.16564 122.54976 L151.97533 123.24104 L151.73852 123.92908 L151.45502 124.60882 L151.14496 125.23831 L150.78378 125.86940 L150.37803 126.48405 L149.94223 127.06098 L149.47998 127.59961 L148.98207 128.11190 L148.43808 128.60525 L147.88215 129.04911 L147.27130 129.47641 L146.66373 129.84646 L146.01377 130.18830 L145.36181 130.48038 L144.69734 130.72992 L144.00595 130.94148 L143.28944 131.11188 L142.57277 131.23478 L141.87512 131.31021 L141.13938 131.34345 L140.41185 131.32998 L139.69722 131.27173 L138.98623 131.16882 L138.28306 131.02171 L137.59178 130.83140 L136.90373 130.59459 L136.22399 130.31109 L135.59450 130.00103 L134.96342 129.63985 L134.34876 129.23410 L133.77183 128.79830 L133.23321 128.33605 L132.72091 127.83814 L132.22756 127.29416 L131.78371 126.73822 L131.35640 126.12737 L130.98636 125.51981 L130.64451 124.86984 L130.35244 124.21788 L130.10290 123.55341 L129.89134 122.86203 L129.72094 122.14551 L129.59804 121.42884 L129.52261 120.73120 L129.48936 119.99546 L129.50283 119.26793 L129.56108 118.55330 L129.66400 117.84231 L129.81111 117.13913 L130.00142 116.44785 L130.23822 115.75980 L130.52173 115.08006 L130.83179 114.45058 L131.19297 113.81949 L131.59872 113.20484 L132.03452 112.62790 L132.49676 112.08928 L132.99468 111.57699 L133.53866 111.08364 L134.09459 110.63978 L134.70544 110.21248 L135.31301 109.84243 L135.96298 109.50059 L136.61494 109.20851 L137.27941 108.95897 L137.97079 108.74741 L138.68731 108.57701 L139.40398 108.45411 L140.10162 108.37868 L140.83736 108.34544 L141.56489 108.35890 L142.27952 108.41716 L142.99051 108.52007 L143.69369 108.66718 L144.38497 108.85749 L145.07301 109.09429 L145.75275 109.37780 L146.38224 109.68786 L147.01333 110.04904 L147.62798 110.45479 L148.20491 110.89059 L148.74354 111.35284 L149.25583 111.85075 L149.74918 112.39473 L150.19304 112.95067 L150.62034 113.56152 L150.99039 114.16908 L151.33223 114.81905 L151.62430 115.47101 L151.87385 116.13548 L152.08541 116.82686 L152.25581 117.54338 L152.37871 118.26005 L152.45413 118.95769 L152.48738 119.69343 z"/>
<path fill="#000000" stroke="#000000" d="M164.48623 131.16882 L165.19722 131.27173 L165.91185 131.32998 L166.63938 131.34345 L167.37512 131.31021 L168.07277 131.23478 L168.78944 131.11188 L169.50595 130.94148 L170.19734 130.72992 L170.86181 130.48038 L171.51377 130.18830 L172.16373 129.84646 L172.77130 129.47641 L173.38215 129.04911 L173.93808 128.60525 L174.48207 128.11190 L174.97998 127.59961 L175.44223 127.06098 L175.87803 126.48405 L176.15129 126.07010 L177.03831 126.22693 L175.54879 134.65182 L164.22442 132.64968 z"/>
<path fill="#000000" stroke="#000000" d="M177.97391 120.42096 L177.91566 121.13559 L177.81275 121.84658 L177.66564 122.54976 L177.47533 123.24104 L177.23852 123.92908 L176.95502 124.60882 L176.64496 125.23831 L176.28378 125.86940 L175.87803 126.48405 L175.44223 127.06098 L174.97998 127.59961 L174.48207 128.11190 L173.93808 128.60525 L173.38215 129.04911 L172.77130 129.47641 L172.16373 129.84646 L171.51377 130.18830 L170.86181 130.48038 L170.19734 130.72992 L169.50595 130.94148 L168.78944 131.11188 L168.07277 131.23478 L167.37512 131.31021 L166.63938 131.34345 L165.91185 131.32998 L165.19722 131.27173 L164.48623 131.16882 L163.78306 131.02171 L163.09178 130.83140 L162.40373 130.59459 L161.72399 130.31109 L161.09450 130.00103 L160.46342 129.63985 L159.84876 129.23410 L159.27183 128.79830 L158.73321 128.33605 L158.22091 127.83814 L157.72756 127.29416 L157.28371 126.73822 L156.85640 126.12737 L156.48636 125.51981 L156.14451 124.86984 L155.85244 124.21788 L155.60290 123.55341 L155.39134 122.86203 L155.22094 122.14551 L155.09804 121.42884 L155.02261 120.73120 L154.98936 119.99546 L155.00283 119.26793 L155.06108 118.55330 L155.16400 117.84231 L155.31111 117.13913 L155.50142 116.44785 L155.73822 115.75980 L156.02173 115.08006 L156.33179 114.45058 L156.69297 113.81949 L157.09872 113.20484 L157.53452 112.62790 L157.99676 112.08928 L158.49468 111.57699 L159.03866 111.08364 L159.59459 110.63978 L160.20544 110.21248 L160.81301 109.84243 L161.46298 109.50059 L162.11494 109.20851 L162.77941 108.95897 L163.47079 108.74741 L164.18731 108.57701 L164.90398 108.45411 L165.60162 108.37868 L166.33736 108.34544 L167.06489 108.35890 L167.77952 108.41716 L168.49051 108.52007 L169.19369 108.66718 L169.88497 108.85749 L170.57301 109.09429 L171.25275 109.37780 L171.88224 109.68786 L172.51333 110.04904 L173.12798 110.45479 L173.70491 110.89059 L174.24354 111.35284 L174.75583 111.85075 L175.24918 112.39473 L175.69304 112.95067 L176.12034 113.56152 L176.49039 114.16908 L176.83223 114.81905 L177.12430 115.47101 L177.37385 116.13548 L177.58541 116.82686 L177.75581 117.54338 L177.87871 118.26005 L177.95413 118.95769 L177.98738 119.69343 z"/>
<path fill="#000000" stroke="#000000" d="M87.98623 182.16882 L88.69722 182.27173 L89.41185 182.32998 L90.13938 182.34345 L90.87512 182.31021 L91.57277 182.23478 L92.28944 182.11188 L93.00595 181.94148 L93.69734 181.72992 L94.36181 181.48038 L95.01377 181.18830 L95.66373 180.84646 L96.27130 180.47641 L96.88215 180.04911 L97.43808 179.60525 L97.98207 179.11190 L98.47998 178.59961 L98.94223 178.06098 L99.37803 177.48405 L99.65129 177.07010 L100.53831 177.22693 L99.04879 185.65182 L87.72442 183.64968 z"/>
<path fill="#000000" stroke="#000000" d="M101.47391 171.42096 L101.41566 172.13559 L101.31275 172.84658 L101.16564 173.54976 L100.97533 174.24104 L100.73852 174.92908 L100.45502 175.60882 L100.14496 176.23831 L99.78378 176.86940 L99.37803 177.48405 L98.94223 178.06098 L98.47998 178.59961 L97.98207 179.11190 L97.43808 179.60525 L96.88215 180.04911 L96.27130 180.47641 L95.66373 180.84646 L95.01377 181.18830 L94.36181 181.48038 L93.69734 181.72992 L93.00595 181.94148 L92.28944 182.11188 L91.57277 182.23478 L90.87512 182.31021 L90.13938 182.34345 L89.41185 182.32998 L88.69722 182.27173 L87.98623 182.16882 L87.28306 182.02171 L86.59178 181.83140 L85.90373 181.59459 L85.22399 181.31109 L84.59450 181.00103 L83.96342 180.63985 L83.34876 180.23410 L82.77183 179.79830 L82.23321 179.33605 L81.72091 178.83814 L81.22756 178.29416 L80.78371 177.73822 L80.35640 177.12737 L79.98636 176.51981 L79.64451 175.86984 L79.35244 175.21788 L79.10290 174.55341 L78.89134 173.86203 L78.72094 173.14551 L78.59804 172.42884 L78.52261 171.73120 L78.48936 170.99546 L78.50283 170.26793 L78.56108 169.55330 L78.66400 168.84231 L78.81111 168.13913 L79.00142 167.44785 L79.23822 166.75980 L79.52173 166.08006 L79.83179 165.45058 L80.19297 164.81949 L80.59872 164.20484 L81.03452 163.62790 L81.49676 163.08928 L81.99468 162.57699 L82.53866 162.08364 L83.09459 161.63978 L83.70544 161.21248 L84.31301 160.84243 L84.96298 160.50059 L85.61494 160.20851 L86.27941 159.95897 L86.97079 159.74741 L87.68731 159.57701 L88.40398 159.45411 L89.10162 159.37868 L89.83736 159.34544 L90.56489 159.35890 L91.27952 159.41716 L91.99051 159.52007 L92.69369 159.66718 L93.38497 159.85749 L94.07301 160.09429 L94.75275 160.37780 L95.38224 160.68786 L96.01333 161.04904 L96.62798 161.45479 L97.20491 161.89059 L97.74354 162.35284 L98.25583 162.85075 L98.74918 163.39473 L99.19304 163.95067 L99.62034 164.56152 L99.99039 165.16908 L100.33223 165.81905 L100.62430 166.47101 L100.87385 167.13548 L101.08541 167.82686 L101.25581 168.54338 L101.37871 169.26005 L101.45413 169.95769 L101.48738 170.69343 z"/>
<path fill="#000000" stroke="#000000" d="M113.48623 182.16882 L114.19722 182.27173 L114.91185 182.32998 L115.63938 182.34345 L116.37512 182.31021 L117.07277 182.23478 L117.78944 182.11188 L118.50595 181.94148 L119.19734 181.72992 L119.86181 181.48038 L120.51377 181.18830 L121.16373 180.84646 L121.77130 180.47641 L122.38215 180.04911 L122.93808 179.60525 L123.48207 179.11190 L123.97998 178.59961 L124.44223 178.06098 L124.87803 177.48405 L125.15129 177.07010 L126.03831 177.22693 L124.54879 185.65182 L113.22442 183.64968 z"/>
<path fill="#000000" stroke="#000000" d="M126.97391 171.42096 L126.91566 172.13559 L126.81275 172.84658 L126.66564 173.54976 L126.47533 174.24104 L126.23852 174.92908 L125.95502 175.60882 L125.64496 176.23831 L125.28378 176.86940 L124.87803 177.48405 L124.44223 178.06098 L123.97998 178.59961 L123.48207 179.11190 L122.93808 179.60525 L122.38215 180.04911 L121.77130 180.47641 L121.16373 180.84646 L120.51377 181.18830 L119.86181 181.48038 L119.19734 181.72992 L118.50595 181.94148 L117.78944 182.11188 L117.07277 182.23478 L116.37512 182.31021 L115.63938 182.34345 L114.91185 182.32998 L114.19722 182.27173 L113.48623 182.16882 L112.78306 182.02171 L112.09178 181.83140 L111.40373 181.59459 L110.72399 181.31109 L110.09450 181.00103 L109.46342 180.63985 L108.84876 180.23410 L108.27183 179.79830 L107.73321 179.33605 L107.22091 178.83814 L106.72756 178.29416 L106.28371 177.73822 L105.85640 177.12737 L105.48636 176.51981 L105.14451 175.86984 L104.85244 175.21788 L104.60290 174.55341 L104.39134 173.86203 L104.22094 173.14551 L104.09804 172.42884 L104.02261 171.73120 L103.98936 170.99546 L104.00283 170.26793 L104.06108 169.55330 L104.16400 168.84231 L104.31111 168.13913 L104.50142 167.44785 L104.73822 166.75980 L105.02173 166.08006 L105.33179 165.45058 L105.69297 164.81949 L106.09872 164.20484 L106.53452 163.62790 L106.99676 163.08928 L107.49468 162.57699 L108.03866 162.08364 L108.59459 161.63978 L109.20544 161.21248 L109.81301 160.84243 L110.46298 160.50059 L111.11494 160.20851 L111.77941 159.95897 L112.47079 159.74741 L113.18731 159.57701 L113.90398 159.45411 L114.60162 159.37868 L115.33736 159.34544 L116.06489 159.35890 L116.77952 159.41716 L117.49051 159.52007 L118.19369 159.66718 L118.88497 159.85749 L119.57301 160.09429 L120.25275 160.37780 L120.88224 160.68786 L121.51333 161.04904 L122.12798 161.45479 L122.70491 161.89059 L123.24354 162.35284 L123.75583 162.85075 L124.24918 163.39473 L124.69304 163.95067 L125.12034 164.56152 L125.49039 165.16908 L125.83223 165.81905 L126.12430 166.47101 L126.37385 167.13548 L126.58541 167.82686 L126.75581 168.54338 L126.87871 169.26005 L126.95413 169.95769 L126.98738 170.69343 z"/>
<path fill="#000000" stroke="#000000" d="M138.98623 182.16882 L139.69722 182.27173 L140.41185 182.32998 L141.13938 182.34345 L141.87512 182.31021 L142.57277 182.23478 L143.28944 182.11188 L144.00595 181.94148 L144.69734 181.72992 L145.36181 181.48038 L146.01377 181.18830 L146.66373 180.84646 L147.27130 180.47641 L147.88215 180.04911 L148.43808 179.60525 L148.98207 179.11190 L149.47998 178.59961 L149.94223 178.06098 L150.37803 177.48405 L150.65129 177.07010 L151.53831 177.22693 L150.04879 185.65182 L138.72442 183.64968 z"/>
<path fill="#000000" stroke="#000000" d="M152.47391 171.42096 L152.41566 172.13559 L152.31275 172.84658 L152.16564 173.54976 L151.97533 174.24104 L151.73852 174.92908 L151.45502 175.60882 L151.14496 176.23831 L150.78378 176.86940 L150.37803 177.48405 L149.94223 178.06098 L149.47998 178.59961 L148.98207 179.11190 L148.43808 179.60525 L147.88215 180.04911 L147.27130 180.47641 L146.66373 180.84646 L146.01377 181.18830 L145.36181 181.48038 L144.69734 181.72992 L144.00595 181.94148 L143.28944 182.11188 L142.57277 182.23478 L141.87512 182.31021 L141.13938 182.34345 L140.41185 182.32998 L139.69722 182.27173 L138.98623 182.16882 L138.28306 182.02171 L137.59178 181.83140 L136.90373 181.59459 L136.22399 181.31109 L135.59450 181.00103 L134.96342 180.63985 L134.34876 180.23410 L133.77183 179.79830 L133.23321 179.33605 L132.72091 178.83814 L132.22756 178.29416 L131.78371 177.73822 L131.35640 177.12737 L130.98636 176.51981 L130.64451 175.86984 L130.35244 175.21788 L130.10290 174.55341 L129.89134 173.86203 L129.72094 173.14551 L129.59804 172.42884 L129.52261 171.73120 L129.48936 170.99546 L129.50283 170.26793 L129.56108 169.55330 L129.66400 168.84231 L129.81111 168.13913 L130.00142 167.44785 L130.23822 166.75980 L130.52173 166.08006 L130.83179 165.45058 L131.19297 164.81949 L131.59872 164.20484 L132.03452 163.62790 L132.49676 163.08928 L132.99468 162.57699 L133.53866 162.08364 L134.09459 161.63978 L134.70544 161.21248 L135.31301 160.84243 L135.96298 160.50059 L136.61494 160.20851 L137.27941 159.95897 L137.97079 159.74741 L138.68731 159.57701 L139.40398 159.45411 L140.10162 159.37868 L140.83736 159.34544 L141.56489 159.35890 L142.27952 159.41716 L142.99051 159.52007 L143.69369 159.66718 L144.38497 159.85749 L145.07301 160.09429 L145.75275 160.37780 L146.38224 160.68786 L147.01333 161.04904 L147.62798 161.45479 L148.20491 161.89059 L148.74354 162.35284 L149.25583 162.85075 L149.74918 163.39473 L150.19304 163.95067 L150.62034 164.56152 L150.99039 165.16908 L151.33223 165.81905 L151.62430 166.47101 L151.87385 167.13548 L152.08541 167.82686 L152.25581 168.54338 L152.37871 169.26005 L152.45413 169.95769 L152.48738 170.69343 z"/>
<path fill="#000000" stroke="#000000" d="M164.48623 182.16882 L165.19722 182.27173 L165.91185 182.32998 L166.63938 182.34345 L167.37512 182.31021 L168.07277 182.23478 L168.78944 182.11188 L169.50595 181.94148 L170.19734 181.72992 L170.86181 181.48038 L171.51377 181.18830 L172.16373 180.84646 L172.77130 180.47641 L173.38215 180.04911 L173.93808 179.60525 L174.48207 179.11190 L174.97998 178.59961 L175.44223 178.06098 L175.87803 177.48405 L176.15129 177.07010 L177.03831 177.22693 L175.54879 185.65182 L164.22442 183.64968 z"/>
<path fill="#000000" stroke="#000000" d="M177.97391 171.42096 L177.91566 172.13559 L177.81275 172.84658 L177.66564 173.54976 L177.47533 174.24104 L177.23852 174.92908 L176.95502 175.60882 L176.64496 176.23831 L176.28378 176.86940 L175.87803 177.48405 L175.44223 178.06098 L174.97998 178.59961 L174.48207 179.11190 L173.93808 179.60525 L173.38215 180.04911 L172.77130 180.47641 L172.16373 180.84646 L171.51377 181.18830 L170.86181 181.48038 L170.19734 181.72992 L169.50595 181.94148 L168.78944 182.11188 L168.07277 182.23478 L167.37512 182.31021 L166.63938 182.34345 L165.91185 182.32998 L165.19722 182.27173 L164.48623 182.16882 L163.78306 182.02171 L163.09178 181.83140 L162.40373 181.59459 L161.72399 181.31109 L161.09450 181.00103 L160.46342 180.63985 L159.84876 180.23410 L159.27183 179.79830 L158.73321 179.33605 L158.22091 178.83814 L157.72756 178.29416 L157.28371 177.73822 L156.85640 177.12737 L156.48636 176.51981 L156.14451 175.86984 L155.85244 175.21788 L155.60290 174.55341 L155.39134 173.86203 L155.22094 173.14551 L155.09804 172.42884 L155.02261 171.73120 L154.98936 170.99546 L155.00283 170.26793 L155.06108 169.55330 L155.16400 168.84231 L155.31111 168.13913 L155.50142 167.44785 L155.73822 166.75980 L156.02173 166.08006 L156.33179 165.45058 L156.69297 164.81949 L157.09872 164.20484 L157.53452 163.62790 L157.99676 163.08928 L158.49468 162.57699 L159.03866 162.08364 L159.59459 161.63978 L160.20544 161.21248 L160.81301 160.84243 L161.46298 160.50059 L162.11494 160.20851 L162.77941 159.95897 L163.47079 159.74741 L164.18731 159.57701 L164.90398 159.45411 L165.60162 159.37868 L166.33736 159.34544 L167.06489 159.35890 L167.77952 159.41716 L168.49051 159.52007 L169.19369 159.66718 L169.88497 159.85749 L170.57301 160.09429 L171.25275 160.37780 L171.88224 160.68786 L172.51333 161.04904 L173.12798 161.45479 L173.70491 161.89059 L174.24354 162.35284 L174.75583 162.85075 L175.24918 163.39473 L175.69304 163.95067 L176.12034 164.56152 L176.49039 165.16908 L176.83223 165.81905 L177.12430 166.47101 L177.37385 167.13548 L177.58541 167.82686 L177.75581 168.54338 L177.87871 169.26005 L177.95413 169.95769 L177.98738 170.69343 z"/>
<path fill="#000000" stroke="#000000" d="M87.98623 207.66882 L88.69722 207.77173 L89.41185 207.82998 L90.13938 207.84345 L90.87512 207.81021 L91.57277 207.73478 L92.28944 207.61188 L93.00595 207.44148 L93.69734 207.22992 L94.36181 206.98038 L95.01377 206.68830 L95.66373 206.34646 L96.27130 205.97641 L96.88215 205.54911 L97.43808 205.10525 L97.98207 204.61190 L98.47998 204.09961 L98.94223 203.56098 L99.37803 202.98405 L99.65129 202.57010 L100.53831 202.72693 L99.04879 211.15182 L87.72442 209.14968 z"/>
<path fill="#000000" stroke="#000000" d="M101.47391 196.92096 L101.41566 197.63559 L101.31275 198.34658 L101.16564 199.04976 L100.97533 199.74104 L100.73852 200.42908 L100.45502 201.10882 L100.14496 201.73831 L99.78378 202.36940 L99.37803 202.98405 L98.94223 203.56098 L98.47998 204.09961 L97.98207 204.61190 L97.43808 205.10525 L96.88215 205.54911 L96.27130 205.97641 L95.66373 206.34646 L95.01377 206.68830 L94.36181 206.98038 L93.69734 207.22992 L93.00595 207.44148 L92.28944 207.61188 L91.57277 207.73478 L90.87512 207.81021 L90.13938 207.84345 L89.41185 207.82998 L88.69722 207.77173 L87.98623 207.66882 L87.28306 207.52171 L86.59178 207.33140 L85.90373 207.09459 L85.22399 206.81109 L84.59450 206.50103 L83.96342 206.13985 L83.34876 205.73410 L82.77183 205.29830 L82.23321 204.83605 L81.72091 204.33814 L81.22756 203.79416 L80.78371 203.23822 L80.35640 202.62737 L79.98636 202.01981 L79.64451 201.36984 L79.35244 200.71788 L79.10290 200.05341 L78.89134 199.36203 L78.72094 198.64551 L78.59804 197.92884 L78.52261 197.23120 L78.48936 196.49546 L78.50283 195.76793 L78.56108 195.05330 L78.66400 194.34231 L78.81111 193.63913 L79.00142 192.94785 L79.23822 192.25980 L79.52173 191.58006 L79.83179 190.95058 L80.19297 190.31949 L80.59872 189.70484 L81.03452 189.12790 L81.49676 188.58928 L81.99468 188.07699 L82.53866 187.58364 L83.09459 187.13978 L83.70544 186.71248 L84.31301 186.34243 L84.96298 186.00059 L85.61494 185.70851 L86.27941 185.45897 L86.97079 185.24741 L87.68731 185.07701 L88.40398 184.95411 L89.10162 184.87868 L89.83736 184.84544 L90.56489 184.85890 L91.27952 184.91716 L91.99051 185.02007 L92.69369 185.16718 L93.38497 185.35749 L94.07301 185.59429 L94.75275 185.87780 L95.38224 186.18786 L96.01333 186.54904 L96.62798 186.95479 L97.20491 187.39059 L97.74354 187.85284 L98.25583 188.35075 L98.74918 188.89473 L99.19304 189.45067 L99.62034 190.06152 L99.99039 190.66908 L100.33223 191.31905 L100.62430 191.97101 L100.87385 192.63548 L101.08541 193.32686 L101.25581 194.04338 L101.37871 194.76005 L101.45413 195.45769 L101.48738 196.19343 z"/>
<path fill="#000000" stroke="#000000" d="M113.48623 207.66882 L114.19722 207.77173 L114.91185 207.82998 L115.63938 207.84345 L116.37512 207.81021 L117.07277 207.73478 L117.78944 207.61188 L118.50595 207.44148 L119.19734 207.22992 L119.86181 206.98038 L120.51377 206.68830 L121.16373 206.34646 L121.77130 205.97641 L122.38215 205.54911 L122.93808 205.10525 L123.48207 204.61190 L123.97998 204.09961 L124.44223 203.56098 L124.87803 202.98405 L125.15129 202.57010 L126.03831 202.72693 L124.54879 211.15182 L113.22442 209.14968 z"/>
<path fill="#000000" stroke="#000000" d="M126.97391 196.92096 L126.91566 197.63559 L126.81275 198.34658 L126.66564 199.04976 L126.47533 199.74104 L126.23852 200.42908 L125.95502 201.10882 L125.64496 201.73831 L125.28378 202.36940 L124.87803 202.98405 L124.44223 203.56098 L123.97998 204.09961 L123.48207 204.61190 L122.93808 205.10525 L122.38215 205.54911 L121.77130 205.97641 L121.16373 206.34646 L120.51377 206.68830 L119.86181 206.98038 L119.19734 207.22992 L118.50595 207.44148 L117.78944 207.61188 L117.07277 207.73478 L116.37512 207.81021 L115.63938 207.84345 L114.91185 207.82998 L114.19722 207.77173 L113.48623 207.66882 L112.78306 207.52171 L112.09178 207.33140 L111.40373 207.09459 L110.72399 206.81109 L110.09450 206.50103 L109.46342 206.13985 L108.84876 205.73410 L108.27183 205.29830 L107.73321 204.83605 L107.22091 204.33814 L106.72756 203.79416 L106.28371 203.23822 L105.85640 202.62737 L105.48636 202.01981 L105.14451 201.36984 L104.85244 200.71788 L104.60290 200.05341 L104.39134 199.36203 L104.22094 198.64551 L104.09804 197.92884 L104.02261 197.23120 L103.98936 196.49546 L104.00283 195.76793 L104.06108 195.05330 L104.16400 194.34231 L104.31111 193.63913 L104.50142 192.94785 L104.73822 192.25980 L105.02173 191.58006 L105.33179 190.95058 L105.69297 190.31949 L106.09872 189.70484 L106.53452 189.12790 L106.99676 188.58928 L107.49468 188.07699 L108.03866 187.58364 L108.59459 187.13978 L109.20544 186.71248 L109.81301 186.34243 L110.46298 186.00059 L111.11494 185.70851 L111.77941 185.45897 L112.47079 185.24741 L113.18731 185.07701 L113.90398 184.95411 L114.60162 184.87868 L115.33736 184.84544 L116.06489 184.85890 L116.77952 184.91716 L117.49051 185.02007 L118.19369 185.16718 L118.88497 185.35749 L119.57301 185.59429 L120.25275 185.87780 L120.88224 186.18786 L121.51333 186.54904 L122.12798 186.95479 L122.70491 187.39059 L123.24354 187.85284 L123.75583 188.35075 L124.24918 188.89473 L124.69304 189.45067 L125.12034 190.06152 L125.49039 190.66908 L125.83223 191.31905 L126.12430 191.97101 L126.37385 192.63548 L126.58541 193.32686 L126.75581 194.04338 L126.87871 194.76005 L126.95413 195.45769 L126.98738 196.19343 z"/>
<path fill="#000000" stroke="#000000" d="M138.98623 207.66882 L139.69722 207.77173 L140.41185 207.82998 L141.13938 207.84345 L141.87512 207.81021 L142.57277 207.73478 L143.28944 207.61188 L144.00595 207.44148 L144.69734 207.22992 L145.36181 206.98038 L146.01377 206.68830 L146.66373 206.34646 L147.27130 205.97641 L147.88215 205.54911 L148.43808 205.10525 L148.98207 204.61190 L149.47998 204.09961 L149.94223 203.56098 L150.37803 202.98405 L150.65129 202.57010 L151.53831 202.72693 L150.04879 211.15182 L138.72442 209.14968 z"/>
<path fill="#000000" stroke="#000000" d="M152.47391 196.92096 L152.41566 197.63559 L152.31275 198.34658 L152.16564 199.04976 L151.97533 199.74104 L151.73852 200.42908 L151.45502 201.10882 L151.14496 201.73831 L150.78378 202.36940 L150.37803 202.98405 L149.94223 203.56098 L149.47998 204.09961 L148.98207 204.61190 L148.43808 205.10525 L147.88215 205.54911 L147.27130 205.97641 L146.66373 206.34646 L146.01377 206.68830 L145.36181 206.98038 L144.69734 207.22992 L144.00595 207.44148 L143.28944 207.61188 L142.57277 207.73478 L141.87512 207.81021 L141.13938 207.84345 L140.41185 207.82998 L139.69722 207.77173 L138.98623 207.66882 L138.28306 207.52171 L137.59178 207.33140 L136.90373 207.09459 L136.22399 206.81109 L135.59450 206.50103 L134.96342 206.13985 L134.34876 205.73410 L133.77183 205.29830 L133.23321 204.83605 L132.72091 204.33814 L132.22756 203.79416 L131.78371 203.23822 L131.35640 202.62737 L130.98636 202.01981 L130.64451 201.36984 L130.35244 200.71788 L130.10290 200.05341 L129.89134 199.36203 L129.72094 198.64551 L129.59804 197.92884 L129.52261 197.23120 L129.48936 196.49546 L129.50283 195.76793 L129.56108 195.05330 L129.66400 194.34231 L129.81111 193.63913 L130.00142 192.94785 L130.23822 192.25980 L130.52173 191.58006 L130.83179 190.95058 L131.19297 190.31949 L131.59872 189.70484 L132.03452 189.12790 L132.49676 188.58928 L132.99468 188.07699 L133.53866 187.58364 L134.09459 187.13978 L134.70544 186.71248 L135.31301 186.34243 L135.96298 186.00059 L136.61494 185.70851 L137.27941 185.45897 L137.97079 185.24741 L138.68731 185.07701 L139.40398 184.95411 L140.10162 184.87868 L140.83736 184.84544 L141.56489 184.85890 L142.27952 184.91716 L142.99051 185.02007 L143.69369 185.16718 L144.38497 185.35749 L145.07301 185.59429 L145.75275 185.87780 L146.38224 186.18786 L147.01333 186.54904 L147.62798 186.95479 L148.20491 187.39059 L148.74354 187.85284 L149.25583 188.35075 L149.74918 188.89473 L150.19304 189.45067 L150.62034 190.06152 L150.99039 190.66908 L151.33223 191.31905 L151.62430 191.97101 L151.87385 192.63548 L152.08541 193.32686 L152.25581 194.04338 L152.37871 194.76005 L152.45413 195.45769 L152.48738 196.19343 z"/>
<path fill="#000000" stroke="#000000" d="M164.48623 207.66882 L165.19722 207.77173 L165.91185 207.82998 L166.63938 207.84345 L167.37512 207.81021 L168.07277 207.73478 L168.78944 207.61188 L169.50595 207.44148 L170.19734 207.22992 L170.86181 206.98038 L171.51377 206.68830 L172.16373 206.34646 L172.77130 205.97641 L173.38215 205.54911 L173.93808 205.10525 L174.48207 204.61190 L174.97998 204.09961 L175.44223 203.56098 L175.87803 202.98405 L176.15129 202.57010 L177.03831 202.72693 L175.54879 211.15182 L164.22442 209.14968 z"/>
<path fill="#000000" stroke="#000000" d="M177.97391 196.92096 L177.91566 197.63559 L177.81275 198.34658 L177.66564 199.04976 L177.47533 199.74104 L177.23852 200.42908 L176.95502 201.10882 L176.64496 201.73831 L176.28378 202.36940 L175.87803 202.98405 L175.44223 203.56098 L174.97998 204.09961 L174.48207 204.61190 L173.93808 205.10525 L173.38215 205.54911 L172.77130 205.97641 L172.16373 206.34646 L171.51377 206.68830 L170.86181 206.98038 L170.19734 207.22992 L169.50595 207.44148 L168.78944 207.61188 L168.07277 207.73478 L167.37512 207.81021 L166.63938 207.84345 L165.91185 207.82998 L165.19722 207.77173 L164.48623 207.66882 L163.78306 207.52171 L163.09178 207.33140 L162.40373 207.09459 L161.72399 206.81109 L161.09450 206.50103 L160.46342 206.13985 L159.84876 205.73410 L159.27183 205.29830 L158.73321 204.83605 L158.22091 204.33814 L157.72756 203.79416 L157.28371 203.23822 L156.85640 202.62737 L156.48636 202.01981 L156.14451 201.36984 L155.85244 200.71788 L155.60290 200.05341 L155.39134 199.36203 L155.22094 198.64551 L155.09804 197.92884 L155.02261 197.23120 L154.98936 196.49546 L155.00283 195.76793 L155.06108 195.05330 L155.16400 194.34231 L155.31111 193.63913 L155.50142 192.94785 L155.73822 192.25980 L156.02173 191.58006 L156.33179 190.95058 L156.69297 190.31949 L157.09872 189.70484 L157.53452 189.12790 L157.99676 188.58928 L158.49468 188.07699 L159.03866 187.58364 L159.59459 187.13978 L160.20544 186.71248 L160.81301 186.34243 L161.46298 186.00059 L162.11494 185.70851 L162.77941 185.45897 L163.47079 185.24741 L164.18731 185.07701 L164.90398 184.95411 L165.60162 184.87868 L166.33736 184.84544 L167.06489 184.85890 L167.77952 184.91716 L168.49051 185.02007 L169.19369 185.16718 L169.88497 185.35749 L170.57301 185.59429 L171.25275 185.87780 L171.88224 186.18786 L172.51333 186.54904 L173.12798 186.95479 L173.70491 187.39059 L174.24354 187.85284 L174.75583 188.35075 L175.24918 188.89473 L175.69304 189.45067 L176.12034 190.06152 L176.49039 190.66908 L176.83223 191.31905 L177.12430 191.97101 L177.37385 192.63548 L177.58541 193.32686 L177.75581 194.04338 L177.87871 194.76005 L177.95413 195.45769 L177.98738 196.19343 z"/>
<path stroke="#000000" d="M -0.00099 28.53675 L 179.99901 28.53675 L 179.99901 211.03675 L -0.00099 211.03675 z"/>
<path stroke="#000000" d="M 4.89187 236.42754 L 6.52282 237.24302 L 8.96925 239.68944 L 8.96925 222.56444"/>
<path stroke="#000000" d="M 30.17163 239.68944 L 22.01687 222.56444 M 18.75496 239.68944 z"/>
<path stroke="#000000" d="M 45.66568 233.98111 L 44.85020 231.53468 L 43.21925 229.90373 L 40.77282 229.08825 L 39.95734 229.08825 L 37.51092 229.90373 L 35.87996 231.53468 L 35.06449 233.98111 L 35.06449 234.79659 L 35.87996 237.24302 L 37.51092 238.87397 L 39.95734 239.68944 L 40.77282 239.68944 L 43.21925 238.87397 L 44.85020 237.24302 L 45.66568 233.98111 L 45.66568 229.90373 L 44.85020 225.82635 L 43.21925 223.37992 L 40.77282 222.56444 L 39.14187 222.56444 L 36.69544 223.37992 L 35.87996 225.01087"/>
<path stroke="#000000" d="M 53.00496 224.19540 L 52.18949 223.37992 L 53.00496 222.56444 L 53.82044 223.37992 z"/>
<path stroke="#000000" d="M 70.12996 233.98111 L 69.31449 231.53468 L 67.68353 229.90373 L 65.23711 229.08825 L 64.42163 229.08825 L 61.97520 229.90373 L 60.34425 231.53468 L 59.52877 233.98111 L 59.52877 234.79659 L 60.34425 237.24302 L 61.97520 238.87397 L 64.42163 239.68944 L 65.23711 239.68944 L 67.68353 238.87397 L 69.31449 237.24302 L 70.12996 233.98111 L 70.12996 229.90373 L 69.31449 225.82635 L 67.68353 223.37992 L 65.23711 222.56444 L 63.60615 222.56444 L 61.15972 223.37992 L 60.34425 225.01087"/>
<path stroke="#000000" d="M 79.91568 239.68944 L 77.46925 238.87397 L 76.65377 237.24302 L 76.65377 235.61206 L 77.46925 233.98111 L 79.10020 233.16563 L 82.36211 232.35016 L 84.80853 231.53468 L 86.43949 229.90373 L 87.25496 228.27278 L 87.25496 225.82635 L 86.43949 224.19540 L 85.62401 223.37992 L 83.17758 222.56444 L 79.91568 222.56444 L 77.46925 223.37992 L 76.65377 224.19540 L 75.83830 225.82635 L 75.83830 228.27278 L 76.65377 229.90373 L 78.28472 231.53468 L 80.73115 232.35016 L 83.99306 233.16563 L 85.62401 233.98111 L 86.43949 235.61206 L 86.43949 237.24302 L 85.62401 238.87397 L 83.17758 239.68944 z"/>
<path stroke="#000000" d=""/>
<path stroke="#000000" d="M 105.19544 233.98111 L 114.16568 222.56444 M 114.16568 233.98111 L 105.19544 222.56444"/>
<path stroke="#000000" d=""/>
<path stroke="#000000" d="M 134.55258 236.42754 L 136.18353 237.24302 L 138.62996 239.68944 L 138.62996 222.56444"/>
<path stroke="#000000" d="M 152.49306 239.68944 L 150.04663 238.87397 L 149.23115 237.24302 L 149.23115 235.61206 L 150.04663 233.98111 L 151.67758 233.16563 L 154.93949 232.35016 L 157.38592 231.53468 L 159.01687 229.90373 L 159.83234 228.27278 L 159.83234 225.82635 L 159.01687 224.19540 L 158.20139 223.37992 L 155.75496 222.56444 L 152.49306 222.56444 L 150.04663 223.37992 L 149.23115 224.19540 L 148.41568 225.82635 L 148.41568 228.27278 L 149.23115 229.90373 L 150.86211 231.53468 L 153.30853 232.35016 L 156.57044 233.16563 L 158.20139 233.98111 L 159.01687 235.61206 L 159.01687 237.24302 L 158.20139 238.87397 L 155.75496 239.68944 z"/>
<path stroke="#000000" d="M 165.54068 235.61206 L 165.54068 236.42754 L 166.35615 238.05849 L 167.17163 238.87397 L 168.80258 239.68944 L 172.06449 239.68944 L 173.69544 238.87397 L 174.51092 238.05849 L 175.32639 236.42754 L 175.32639 234.79659 L 174.51092 233.16563 L 172.87996 230.71921 L 164.72520 222.56444 L 176.14187 222.56444"/>
<path stroke="#000000" d="M 182.66568 224.19540 L 181.85020 223.37992 L 182.66568 222.56444 L 183.48115 223.37992 z"/>
<path stroke="#000000" d="M 199.79068 237.24302 L 198.97520 238.87397 L 196.52877 239.68944 L 194.89782 239.68944 L 192.45139 238.87397 L 190.82044 236.42754 L 190.00496 232.35016 L 190.00496 228.27278 L 190.82044 225.01087 L 192.45139 223.37992 L 194.89782 222.56444 L 195.71330 222.56444 L 198.15972 223.37992 L 199.79068 225.01087 L 200.60615 227.45730 L 200.60615 228.27278 L 199.79068 230.71921 L 198.15972 232.35016 L 195.71330 233.16563 L 194.89782 233.16563 L 192.45139 232.35016 L 190.82044 230.71921 L 190.00496 228.27278"/>
<path stroke="#000000" d="M 207.94544 236.42754 L 209.57639 237.24302 L 212.02282 239.68944 L 212.02282 222.56444"/>
</svg>