<?xml version="1.0" encoding="UTF-8"?>
<!-- Generated by jsxcad -->
<!DOCTYPE svg PUBLIC "-//W3C//DTD SVG 1.1 Tiny//EN" "http://www.w3.org/Graphics/SVG/1.1/DTD/svg11-tiny.dtd">
<svg baseProfile="tiny" height="211.15269mm" width="212.02381mm" viewBox="-0.00085 28.53675 212.02381 211.15269" version="1.1" stroke="black" stroke-width=".1" fill="none" xmlns="http://www.w3.org/2000/svg">
<path fill="#000000" stroke="#000000" d="M78.48276 119.84444 L78.53990 119.25824 L78.55137 119.15665 L78.50620 120.57842 L78.84923 122.72446 L79.48276 124.46666 L79.48276 140.78463 L79.05792 141.75308 L78.57593 143.88353 L78.50620 146.07842 L78.84923 148.22446 L79.48276 149.96666 L79.48276 166.28463 L79.05792 167.25308 L78.57593 169.38353 L78.50620 171.57842 L78.84923 173.72446 L79.48276 175.46666 L79.48276 191.78463 L79.05792 192.75308 L78.57593 194.88353 L78.51803 196.70626 L78.48276 196.34444 z"/>
<path fill="#000000" stroke="#000000" d="M78.75388 117.36304 L78.92530 116.80110 L78.94965 116.73164 L78.70115 117.83005 z"/>
<path fill="#000000" stroke="#000000" d="M78.67777 198.15178 L78.82034 199.04371 L78.75388 198.82585 z"/>
<path fill="#000000" stroke="#000000" d="M79.55540 115.00351 L79.83332 114.48499 L79.83406 114.48381 L79.35387 115.57843 z"/>
<path fill="#000000" stroke="#000000" d="M79.37108 200.65956 L79.57685 201.22540 L79.55540 201.18538 z"/>
<path fill="#000000" stroke="#000000" d="M79.70362 201.46193 L80.15246 202.21138 L79.83332 201.70390 z"/>
<path fill="#000000" stroke="#000000" d="M80.84449 112.87711 L81.07998 112.58958 L80.46579 113.47928 z"/>
<path fill="#000000" stroke="#000000" d="M80.81948 203.27202 L81.63389 204.18344 L81.21678 203.76632 L80.84449 203.31178 z"/>
<path fill="#000000" stroke="#000000" d="M82.56088 111.07847 L82.60675 111.04090 L82.10453 111.53482 z"/>
<path fill="#000000" stroke="#000000" d="M82.43572 204.98527 L83.43525 205.74674 L83.01542 205.48272 L82.56088 205.11042 z"/>
<path fill="#000000" stroke="#000000" d="M83.01542 110.70617 L83.67601 110.29074 L82.85914 110.83418 z"/>
<path fill="#000000" stroke="#000000" d="M84.40913 206.35920 L85.48471 206.89200 L85.14183 206.77181 L84.62331 206.49389 z"/>
<path fill="#000000" stroke="#000000" d="M85.14183 109.41708 L85.78320 109.19227 L84.77339 109.61456 z"/>
<path fill="#000000" stroke="#000000" d="M86.65253 207.30134 L87.72799 207.59892 L87.50136 207.57333 L86.93941 207.40190 z"/>
<path fill="#000000" stroke="#000000" d="M87.50136 108.61556 L88.03744 108.55504 L86.96447 108.77935 z"/>
<path fill="#000000" stroke="#000000" d="M89.39655 108.40159 L89.98276 108.34444 L166.48276 108.34444 L166.93408 108.38844 L165.20322 108.41585 L163.07679 108.86039 L161.91930 109.34444 L145.57357 109.34444 L144.05191 108.76156 L141.89977 108.38106 L139.70322 108.41585 L137.57679 108.86039 L136.41930 109.34444 L120.07357 109.34444 L118.55191 108.76156 L116.39977 108.38106 L114.20322 108.41585 L112.07679 108.86039 L110.91930 109.34444 L94.57357 109.34444 L93.05191 108.76156 L90.89977 108.38106 L89.36274 108.40541 z"/>
<path fill="#000000" stroke="#000000" d="M99.80472 206.84444 L110.88872 206.84444 L111.37898 207.08730 L113.48062 207.66882 L113.44957 207.84444 L99.62792 207.84444 z"/>
<path fill="#000000" stroke="#000000" d="M125.30472 206.84444 L136.38872 206.84444 L136.87898 207.08730 L138.98062 207.66882 L138.94957 207.84444 L125.12792 207.84444 z"/>
<path fill="#000000" stroke="#000000" d="M150.80472 206.84444 L161.88872 206.84444 L162.37898 207.08730 L164.48062 207.66882 L164.44957 207.84444 L150.62792 207.84444 z"/>
<path fill="#000000" stroke="#000000" d="M168.96416 108.61556 L169.29228 108.71566 L168.30549 108.54119 z"/>
<path fill="#000000" stroke="#000000" d="M171.32369 109.41708 L171.47523 109.49831 L170.61143 109.16742 z"/>
<path fill="#000000" stroke="#000000" d="M171.84221 109.69500 L171.95345 109.76496 L171.83259 109.68985 z"/>
<path fill="#000000" stroke="#000000" d="M173.90464 111.07847 L174.39675 111.57058 L173.55057 110.78847 z"/>
<path fill="#000000" stroke="#000000" d="M175.24874 112.42256 L175.62103 112.87711 L175.93037 113.36900 L175.19621 112.37003 z"/>
<path fill="#000000" stroke="#000000" d="M176.63220 114.48499 L176.91012 115.00351 L177.05660 115.42139 L176.54725 114.34991 z"/>
<path fill="#000000" stroke="#000000" d="M176.36951 202.12160 L176.94197 201.09453 L176.91012 201.18538 L176.63220 201.70390 z"/>
<path fill="#000000" stroke="#000000" d="M176.98276 124.52134 L177.01193 124.46901 L177.69901 122.38326 L177.97673 120.21670 L177.90333 119.06087 L177.92562 119.25824 L177.98276 119.84444 L177.98276 196.34444 L177.96479 196.52873 L177.83731 194.52122 L177.28850 192.40923 L176.98276 191.76606 L176.98276 177.50936 L177.03269 177.22693 L176.98276 177.21810 L176.98276 175.52134 L177.01193 175.46901 L177.69901 173.38326 L177.97673 171.21670 L177.83731 169.02122 L177.28850 166.90923 L176.98276 166.26606 L176.98276 152.00936 L177.03269 151.72693 L176.98276 151.71810 L176.98276 150.02134 L177.01193 149.96901 L177.69901 147.88326 L177.97673 145.71670 L177.83731 143.52122 L177.28850 141.40923 L176.98276 140.76606 L176.98276 126.50936 L177.03269 126.22693 L176.98276 126.21810 z"/>
<path fill="#000000" stroke="#000000" d="M177.54021 116.80110 L177.71164 117.36304 L177.74649 117.67173 L177.46306 116.58100 z"/>
<path fill="#000000" stroke="#000000" d="M177.41729 199.73848 L177.63290 199.08397 L177.54021 199.38779 z"/>
<path fill="#000000" stroke="#000000" d="M177.70256 198.85563 L177.75056 198.48111 L177.71164 198.82585 z"/>
<path fill="#000000" stroke="#000000" d="M79.48276 124.46666 L79.59984 124.78864 L80.72302 126.66407 L82.16840 128.28161 L83.92323 129.61850 L85.87898 130.58730 L87.98062 131.16882 L87.71881 132.64968 L99.04318 134.65182 L100.53269 126.22693 L99.62188 126.06589 L100.51193 124.46901 L101.19901 122.38326 L101.47673 120.21670 L101.33731 118.02122 L100.78850 115.90923 L99.85674 113.94916 L98.55750 112.18130 L96.94847 110.69409 L95.10337 109.54739 L94.57357 109.34444 L110.91930 109.34444 L110.05537 109.70573 L108.22872 110.92094 L106.68137 112.44271 L105.44168 114.23849 L104.55792 116.25308 L104.07593 118.38353 L104.00620 120.57842 L104.34923 122.72446 L105.09984 124.78864 L106.22302 126.66407 L107.66840 128.28161 L109.42323 129.61850 L111.37898 130.58730 L113.48062 131.16882 L113.21881 132.64968 L124.54318 134.65182 L126.03269 126.22693 L125.12188 126.06589 L126.01193 124.46901 L126.69901 122.38326 L126.97673 120.21670 L126.83731 118.02122 L126.28850 115.90923 L125.35674 113.94916 L124.05750 112.18130 L122.44847 110.69409 L120.60337 109.54739 L120.07357 109.34444 L136.41930 109.34444 L135.55537 109.70573 L133.72872 110.92094 L132.18137 112.44271 L130.94168 114.23849 L130.05792 116.25308 L129.57593 118.38353 L129.50620 120.57842 L129.84923 122.72446 L130.59984 124.78864 L131.72302 126.66407 L133.16840 128.28161 L134.92323 129.61850 L136.87898 130.58730 L138.98062 131.16882 L138.71881 132.64968 L150.04318 134.65182 L151.53269 126.22693 L150.62188 126.06589 L151.51193 124.46901 L152.19901 122.38326 L152.47673 120.21670 L152.33731 118.02122 L151.78850 115.90923 L150.85674 113.94916 L149.55750 112.18130 L147.94847 110.69409 L146.10337 109.54739 L145.57357 109.34444 L161.91930 109.34444 L161.05537 109.70573 L159.22872 110.92094 L157.68137 112.44271 L156.44168 114.23849 L155.55792 116.25308 L155.07593 118.38353 L155.00620 120.57842 L155.34923 122.72446 L156.09984 124.78864 L157.22302 126.66407 L158.66840 128.28161 L160.42323 129.61850 L162.37898 130.58730 L164.48062 131.16882 L164.21881 132.64968 L175.54318 134.65182 L176.98276 126.50936 L176.98276 140.76606 L176.35674 139.44916 L175.05750 137.68130 L173.44847 136.19409 L171.60337 135.04739 L169.55191 134.26156 L167.39977 133.88106 L165.20322 133.91585 L163.07679 134.36039 L161.05537 135.20573 L159.22872 136.42094 L157.68137 137.94271 L156.44168 139.73849 L155.55792 141.75308 L155.07593 143.88353 L155.00620 146.07842 L155.34923 148.22446 L156.09984 150.28864 L157.22302 152.16407 L158.66840 153.78161 L160.42323 155.11850 L162.37898 156.08730 L164.48062 156.66882 L164.21881 158.14968 L175.54318 160.15182 L176.98276 152.00936 L176.98276 166.26606 L176.35674 164.94916 L175.05750 163.18130 L173.44847 161.69409 L171.60337 160.54739 L169.55191 159.76156 L167.39977 159.38106 L165.20322 159.41585 L163.07679 159.86039 L161.05537 160.70573 L159.22872 161.92094 L157.68137 163.44271 L156.44168 165.23849 L155.55792 167.25308 L155.07593 169.38353 L155.00620 171.57842 L155.34923 173.72446 L156.09984 175.78864 L157.22302 177.66407 L158.66840 179.28161 L160.42323 180.61850 L162.37898 181.58730 L164.48062 182.16882 L164.21881 183.64968 L175.54318 185.65182 L176.98276 177.50936 L176.98276 191.76606 L176.35674 190.44916 L175.05750 188.68130 L173.44847 187.19409 L171.60337 186.04739 L169.55191 185.26156 L167.39977 184.88106 L165.20322 184.91585 L163.07679 185.36039 L161.05537 186.20573 L159.22872 187.42094 L157.68137 188.94271 L156.44168 190.73849 L155.55792 192.75308 L155.07593 194.88353 L155.00620 197.07842 L155.34923 199.22446 L156.09984 201.28864 L157.22302 203.16407 L158.66840 204.78161 L160.42323 206.11850 L161.88872 206.84444 L150.80472 206.84444 L151.53269 202.72693 L150.62188 202.56589 L151.51193 200.96901 L152.19901 198.88326 L152.47673 196.71670 L152.33731 194.52122 L151.78850 192.40923 L150.85674 190.44916 L149.55750 188.68130 L147.94847 187.19409 L146.10337 186.04739 L144.05191 185.26156 L141.89977 184.88106 L139.70322 184.91585 L137.57679 185.36039 L135.55537 186.20573 L133.72872 187.42094 L132.18137 188.94271 L130.94168 190.73849 L130.05792 192.75308 L129.57593 194.88353 L129.50620 197.07842 L129.84923 199.22446 L130.59984 201.28864 L131.72302 203.16407 L133.16840 204.78161 L134.92323 206.11850 L136.38872 206.84444 L125.30472 206.84444 L126.03269 202.72693 L125.12188 202.56589 L126.01193 200.96901 L126.69901 198.88326 L126.97673 196.71670 L126.83731 194.52122 L126.28850 192.40923 L125.35674 190.44916 L124.05750 188.68130 L122.44847 187.19409 L120.60337 186.04739 L118.55191 185.26156 L116.39977 184.88106 L114.20322 184.91585 L112.07679 185.36039 L110.05537 186.20573 L108.22872 187.42094 L106.68137 188.94271 L105.44168 190.73849 L104.55792 192.75308 L104.07593 194.88353 L104.00620 197.07842 L104.34923 199.22446 L105.09984 201.28864 L106.22302 203.16407 L107.66840 204.78161 L109.42323 206.11850 L110.88872 206.84444 L99.80472 206.84444 L100.53269 202.72693 L99.62188 202.56589 L100.51193 200.96901 L101.19901 198.88326 L101.47673 196.71670 L101.33731 194.52122 L100.78850 192.40923 L99.85674 190.44916 L98.55750 188.68130 L96.94847 187.19409 L95.10337 186.04739 L93.05191 185.26156 L90.89977 184.88106 L88.70322 184.91585 L86.57679 185.36039 L84.55537 186.20573 L82.72872 187.42094 L81.18137 188.94271 L79.94168 190.73849 L79.48276 191.78463 L79.48276 175.46666 L79.59984 175.78864 L80.72302 177.66407 L82.16840 179.28161 L83.92323 180.61850 L85.87898 181.58730 L87.98062 182.16882 L87.71881 183.64968 L99.04318 185.65182 L100.53269 177.22693 L99.62188 177.06589 L100.51193 175.46901 L101.19901 173.38326 L101.47673 171.21670 L101.33731 169.02122 L100.78850 166.90923 L99.85674 164.94916 L98.55750 163.18130 L96.94847 161.69409 L95.10337 160.54739 L93.05191 159.76156 L90.89977 159.38106 L88.70322 159.41585 L86.57679 159.86039 L84.55537 160.70573 L82.72872 161.92094 L81.18137 163.44271 L79.94168 165.23849 L79.48276 166.28463 L79.48276 149.96666 L79.59984 150.28864 L80.72302 152.16407 L82.16840 153.78161 L83.92323 155.11850 L85.87898 156.08730 L87.98062 156.66882 L87.71881 158.14968 L99.04318 160.15182 L100.53269 151.72693 L99.62188 151.56589 L100.51193 149.96901 L101.19901 147.88326 L101.47673 145.71670 L101.33731 143.52122 L100.78850 141.40923 L99.85674 139.44916 L98.55750 137.68130 L96.94847 136.19409 L95.10337 135.04739 L93.05191 134.26156 L90.89977 133.88106 L88.70322 133.91585 L86.57679 134.36039 L84.55537 135.20573 L82.72872 136.42094 L81.18137 137.94271 L79.94168 139.73849 L79.48276 140.78463 z M152.47673 171.21670 L152.33731 169.02122 L151.78850 166.90923 L150.85674 164.94916 L149.55750 163.18130 L147.94847 161.69409 L146.10337 160.54739 L144.05191 159.76156 L141.89977 159.38106 L139.70322 159.41585 L137.57679 159.86039 L135.55537 160.70573 L133.72872 161.92094 L132.18137 163.44271 L130.94168 165.23849 L130.05792 167.25308 L129.57593 169.38353 L129.50620 171.57842 L129.84923 173.72446 L130.59984 175.78864 L131.72302 177.66407 L133.16840 179.28161 L134.92323 180.61850 L136.87898 181.58730 L138.98062 182.16882 L138.71881 183.64968 L150.04318 185.65182 L151.53269 177.22693 L150.62188 177.06589 L151.51193 175.46901 L152.19901 173.38326 z M152.47673 145.71670 L152.33731 143.52122 L151.78850 141.40923 L150.85674 139.44916 L149.55750 137.68130 L147.94847 136.19409 L146.10337 135.04739 L144.05191 134.26156 L141.89977 133.88106 L139.70322 133.91585 L137.57679 134.36039 L135.55537 135.20573 L133.72872 136.42094 L132.18137 137.94271 L130.94168 139.73849 L130.05792 141.75308 L129.57593 143.88353 L129.50620 146.07842 L129.84923 148.22446 L130.59984 150.28864 L131.72302 152.16407 L133.16840 153.78161 L134.92323 155.11850 L136.87898 156.08730 L138.98062 156.66882 L138.71881 158.14968 L150.04318 160.15182 L151.53269 151.72693 L150.62188 151.56589 L151.51193 149.96901 L152.19901 147.88326 z M126.97673 171.21670 L126.83731 169.02122 L126.28850 166.90923 L125.35674 164.94916 L124.05750 163.18130 L122.44847 161.69409 L120.60337 160.54739 L118.55191 159.76156 L116.39977 159.38106 L114.20322 159.41585 L112.07679 159.86039 L110.05537 160.70573 L108.22872 161.92094 L106.68137 163.44271 L105.44168 165.23849 L104.55792 167.25308 L104.07593 169.38353 L104.00620 171.57842 L104.34923 173.72446 L105.09984 175.78864 L106.22302 177.66407 L107.66840 179.28161 L109.42323 180.61850 L111.37898 181.58730 L113.48062 182.16882 L113.21881 183.64968 L124.54318 185.65182 L126.03269 177.22693 L125.12188 177.06589 L126.01193 175.46901 L126.69901 173.38326 z M126.97673 145.71670 L126.83731 143.52122 L126.28850 141.40923 L125.35674 139.44916 L124.05750 137.68130 L122.44847 136.19409 L120.60337 135.04739 L118.55191 134.26156 L116.39977 133.88106 L114.20322 133.91585 L112.07679 134.36039 L110.05537 135.20573 L108.22872 136.42094 L106.68137 137.94271 L105.44168 139.73849 L104.55792 141.75308 L104.07593 143.88353 L104.00620 146.07842 L104.34923 148.22446 L105.09984 150.28864 L106.22302 152.16407 L107.66840 153.78161 L109.42323 155.11850 L111.37898 156.08730 L113.48062 156.66882 L113.21881 158.14968 L124.54318 160.15182 L126.03269 151.72693 L125.12188 151.56589 L126.01193 149.96901 L126.69901 147.88326 z"/>
<path fill="#000000" stroke="#000000" d="M176.98276 124.52134 L176.98276 126.21810 L176.12188 126.06589 z"/>
<path fill="#000000" stroke="#000000" d="M176.98276 150.02134 L176.98276 151.71810 L176.12188 151.56589 z"/>
<path fill="#000000" stroke="#000000" d="M176.98276 175.52134 L176.98276 177.21810 L176.12188 177.06589 z"/>
<path fill="#000000" stroke="#000000" d="M87.98062 156.66882 L90.15425 156.84317 L92.32362 156.60368 L94.43046 155.94953 L96.34285 154.92564 L98.04099 153.54901 L99.45386 151.86734 L99.62188 151.56589 L100.53269 151.72693 L99.04318 160.15182 L87.71881 158.14968 z"/>
<path fill="#000000" stroke="#000000" d="M78.57593 143.88353 L79.05792 141.75308 L79.94168 139.73849 L81.18137 137.94271 L82.72872 136.42094 L84.55537 135.20573 L86.57679 134.36039 L88.70322 133.91585 L90.89977 133.88106 L93.05191 134.26156 L95.10337 135.04739 L96.94847 136.19409 L98.55750 137.68130 L99.85674 139.44916 L100.78850 141.40923 L101.33731 143.52122 L101.47673 145.71670 L101.19901 147.88326 L100.51193 149.96901 L99.45386 151.86734 L98.04099 153.54901 L96.34285 154.92564 L94.43046 155.94953 L92.32362 156.60368 L90.15425 156.84317 L87.98062 156.66882 L85.87898 156.08730 L83.92323 155.11850 L82.16840 153.78161 L80.72302 152.16407 L79.59984 150.28864 L78.84923 148.22446 L78.50620 146.07842 z"/>
<path fill="#000000" stroke="#000000" d="M113.48062 156.66882 L115.65425 156.84317 L117.82362 156.60368 L119.93046 155.94953 L121.84285 154.92564 L123.54099 153.54901 L124.95386 151.86734 L125.12188 151.56589 L126.03269 151.72693 L124.54318 160.15182 L113.21881 158.14968 z"/>
<path fill="#000000" stroke="#000000" d="M104.07593 143.88353 L104.55792 141.75308 L105.44168 139.73849 L106.68137 137.94271 L108.22872 136.42094 L110.05537 135.20573 L112.07679 134.36039 L114.20322 133.91585 L116.39977 133.88106 L118.55191 134.26156 L120.60337 135.04739 L122.44847 136.19409 L124.05750 137.68130 L125.35674 139.44916 L126.28850 141.40923 L126.83731 143.52122 L126.97673 145.71670 L126.69901 147.88326 L126.01193 149.96901 L124.95386 151.86734 L123.54099 153.54901 L121.84285 154.92564 L119.93046 155.94953 L117.82362 156.60368 L115.65425 156.84317 L113.48062 156.66882 L111.37898 156.08730 L109.42323 155.11850 L107.66840 153.78161 L106.22302 152.16407 L105.09984 150.28864 L104.34923 148.22446 L104.00620 146.07842 z"/>
<path fill="#000000" stroke="#000000" d="M138.98062 156.66882 L141.15425 156.84317 L143.32362 156.60368 L145.43046 155.94953 L147.34285 154.92564 L149.04099 153.54901 L150.45386 151.86734 L150.62188 151.56589 L151.53269 151.72693 L150.04318 160.15182 L138.71881 158.14968 z"/>
<path fill="#000000" stroke="#000000" d="M129.57593 143.88353 L130.05792 141.75308 L130.94168 139.73849 L132.18137 137.94271 L133.72872 136.42094 L135.55537 135.20573 L137.57679 134.36039 L139.70322 133.91585 L141.89977 133.88106 L144.05191 134.26156 L146.10337 135.04739 L147.94847 136.19409 L149.55750 137.68130 L150.85674 139.44916 L151.78850 141.40923 L152.33731 143.52122 L152.47673 145.71670 L152.19901 147.88326 L151.51193 149.96901 L150.45386 151.86734 L149.04099 153.54901 L147.34285 154.92564 L145.43046 155.94953 L143.32362 156.60368 L141.15425 156.84317 L138.98062 156.66882 L136.87898 156.08730 L134.92323 155.11850 L133.16840 153.78161 L131.72302 152.16407 L130.59984 150.28864 L129.84923 148.22446 L129.50620 146.07842 z"/>
<path fill="#000000" stroke="#000000" d="M164.48062 156.66882 L166.65425 156.84317 L168.82362 156.60368 L170.93046 155.94953 L172.84285 154.92564 L174.54099 153.54901 L175.95386 151.86734 L176.12188 151.56589 L177.03269 151.72693 L175.54318 160.15182 L164.21881 158.14968 z"/>
<path fill="#000000" stroke="#000000" d="M155.07593 143.88353 L155.55792 141.75308 L156.44168 139.73849 L157.68137 137.94271 L159.22872 136.42094 L161.05537 135.20573 L163.07679 134.36039 L165.20322 133.91585 L167.39977 133.88106 L169.55191 134.26156 L171.60337 135.04739 L173.44847 136.19409 L175.05750 137.68130 L176.35674 139.44916 L177.28850 141.40923 L177.83731 143.52122 L177.97673 145.71670 L177.69901 147.88326 L177.01193 149.96901 L175.95386 151.86734 L174.54099 153.54901 L172.84285 154.92564 L170.93046 155.94953 L168.82362 156.60368 L166.65425 156.84317 L164.48062 156.66882 L162.37898 156.08730 L160.42323 155.11850 L158.66840 153.78161 L157.22302 152.16407 L156.09984 150.28864 L155.34923 148.22446 L155.00620 146.07842 z"/>
<path fill="#000000" stroke="#000000" d="M87.98062 131.16882 L90.15425 131.34317 L92.32362 131.10368 L94.43046 130.44953 L96.34285 129.42564 L98.04099 128.04901 L99.45386 126.36734 L99.62188 126.06589 L100.53269 126.22693 L99.04318 134.65182 L87.71881 132.64968 z"/>
<path fill="#000000" stroke="#000000" d="M101.19901 122.38326 L100.51193 124.46901 L99.45386 126.36734 L98.04099 128.04901 L96.34285 129.42564 L94.43046 130.44953 L92.32362 131.10368 L90.15425 131.34317 L87.98062 131.16882 L85.87898 130.58730 L83.92323 129.61850 L82.16840 128.28161 L80.72302 126.66407 L79.59984 124.78864 L78.84923 122.72446 L78.50620 120.57842 L78.57593 118.38353 L79.05792 116.25308 L79.94168 114.23849 L81.18137 112.44271 L82.72872 110.92094 L84.55537 109.70573 L86.57679 108.86039 L88.70322 108.41585 L90.89977 108.38106 L93.05191 108.76156 L95.10337 109.54739 L96.94847 110.69409 L98.55750 112.18130 L99.85674 113.94916 L100.78850 115.90923 L101.33731 118.02122 L101.47673 120.21670 z"/>
<path fill="#000000" stroke="#000000" d="M113.48062 131.16882 L115.65425 131.34317 L117.82362 131.10368 L119.93046 130.44953 L121.84285 129.42564 L123.54099 128.04901 L124.95386 126.36734 L125.12188 126.06589 L126.03269 126.22693 L124.54318 134.65182 L113.21881 132.64968 z"/>
<path fill="#000000" stroke="#000000" d="M126.69901 122.38326 L126.01193 124.46901 L124.95386 126.36734 L123.54099 128.04901 L121.84285 129.42564 L119.93046 130.44953 L117.82362 131.10368 L115.65425 131.34317 L113.48062 131.16882 L111.37898 130.58730 L109.42323 129.61850 L107.66840 128.28161 L106.22302 126.66407 L105.09984 124.78864 L104.34923 122.72446 L104.00620 120.57842 L104.07593 118.38353 L104.55792 116.25308 L105.44168 114.23849 L106.68137 112.44271 L108.22872 110.92094 L110.05537 109.70573 L112.07679 108.86039 L114.20322 108.41585 L116.39977 108.38106 L118.55191 108.76156 L120.60337 109.54739 L122.44847 110.69409 L124.05750 112.18130 L125.35674 113.94916 L126.28850 115.90923 L126.83731 118.02122 L126.97673 120.21670 z"/>
<path fill="#000000" stroke="#000000" d="M138.98062 131.16882 L141.15425 131.34317 L143.32362 131.10368 L145.43046 130.44953 L147.34285 129.42564 L149.04099 128.04901 L150.45386 126.36734 L150.62188 126.06589 L151.53269 126.22693 L150.04318 134.65182 L138.71881 132.64968 z"/>
<path fill="#000000" stroke="#000000" d="M152.19901 122.38326 L151.51193 124.46901 L150.45386 126.36734 L149.04099 128.04901 L147.34285 129.42564 L145.43046 130.44953 L143.32362 131.10368 L141.15425 131.34317 L138.98062 131.16882 L136.87898 130.58730 L134.92323 129.61850 L133.16840 128.28161 L131.72302 126.66407 L130.59984 124.78864 L129.84923 122.72446 L129.50620 120.57842 L129.57593 118.38353 L130.05792 116.25308 L130.94168 114.23849 L132.18137 112.44271 L133.72872 110.92094 L135.55537 109.70573 L137.57679 108.86039 L139.70322 108.41585 L141.89977 108.38106 L144.05191 108.76156 L146.10337 109.54739 L147.94847 110.69409 L149.55750 112.18130 L150.85674 113.94916 L151.78850 115.90923 L152.33731 118.02122 L152.47673 120.21670 z"/>
<path fill="#000000" stroke="#000000" d="M164.48062 131.16882 L166.65425 131.34317 L168.82362 131.10368 L170.93046 130.44953 L172.84285 129.42564 L174.54099 128.04901 L175.95386 126.36734 L176.12188 126.06589 L177.03269 126.22693 L175.54318 134.65182 L164.21881 132.64968 z"/>
<path fill="#000000" stroke="#000000" d="M177.69901 122.38326 L177.01193 124.46901 L175.95386 126.36734 L174.54099 128.04901 L172.84285 129.42564 L170.93046 130.44953 L168.82362 131.10368 L166.65425 131.34317 L164.48062 131.16882 L162.37898 130.58730 L160.42323 129.61850 L158.66840 128.28161 L157.22302 126.66407 L156.09984 124.78864 L155.34923 122.72446 L155.00620 120.57842 L155.07593 118.38353 L155.55792 116.25308 L156.44168 114.23849 L157.68137 112.44271 L159.22872 110.92094 L161.05537 109.70573 L163.07679 108.86039 L165.20322 108.41585 L167.39977 108.38106 L169.55191 108.76156 L171.60337 109.54739 L173.44847 110.69409 L175.05750 112.18130 L176.35674 113.94916 L177.28850 115.90923 L177.83731 118.02122 L177.97673 120.21670 z"/>
<path fill="#000000" stroke="#000000" d="M87.98062 182.16882 L90.15425 182.34317 L92.32362 182.10368 L94.43046 181.44953 L96.34285 180.42564 L98.04099 179.04901 L99.45386 177.36734 L99.62188 177.06589 L100.53269 177.22693 L99.04318 185.65182 L87.71881 183.64968 z"/>
<path fill="#000000" stroke="#000000" d="M101.19901 173.38326 L100.51193 175.46901 L99.45386 177.36734 L98.04099 179.04901 L96.34285 180.42564 L94.43046 181.44953 L92.32362 182.10368 L90.15425 182.34317 L87.98062 182.16882 L85.87898 181.58730 L83.92323 180.61850 L82.16840 179.28161 L80.72302 177.66407 L79.59984 175.78864 L78.84923 173.72446 L78.50620 171.57842 L78.57593 169.38353 L79.05792 167.25308 L79.94168 165.23849 L81.18137 163.44271 L82.72872 161.92094 L84.55537 160.70573 L86.57679 159.86039 L88.70322 159.41585 L90.89977 159.38106 L93.05191 159.76156 L95.10337 160.54739 L96.94847 161.69409 L98.55750 163.18130 L99.85674 164.94916 L100.78850 166.90923 L101.33731 169.02122 L101.47673 171.21670 z"/>
<path fill="#000000" stroke="#000000" d="M113.48062 182.16882 L115.65425 182.34317 L117.82362 182.10368 L119.93046 181.44953 L121.84285 180.42564 L123.54099 179.04901 L124.95386 177.36734 L125.12188 177.06589 L126.03269 177.22693 L124.54318 185.65182 L113.21881 183.64968 z"/>
<path fill="#000000" stroke="#000000" d="M126.69901 173.38326 L126.01193 175.46901 L124.95386 177.36734 L123.54099 179.04901 L121.84285 180.42564 L119.93046 181.44953 L117.82362 182.10368 L115.65425 182.34317 L113.48062 182.16882 L111.37898 181.58730 L109.42323 180.61850 L107.66840 179.28161 L106.22302 177.66407 L105.09984 175.78864 L104.34923 173.72446 L104.00620 171.57842 L104.07593 169.38353 L104.55792 167.25308 L105.44168 165.23849 L106.68137 163.44271 L108.22872 161.92094 L110.05537 160.70573 L112.07679 159.86039 L114.20322 159.41585 L116.39977 159.38106 L118.55191 159.76156 L120.60337 160.54739 L122.44847 161.69409 L124.05750 163.18130 L125.35674 164.94916 L126.28850 166.90923 L126.83731 169.02122 L126.97673 171.21670 z"/>
<path fill="#000000" stroke="#000000" d="M138.98062 182.16882 L141.15425 182.34317 L143.32362 182.10368 L145.43046 181.44953 L147.34285 180.42564 L149.04099 179.04901 L150.45386 177.36734 L150.62188 177.06589 L151.53269 177.22693 L150.04318 185.65182 L138.71881 183.64968 z"/>
<path fill="#000000" stroke="#000000" d="M152.19901 173.38326 L151.51193 175.46901 L150.45386 177.36734 L149.04099 179.04901 L147.34285 180.42564 L145.43046 181.44953 L143.32362 182.10368 L141.15425 182.34317 L138.98062 182.16882 L136.87898 181.58730 L134.92323 180.61850 L133.16840 179.28161 L131.72302 177.66407 L130.59984 175.78864 L129.84923 173.72446 L129.50620 171.57842 L129.57593 169.38353 L130.05792 167.25308 L130.94168 165.23849 L132.18137 163.44271 L133.72872 161.92094 L135.55537 160.70573 L137.57679 159.86039 L139.70322 159.41585 L141.89977 159.38106 L144.05191 159.76156 L146.10337 160.54739 L147.94847 161.69409 L149.55750 163.18130 L150.85674 164.94916 L151.78850 166.90923 L152.33731 169.02122 L152.47673 171.21670 z"/>
<path fill="#000000" stroke="#000000" d="M164.48062 182.16882 L166.65425 182.34317 L168.82362 182.10368 L170.93046 181.44953 L172.84285 180.42564 L174.54099 179.04901 L175.95386 177.36734 L176.12188 177.06589 L177.03269 177.22693 L175.54318 185.65182 L164.21881 183.64968 z"/>
<path fill="#000000" stroke="#000000" d="M177.69901 173.38326 L177.01193 175.46901 L175.95386 177.36734 L174.54099 179.04901 L172.84285 180.42564 L170.93046 181.44953 L168.82362 182.10368 L166.65425 182.34317 L164.48062 182.16882 L162.37898 181.58730 L160.42323 180.61850 L158.66840 179.28161 L157.22302 177.66407 L156.09984 175.78864 L155.34923 173.72446 L155.00620 171.57842 L155.07593 169.38353 L155.55792 167.25308 L156.44168 165.23849 L157.68137 163.44271 L159.22872 161.92094 L161.05537 160.70573 L163.07679 159.86039 L165.20322 159.41585 L167.39977 159.38106 L169.55191 159.76156 L171.60337 160.54739 L173.44847 161.69409 L175.05750 163.18130 L176.35674 164.94916 L177.28850 166.90923 L177.83731 169.02122 L177.97673 171.21670 z"/>
<path fill="#000000" stroke="#000000" d="M87.98062 207.66882 L90.15425 207.84317 L92.32362 207.60368 L94.43046 206.94953 L96.34285 205.92564 L98.04099 204.54901 L99.45386 202.86734 L99.62188 202.56589 L100.53269 202.72693 L99.04318 211.15182 L87.71881 209.14968 z"/>
<path fill="#000000" stroke="#000000" d="M101.19901 198.88326 L100.51193 200.96901 L99.45386 202.86734 L98.04099 204.54901 L96.34285 205.92564 L94.43046 206.94953 L92.32362 207.60368 L90.15425 207.84317 L87.98062 207.66882 L85.87898 207.08730 L83.92323 206.11850 L82.16840 204.78161 L80.72302 203.16407 L79.59984 201.28864 L78.84923 199.22446 L78.50620 197.07842 L78.57593 194.88353 L79.05792 192.75308 L79.94168 190.73849 L81.18137 188.94271 L82.72872 187.42094 L84.55537 186.20573 L86.57679 185.36039 L88.70322 184.91585 L90.89977 184.88106 L93.05191 185.26156 L95.10337 186.04739 L96.94847 187.19409 L98.55750 188.68130 L99.85674 190.44916 L100.78850 192.40923 L101.33731 194.52122 L101.47673 196.71670 z"/>
<path fill="#000000" stroke="#000000" d="M113.48062 207.66882 L115.65425 207.84317 L117.82362 207.60368 L119.93046 206.94953 L121.84285 205.92564 L123.54099 204.54901 L124.95386 202.86734 L125.12188 202.56589 L126.03269 202.72693 L124.54318 211.15182 L113.21881 209.14968 z"/>
<path fill="#000000" stroke="#000000" d="M126.69901 198.88326 L126.01193 200.96901 L124.95386 202.86734 L123.54099 204.54901 L121.84285 205.92564 L119.93046 206.94953 L117.82362 207.60368 L115.65425 207.84317 L113.48062 207.66882 L111.37898 207.08730 L109.42323 206.11850 L107.66840 204.78161 L106.22302 203.16407 L105.09984 201.28864 L104.34923 199.22446 L104.00620 197.07842 L104.07593 194.88353 L104.55792 192.75308 L105.44168 190.73849 L106.68137 188.94271 L108.22872 187.42094 L110.05537 186.20573 L112.07679 185.36039 L114.20322 184.91585 L116.39977 184.88106 L118.55191 185.26156 L120.60337 186.04739 L122.44847 187.19409 L124.05750 188.68130 L125.35674 190.44916 L126.28850 192.40923 L126.83731 194.52122 L126.97673 196.71670 z"/>
<path fill="#000000" stroke="#000000" d="M138.98062 207.66882 L141.15425 207.84317 L143.32362 207.60368 L145.43046 206.94953 L147.34285 205.92564 L149.04099 204.54901 L150.45386 202.86734 L150.62188 202.56589 L151.53269 202.72693 L150.04318 211.15182 L138.71881 209.14968 z"/>
<path fill="#000000" stroke="#000000" d="M152.19901 198.88326 L151.51193 200.96901 L150.45386 202.86734 L149.04099 204.54901 L147.34285 205.92564 L145.43046 206.94953 L143.32362 207.60368 L141.15425 207.84317 L138.98062 207.66882 L136.87898 207.08730 L134.92323 206.11850 L133.16840 204.78161 L131.72302 203.16407 L130.59984 201.28864 L129.84923 199.22446 L129.50620 197.07842 L129.57593 194.88353 L130.05792 192.75308 L130.94168 190.73849 L132.18137 188.94271 L133.72872 187.42094 L135.55537 186.20573 L137.57679 185.36039 L139.70322 184.91585 L141.89977 184.88106 L144.05191 185.26156 L146.10337 186.04739 L147.94847 187.19409 L149.55750 188.68130 L150.85674 190.44916 L151.78850 192.40923 L152.33731 194.52122 L152.47673 196.71670 z"/>
<path fill="#000000" stroke="#000000" d="M164.48062 207.66882 L166.65425 207.84317 L168.82362 207.60368 L170.93046 206.94953 L172.84285 205.92564 L174.54099 204.54901 L175.95386 202.86734 L176.12188 202.56589 L177.03269 202.72693 L175.54318 211.15182 L164.21881 209.14968 z"/>
<path fill="#000000" stroke="#000000" d="M177.69901 198.88326 L177.01193 200.96901 L175.95386 202.86734 L174.54099 204.54901 L172.84285 205.92564 L170.93046 206.94953 L168.82362 207.60368 L166.65425 207.84317 L164.48062 207.66882 L162.37898 207.08730 L160.42323 206.11850 L158.66840 204.78161 L157.22302 203.16407 L156.09984 201.28864 L155.34923 199.22446 L155.00620 197.07842 L155.07593 194.88353 L155.55792 192.75308 L156.44168 190.73849 L157.68137 188.94271 L159.22872 187.42094 L161.05537 186.20573 L163.07679 185.36039 L165.20322 184.91585 L167.39977 184.88106 L169.55191 185.26156 L171.60337 186.04739 L173.44847 187.19409 L175.05750 188.68130 L176.35674 190.44916 L177.28850 192.40923 L177.83731 194.52122 L177.97673 196.71670 z"/>
<path stroke="#000000" d="M -0.00085 28.53675 L 179.99915 28.53675 L 179.99915 211.03675 L -0.00085 211.03675 z"/>
<path stroke="#000000" d="M 4.89201 236.42754 L 6.52296 237.24302 L 8.96939 239.68944 L 8.96939 222.56444"/>
<path stroke="#000000" d="M 30.17177 239.68944 L 22.01701 222.56444 M 18.75510 239.68944 z"/>
<path stroke="#000000" d="M 45.66582 233.98111 L 44.85034 231.53468 L 43.21939 229.90373 L 40.77296 229.08825 L 39.95749 229.08825 L 37.51106 229.90373 L 35.88010 231.53468 L 35.06463 233.98111 L 35.06463 234.79659 L 35.88010 237.24302 L 37.51106 238.87397 L 39.95749 239.68944 L 40.77296 239.68944 L 43.21939 238.87397 L 44.85034 237.24302 L 45.66582 233.98111 L 45.66582 229.90373 L 44.85034 225.82635 L 43.21939 223.37992 L 40.77296 222.56444 L 39.14201 222.56444 L 36.69558 223.37992 L 35.88010 225.01087"/>
<path stroke="#000000" d="M 53.00510 224.19540 L 52.18963 223.37992 L 53.00510 222.56444 L 53.82058 223.37992 z"/>
<path stroke="#000000" d="M 70.13010 233.98111 L 69.31463 231.53468 L 67.68368 229.90373 L 65.23725 229.08825 L 64.42177 229.08825 L 61.97534 229.90373 L 60.34439 231.53468 L 59.52891 233.98111 L 59.52891 234.79659 L 60.34439 237.24302 L 61.97534 238.87397 L 64.42177 239.68944 L 65.23725 239.68944 L 67.68368 238.87397 L 69.31463 237.24302 L 70.13010 233.98111 L 70.13010 229.90373 L 69.31463 225.82635 L 67.68368 223.37992 L 65.23725 222.56444 L 63.60629 222.56444 L 61.15987 223.37992 L 60.34439 225.01087"/>
<path stroke="#000000" d="M 86.43963 237.24302 L 85.62415 238.87397 L 83.17772 239.68944 L 81.54677 239.68944 L 79.10034 238.87397 L 77.46939 236.42754 L 76.65391 232.35016 L 76.65391 228.27278 L 77.46939 225.01087 L 79.10034 223.37992 L 81.54677 222.56444 L 82.36225 222.56444 L 84.80868 223.37992 L 86.43963 225.01087 L 87.25510 227.45730 L 87.25510 228.27278 L 86.43963 230.71921 L 84.80868 232.35016 L 82.36225 233.16563 L 81.54677 233.16563 L 79.10034 232.35016 L 77.46939 230.71921 L 76.65391 228.27278"/>
<path stroke="#000000" d=""/>
<path stroke="#000000" d="M 105.19558 233.98111 L 114.16582 222.56444 M 114.16582 233.98111 L 105.19558 222.56444"/>
<path stroke="#000000" d=""/>
<path stroke="#000000" d="M 134.55272 236.42754 L 136.18368 237.24302 L 138.63010 239.68944 L 138.63010 222.56444"/>
<path stroke="#000000" d="M 152.49320 239.68944 L 150.04677 238.87397 L 149.23129 237.24302 L 149.23129 235.61206 L 150.04677 233.98111 L 151.67772 233.16563 L 154.93963 232.35016 L 157.38606 231.53468 L 159.01701 229.90373 L 159.83249 228.27278 L 159.83249 225.82635 L 159.01701 224.19540 L 158.20153 223.37992 L 155.75510 222.56444 L 152.49320 222.56444 L 150.04677 223.37992 L 149.23129 224.19540 L 148.41582 225.82635 L 148.41582 228.27278 L 149.23129 229.90373 L 150.86225 231.53468 L 153.30868 232.35016 L 156.57058 233.16563 L 158.20153 233.98111 L 159.01701 235.61206 L 159.01701 237.24302 L 158.20153 238.87397 L 155.75510 239.68944 z"/>
<path stroke="#000000" d="M 165.54082 235.61206 L 165.54082 236.42754 L 166.35629 238.05849 L 167.17177 238.87397 L 168.80272 239.68944 L 172.06463 239.68944 L 173.69558 238.87397 L 174.51106 238.05849 L 175.32653 236.42754 L 175.32653 234.79659 L 174.51106 233.16563 L 172.88010 230.71921 L 164.72534 222.56444 L 176.14201 222.56444"/>
<path stroke="#000000" d="M 182.66582 224.19540 L 181.85034 223.37992 L 182.66582 222.56444 L 183.48129 223.37992 z"/>
<path stroke="#000000" d="M 199.79082 237.24302 L 198.97534 238.87397 L 196.52891 239.68944 L 194.89796 239.68944 L 192.45153 238.87397 L 190.82058 236.42754 L 190.00510 232.35016 L 190.00510 228.27278 L 190.82058 225.01087 L 192.45153 223.37992 L 194.89796 222.56444 L 195.71344 222.56444 L 198.15987 223.37992 L 199.79082 225.01087 L 200.60629 227.45730 L 200.60629 228.27278 L 199.79082 230.71921 L 198.15987 232.35016 L 195.71344 233.16563 L 194.89796 233.16563 L 192.45153 232.35016 L 190.82058 230.71921 L 190.00510 228.27278"/>
<path stroke="#000000" d="M 207.94558 236.42754 L 209.57653 237.24302 L 212.02296 239.68944 L 212.02296 222.56444"/>
</svg>