<?xml version="1.0" encoding="UTF-8"?>
<!-- Generated by jsxcad -->
<!DOCTYPE svg PUBLIC "-//W3C//DTD SVG 1.1 Tiny//EN" "http://www.w3.org/Graphics/SVG/1.1/DTD/svg11-tiny.dtd">
<svg baseProfile="tiny" height="211.15269mm" width="212.02381mm" viewBox="-0.00085 28.53675 212.02381 211.15269" version="1.1" stroke="black" stroke-width=".1" fill="none" xmlns="http://www.w3.org/2000/svg">
<path fill="#000000" stroke="#000000" d="M78.48276 119.84444 L78.53990 119.25824 L78.75388 117.36304 L78.92530 116.80110 L79.55540 115.00351 L79.83332 114.48499 L80.84449 112.87711 L81.21678 112.42256 L82.56088 111.07847 L83.01542 110.70617 L84.62331 109.69500 L85.14183 109.41708 L86.93941 108.78699 L87.50136 108.61556 L89.39655 108.40159 L89.98276 108.34444 L166.48276 108.34444 L167.06897 108.40159 L168.96416 108.61556 L169.52610 108.78699 L171.32369 109.41708 L171.84221 109.69500 L173.45009 110.70617 L173.90464 111.07847 L175.24874 112.42256 L175.62103 112.87711 L176.63220 114.48499 L176.91012 115.00351 L177.54021 116.80110 L177.71164 117.36304 L177.92562 119.25824 L177.98276 119.84444 L177.98276 196.34444 L177.92562 196.93065 L177.71164 198.82585 L177.54021 199.38779 L176.91012 201.18538 L176.63220 201.70390 L175.74178 203.11977 L174.93489 204.08017 L174.14518 204.86988 L173.17860 205.65345 L172.18992 206.27522 L171.14623 206.83401 L169.93403 207.25891 L168.89693 207.58092 L167.06897 207.78730 L166.56737 207.83620 L164.48062 207.66882 L164.44957 207.84444 L150.62792 207.84444 L150.80472 206.84444 L166.48276 206.84444 L166.87300 206.80598 L168.76820 206.59201 L169.14266 206.47896 L170.94025 205.84886 L171.28665 205.66235 L172.89454 204.65118 L173.19722 204.40300 L174.54132 203.05891 L174.78950 202.75622 L175.80067 201.14834 L175.98718 200.80194 L176.61727 199.00435 L176.73032 198.62988 L176.94430 196.73469 L176.98276 196.34444 L176.98276 177.50936 L177.03269 177.22693 L176.98276 177.21810 L176.98276 152.00936 L177.03269 151.72693 L176.98276 151.71810 L176.98276 126.50936 L177.03269 126.22693 L176.98276 126.21810 L176.98276 119.84444 L176.94430 119.45420 L176.73032 117.55900 L176.61727 117.18454 L175.98718 115.38695 L175.80067 115.04055 L174.78950 113.43267 L174.54132 113.12998 L173.19722 111.78589 L172.89454 111.53771 L171.28665 110.52654 L170.94025 110.34002 L169.14266 109.70993 L168.76820 109.59688 L166.87300 109.38291 L166.48276 109.34444 L89.98276 109.34444 L89.59251 109.38291 L87.69732 109.59688 L87.32286 109.70993 L85.52527 110.34002 L85.17886 110.52654 L83.57098 111.53771 L83.26830 111.78589 L81.92420 113.12998 L81.67602 113.43267 L80.66485 115.04055 L80.47834 115.38695 L79.84825 117.18454 L79.73519 117.55900 L79.52122 119.45420 L79.48276 119.84444 L79.48276 196.34444 L79.52122 196.73469 L79.73519 198.62988 L79.84825 199.00435 L80.47834 200.80194 L80.66485 201.14834 L81.67602 202.75622 L81.92420 203.05891 L83.26830 204.40300 L83.57098 204.65118 L85.17886 205.66235 L85.52527 205.84886 L87.32286 206.47896 L87.69732 206.59201 L89.59251 206.80598 L89.98276 206.84444 L94.62674 206.84444 L94.43046 206.94953 L92.32362 207.60368 L90.15425 207.84317 L89.24634 207.77034 L87.50136 207.57333 L86.93941 207.40190 L85.14183 206.77181 L84.62331 206.49389 L83.01542 205.48272 L82.56088 205.11042 L81.21678 203.76632 L80.84449 203.31178 L79.83332 201.70390 L79.55540 201.18538 L78.92530 199.38779 L78.75388 198.82585 L78.53990 196.93065 L78.48276 196.34444 z"/>
<path fill="#000000" stroke="#000000" d="M99.80472 206.84444 L120.12674 206.84444 L119.93046 206.94953 L117.82362 207.60368 L115.65425 207.84317 L113.48062 207.66882 L113.44957 207.84444 L99.62792 207.84444 z"/>
<path fill="#000000" stroke="#000000" d="M125.30472 206.84444 L145.62674 206.84444 L145.43046 206.94953 L143.32362 207.60368 L141.15425 207.84317 L138.98062 207.66882 L138.94957 207.84444 L125.12792 207.84444 z"/>
<path fill="#000000" stroke="#000000" d="M79.48276 119.84444 L79.52122 119.45420 L79.73519 117.55900 L79.84825 117.18454 L80.47834 115.38695 L80.66485 115.04055 L81.67602 113.43267 L81.92420 113.12998 L83.26830 111.78589 L83.57098 111.53771 L85.17886 110.52654 L85.52527 110.34002 L87.32286 109.70993 L87.69732 109.59688 L89.59251 109.38291 L89.98276 109.34444 L166.48276 109.34444 L166.87300 109.38291 L168.76820 109.59688 L169.14266 109.70993 L170.94025 110.34002 L171.28665 110.52654 L172.89454 111.53771 L173.19722 111.78589 L174.54132 113.12998 L174.78950 113.43267 L175.80067 115.04055 L175.98718 115.38695 L176.61727 117.18454 L176.73032 117.55900 L176.94430 119.45420 L176.98276 119.84444 L176.98276 126.21810 L176.12188 126.06589 L175.95386 126.36734 L174.54099 128.04901 L172.84285 129.42564 L170.93046 130.44953 L168.82362 131.10368 L166.65425 131.34317 L164.48062 131.16882 L164.21881 132.64968 L175.54318 134.65182 L176.98276 126.50936 L176.98276 151.71810 L176.12188 151.56589 L175.95386 151.86734 L174.54099 153.54901 L172.84285 154.92564 L170.93046 155.94953 L168.82362 156.60368 L166.65425 156.84317 L164.48062 156.66882 L164.21881 158.14968 L175.54318 160.15182 L176.98276 152.00936 L176.98276 177.21810 L176.12188 177.06589 L175.95386 177.36734 L174.54099 179.04901 L172.84285 180.42564 L170.93046 181.44953 L168.82362 182.10368 L166.65425 182.34317 L164.48062 182.16882 L164.21881 183.64968 L175.54318 185.65182 L176.98276 177.50936 L176.98276 196.34444 L176.94430 196.73469 L176.73032 198.62988 L176.61727 199.00435 L175.98718 200.80194 L175.80067 201.14834 L174.78950 202.75622 L174.54132 203.05891 L173.19722 204.40300 L172.89454 204.65118 L171.28665 205.66235 L170.94025 205.84886 L169.14266 206.47896 L168.76820 206.59201 L166.87300 206.80598 L166.48276 206.84444 L150.80472 206.84444 L151.53269 202.72693 L150.62188 202.56589 L150.45386 202.86734 L149.04099 204.54901 L147.34285 205.92564 L145.62674 206.84444 L125.30472 206.84444 L126.03269 202.72693 L125.12188 202.56589 L124.95386 202.86734 L123.54099 204.54901 L121.84285 205.92564 L120.12674 206.84444 L99.80472 206.84444 L100.53269 202.72693 L99.62188 202.56589 L99.45386 202.86734 L98.04099 204.54901 L96.34285 205.92564 L94.62674 206.84444 L89.98276 206.84444 L89.59251 206.80598 L87.69732 206.59201 L87.32286 206.47896 L85.52527 205.84886 L85.17886 205.66235 L83.57098 204.65118 L83.26830 204.40300 L81.92420 203.05891 L81.67602 202.75622 L80.66485 201.14834 L80.47834 200.80194 L79.84825 199.00435 L79.73519 198.62988 L79.52122 196.73469 L79.48276 196.34444 z M173.23218 119.75581 L172.99624 118.07326 L172.35351 116.51325 L171.33540 115.15249 L170.01914 114.09497 L168.47641 113.39558 L166.82115 113.10293 L165.13213 113.23095 L163.53307 113.77305 L162.11010 114.70223 L160.97144 115.94728 L160.17289 117.44694 L159.77544 119.08660 L159.79713 120.77442 L160.23993 122.41146 L161.08002 123.89079 L162.24696 125.09997 L163.68627 125.98791 L165.30759 126.49136 L167.00324 126.57435 L168.65976 126.23375 L170.17056 125.49799 L171.46696 124.39639 L172.44423 123.01041 L173.04333 121.43235 z M173.23218 145.25581 L172.99624 143.57326 L172.35351 142.01325 L171.33540 140.65249 L170.01914 139.59497 L168.47641 138.89558 L166.82115 138.60293 L165.13213 138.73095 L163.53307 139.27305 L162.11010 140.20223 L160.97144 141.44728 L160.17289 142.94694 L159.77544 144.58660 L159.79713 146.27442 L160.23993 147.91146 L161.08002 149.39079 L162.24696 150.59997 L163.68627 151.48791 L165.30759 151.99136 L167.00324 152.07435 L168.65976 151.73375 L170.17056 150.99799 L171.46696 149.89639 L172.44423 148.51041 L173.04333 146.93235 z M173.23218 170.75581 L172.99624 169.07326 L172.35351 167.51325 L171.33540 166.15249 L170.01914 165.09497 L168.47641 164.39558 L166.82115 164.10293 L165.13213 164.23095 L163.53307 164.77305 L162.11010 165.70223 L160.97144 166.94728 L160.17289 168.44694 L159.77544 170.08660 L159.79713 171.77442 L160.23993 173.41146 L161.08002 174.89079 L162.24696 176.09997 L163.68627 176.98791 L165.30759 177.49136 L167.00324 177.57435 L168.65976 177.23375 L170.17056 176.49799 L171.46696 175.39639 L172.44423 174.01041 L173.04333 172.43235 z M173.23218 196.25581 L172.99624 194.57326 L172.35351 193.01325 L171.33540 191.65249 L170.01914 190.59497 L168.47641 189.89558 L166.82115 189.60293 L165.13213 189.73095 L163.53307 190.27305 L162.11010 191.20223 L160.97144 192.44728 L160.17289 193.94694 L159.77544 195.58660 L159.79713 197.27442 L160.23993 198.91146 L161.08002 200.39079 L162.24696 201.59997 L163.68627 202.48791 L165.30759 202.99136 L167.00324 203.07435 L168.65976 202.73375 L170.17056 201.99799 L171.46696 200.89639 L172.44423 199.51041 L173.04333 197.93235 z M147.73218 119.75581 L147.49624 118.07326 L146.85351 116.51325 L145.83540 115.15249 L144.51914 114.09497 L142.97641 113.39558 L141.32115 113.10293 L139.63213 113.23095 L138.03307 113.77305 L136.61010 114.70223 L135.47144 115.94728 L134.67289 117.44694 L134.27544 119.08660 L134.29713 120.77442 L134.73993 122.41146 L135.58002 123.89079 L136.74696 125.09997 L138.18627 125.98791 L139.80759 126.49136 L141.50324 126.57435 L143.15976 126.23375 L144.67056 125.49799 L145.96696 124.39639 L146.94423 123.01041 L147.54333 121.43235 z M147.73218 145.25581 L147.49624 143.57326 L146.85351 142.01325 L145.83540 140.65249 L144.51914 139.59497 L142.97641 138.89558 L141.32115 138.60293 L139.63213 138.73095 L138.03307 139.27305 L136.61010 140.20223 L135.47144 141.44728 L134.67289 142.94694 L134.27544 144.58660 L134.29713 146.27442 L134.73993 147.91146 L135.58002 149.39079 L136.74696 150.59997 L138.18627 151.48791 L139.80759 151.99136 L141.50324 152.07435 L143.15976 151.73375 L144.67056 150.99799 L145.96696 149.89639 L146.94423 148.51041 L147.54333 146.93235 z M151.53269 126.22693 L150.62188 126.06589 L150.45386 126.36734 L149.04099 128.04901 L147.34285 129.42564 L145.43046 130.44953 L143.32362 131.10368 L141.15425 131.34317 L138.98062 131.16882 L138.71881 132.64968 L150.04318 134.65182 z M147.73218 170.75581 L147.49624 169.07326 L146.85351 167.51325 L145.83540 166.15249 L144.51914 165.09497 L142.97641 164.39558 L141.32115 164.10293 L139.63213 164.23095 L138.03307 164.77305 L136.61010 165.70223 L135.47144 166.94728 L134.67289 168.44694 L134.27544 170.08660 L134.29713 171.77442 L134.73993 173.41146 L135.58002 174.89079 L136.74696 176.09997 L138.18627 176.98791 L139.80759 177.49136 L141.50324 177.57435 L143.15976 177.23375 L144.67056 176.49799 L145.96696 175.39639 L146.94423 174.01041 L147.54333 172.43235 z M151.53269 151.72693 L150.62188 151.56589 L150.45386 151.86734 L149.04099 153.54901 L147.34285 154.92564 L145.43046 155.94953 L143.32362 156.60368 L141.15425 156.84317 L138.98062 156.66882 L138.71881 158.14968 L150.04318 160.15182 z M147.73218 196.25581 L147.49624 194.57326 L146.85351 193.01325 L145.83540 191.65249 L144.51914 190.59497 L142.97641 189.89558 L141.32115 189.60293 L139.63213 189.73095 L138.03307 190.27305 L136.61010 191.20223 L135.47144 192.44728 L134.67289 193.94694 L134.27544 195.58660 L134.29713 197.27442 L134.73993 198.91146 L135.58002 200.39079 L136.74696 201.59997 L138.18627 202.48791 L139.80759 202.99136 L141.50324 203.07435 L143.15976 202.73375 L144.67056 201.99799 L145.96696 200.89639 L146.94423 199.51041 L147.54333 197.93235 z M151.53269 177.22693 L150.62188 177.06589 L150.45386 177.36734 L149.04099 179.04901 L147.34285 180.42564 L145.43046 181.44953 L143.32362 182.10368 L141.15425 182.34317 L138.98062 182.16882 L138.71881 183.64968 L150.04318 185.65182 z M122.23218 119.75581 L121.99624 118.07326 L121.35351 116.51325 L120.33540 115.15249 L119.01914 114.09497 L117.47641 113.39558 L115.82115 113.10293 L114.13213 113.23095 L112.53307 113.77305 L111.11010 114.70223 L109.97144 115.94728 L109.17289 117.44694 L108.77544 119.08660 L108.79713 120.77442 L109.23993 122.41146 L110.08002 123.89079 L111.24696 125.09997 L112.68627 125.98791 L114.30759 126.49136 L116.00324 126.57435 L117.65976 126.23375 L119.17056 125.49799 L120.46696 124.39639 L121.44423 123.01041 L122.04333 121.43235 z M122.23218 145.25581 L121.99624 143.57326 L121.35351 142.01325 L120.33540 140.65249 L119.01914 139.59497 L117.47641 138.89558 L115.82115 138.60293 L114.13213 138.73095 L112.53307 139.27305 L111.11010 140.20223 L109.97144 141.44728 L109.17289 142.94694 L108.77544 144.58660 L108.79713 146.27442 L109.23993 147.91146 L110.08002 149.39079 L111.24696 150.59997 L112.68627 151.48791 L114.30759 151.99136 L116.00324 152.07435 L117.65976 151.73375 L119.17056 150.99799 L120.46696 149.89639 L121.44423 148.51041 L122.04333 146.93235 z M126.03269 126.22693 L125.12188 126.06589 L124.95386 126.36734 L123.54099 128.04901 L121.84285 129.42564 L119.93046 130.44953 L117.82362 131.10368 L115.65425 131.34317 L113.48062 131.16882 L113.21881 132.64968 L124.54318 134.65182 z M122.23218 170.75581 L121.99624 169.07326 L121.35351 167.51325 L120.33540 166.15249 L119.01914 165.09497 L117.47641 164.39558 L115.82115 164.10293 L114.13213 164.23095 L112.53307 164.77305 L111.11010 165.70223 L109.97144 166.94728 L109.17289 168.44694 L108.77544 170.08660 L108.79713 171.77442 L109.23993 173.41146 L110.08002 174.89079 L111.24696 176.09997 L112.68627 176.98791 L114.30759 177.49136 L116.00324 177.57435 L117.65976 177.23375 L119.17056 176.49799 L120.46696 175.39639 L121.44423 174.01041 L122.04333 172.43235 z M126.03269 151.72693 L125.12188 151.56589 L124.95386 151.86734 L123.54099 153.54901 L121.84285 154.92564 L119.93046 155.94953 L117.82362 156.60368 L115.65425 156.84317 L113.48062 156.66882 L113.21881 158.14968 L124.54318 160.15182 z M122.23218 196.25581 L121.99624 194.57326 L121.35351 193.01325 L120.33540 191.65249 L119.01914 190.59497 L117.47641 189.89558 L115.82115 189.60293 L114.13213 189.73095 L112.53307 190.27305 L111.11010 191.20223 L109.97144 192.44728 L109.17289 193.94694 L108.77544 195.58660 L108.79713 197.27442 L109.23993 198.91146 L110.08002 200.39079 L111.24696 201.59997 L112.68627 202.48791 L114.30759 202.99136 L116.00324 203.07435 L117.65976 202.73375 L119.17056 201.99799 L120.46696 200.89639 L121.44423 199.51041 L122.04333 197.93235 z M126.03269 177.22693 L125.12188 177.06589 L124.95386 177.36734 L123.54099 179.04901 L121.84285 180.42564 L119.93046 181.44953 L117.82362 182.10368 L115.65425 182.34317 L113.48062 182.16882 L113.21881 183.64968 L124.54318 185.65182 z M96.73218 119.75581 L96.49624 118.07326 L95.85351 116.51325 L94.83540 115.15249 L93.51914 114.09497 L91.97641 113.39558 L90.32115 113.10293 L88.63213 113.23095 L87.03307 113.77305 L85.61010 114.70223 L84.47144 115.94728 L83.67289 117.44694 L83.27544 119.08660 L83.29713 120.77442 L83.73993 122.41146 L84.58002 123.89079 L85.74696 125.09997 L87.18627 125.98791 L88.80759 126.49136 L90.50324 126.57435 L92.15976 126.23375 L93.67056 125.49799 L94.96696 124.39639 L95.94423 123.01041 L96.54333 121.43235 z M96.73218 145.25581 L96.49624 143.57326 L95.85351 142.01325 L94.83540 140.65249 L93.51914 139.59497 L91.97641 138.89558 L90.32115 138.60293 L88.63213 138.73095 L87.03307 139.27305 L85.61010 140.20223 L84.47144 141.44728 L83.67289 142.94694 L83.27544 144.58660 L83.29713 146.27442 L83.73993 147.91146 L84.58002 149.39079 L85.74696 150.59997 L87.18627 151.48791 L88.80759 151.99136 L90.50324 152.07435 L92.15976 151.73375 L93.67056 150.99799 L94.96696 149.89639 L95.94423 148.51041 L96.54333 146.93235 z M100.53269 126.22693 L99.62188 126.06589 L99.45386 126.36734 L98.04099 128.04901 L96.34285 129.42564 L94.43046 130.44953 L92.32362 131.10368 L90.15425 131.34317 L87.98062 131.16882 L87.71881 132.64968 L99.04318 134.65182 z M96.73218 170.75581 L96.49624 169.07326 L95.85351 167.51325 L94.83540 166.15249 L93.51914 165.09497 L91.97641 164.39558 L90.32115 164.10293 L88.63213 164.23095 L87.03307 164.77305 L85.61010 165.70223 L84.47144 166.94728 L83.67289 168.44694 L83.27544 170.08660 L83.29713 171.77442 L83.73993 173.41146 L84.58002 174.89079 L85.74696 176.09997 L87.18627 176.98791 L88.80759 177.49136 L90.50324 177.57435 L92.15976 177.23375 L93.67056 176.49799 L94.96696 175.39639 L95.94423 174.01041 L96.54333 172.43235 z M100.53269 151.72693 L99.62188 151.56589 L99.45386 151.86734 L98.04099 153.54901 L96.34285 154.92564 L94.43046 155.94953 L92.32362 156.60368 L90.15425 156.84317 L87.98062 156.66882 L87.71881 158.14968 L99.04318 160.15182 z M96.73218 196.25581 L96.49624 194.57326 L95.85351 193.01325 L94.83540 191.65249 L93.51914 190.59497 L91.97641 189.89558 L90.32115 189.60293 L88.63213 189.73095 L87.03307 190.27305 L85.61010 191.20223 L84.47144 192.44728 L83.67289 193.94694 L83.27544 195.58660 L83.29713 197.27442 L83.73993 198.91146 L84.58002 200.39079 L85.74696 201.59997 L87.18627 202.48791 L88.80759 202.99136 L90.50324 203.07435 L92.15976 202.73375 L93.67056 201.99799 L94.96696 200.89639 L95.94423 199.51041 L96.54333 197.93235 z M100.53269 177.22693 L99.62188 177.06589 L99.45386 177.36734 L98.04099 179.04901 L96.34285 180.42564 L94.43046 181.44953 L92.32362 182.10368 L90.15425 182.34317 L87.98062 182.16882 L87.71881 183.64968 L99.04318 185.65182 z"/>
<path fill="#000000" stroke="#000000" d="M83.27544 144.58660 L83.67289 142.94694 L84.47144 141.44728 L85.61010 140.20223 L87.03307 139.27305 L88.63213 138.73095 L90.32115 138.60293 L91.97641 138.89558 L93.51914 139.59497 L94.83540 140.65249 L95.85351 142.01325 L96.49624 143.57326 L96.73218 145.25581 L96.54333 146.93235 L95.94423 148.51041 L94.96696 149.89639 L93.67056 150.99799 L92.15976 151.73375 L90.50324 152.07435 L88.80759 151.99136 L87.18627 151.48791 L85.74696 150.59997 L84.58002 149.39079 L83.73993 147.91146 L83.29713 146.27442 z M95.70045 145.95310 L95.65326 144.39160 L95.18728 142.89997 L94.32889 141.57965 L93.16165 140.55308 L91.74311 139.87054 L90.20602 139.59878 L88.63944 139.75356 L87.19097 140.31767 L85.93190 141.26363 L84.98272 142.50506 L84.40298 143.95572 L84.23525 145.51360 L84.49337 147.05592 L85.15913 148.47415 L86.18694 149.66350 L87.48625 150.52421 L88.98169 151.00663 L90.55189 151.06621 L92.06755 150.70319 L93.44086 149.93836 L94.55254 148.83437 L95.32385 147.47405 z"/>
<path fill="#000000" stroke="#000000" d="M95.32385 147.47405 L94.55254 148.83437 L93.44086 149.93836 L92.06755 150.70319 L90.55189 151.06621 L88.98169 151.00663 L87.48625 150.52421 L86.18694 149.66350 L85.15913 148.47415 L84.49337 147.05592 L84.23525 145.51360 L84.40298 143.95572 L84.98272 142.50506 L85.93190 141.26363 L87.19097 140.31767 L88.63944 139.75356 L90.20602 139.59878 L91.74311 139.87054 L93.16165 140.55308 L94.32889 141.57965 L95.18728 142.89997 L95.65326 144.39160 L95.70045 145.95310 z"/>
<path fill="#000000" stroke="#000000" d="M99.04318 160.15182 L87.71881 158.14968 L87.98062 156.66882 L90.15425 156.84317 L92.32362 156.60368 L94.43046 155.94953 L96.34285 154.92564 L98.04099 153.54901 L99.45386 151.86734 L99.62188 151.56589 L100.53269 151.72693 z"/>
<path fill="#000000" stroke="#000000" d="M108.77544 144.58660 L109.17289 142.94694 L109.97144 141.44728 L111.11010 140.20223 L112.53307 139.27305 L114.13213 138.73095 L115.82115 138.60293 L117.47641 138.89558 L119.01914 139.59497 L120.33540 140.65249 L121.35351 142.01325 L121.99624 143.57326 L122.23218 145.25581 L122.04333 146.93235 L121.44423 148.51041 L120.46696 149.89639 L119.17056 150.99799 L117.65976 151.73375 L116.00324 152.07435 L114.30759 151.99136 L112.68627 151.48791 L111.24696 150.59997 L110.08002 149.39079 L109.23993 147.91146 L108.79713 146.27442 z M121.20045 145.95310 L121.15326 144.39160 L120.68728 142.89997 L119.82889 141.57965 L118.66165 140.55308 L117.24311 139.87054 L115.70602 139.59878 L114.13944 139.75356 L112.69097 140.31767 L111.43190 141.26363 L110.48272 142.50506 L109.90298 143.95572 L109.73525 145.51360 L109.99337 147.05592 L110.65913 148.47415 L111.68694 149.66350 L112.98625 150.52421 L114.48169 151.00663 L116.05189 151.06621 L117.56755 150.70319 L118.94086 149.93836 L120.05254 148.83437 L120.82385 147.47405 z"/>
<path fill="#000000" stroke="#000000" d="M120.82385 147.47405 L120.05254 148.83437 L118.94086 149.93836 L117.56755 150.70319 L116.05189 151.06621 L114.48169 151.00663 L112.98625 150.52421 L111.68694 149.66350 L110.65913 148.47415 L109.99337 147.05592 L109.73525 145.51360 L109.90298 143.95572 L110.48272 142.50506 L111.43190 141.26363 L112.69097 140.31767 L114.13944 139.75356 L115.70602 139.59878 L117.24311 139.87054 L118.66165 140.55308 L119.82889 141.57965 L120.68728 142.89997 L121.15326 144.39160 L121.20045 145.95310 z"/>
<path fill="#000000" stroke="#000000" d="M124.54318 160.15182 L113.21881 158.14968 L113.48062 156.66882 L115.65425 156.84317 L117.82362 156.60368 L119.93046 155.94953 L121.84285 154.92564 L123.54099 153.54901 L124.95386 151.86734 L125.12188 151.56589 L126.03269 151.72693 z"/>
<path fill="#000000" stroke="#000000" d="M134.27544 144.58660 L134.67289 142.94694 L135.47144 141.44728 L136.61010 140.20223 L138.03307 139.27305 L139.63213 138.73095 L141.32115 138.60293 L142.97641 138.89558 L144.51914 139.59497 L145.83540 140.65249 L146.85351 142.01325 L147.49624 143.57326 L147.73218 145.25581 L147.54333 146.93235 L146.94423 148.51041 L145.96696 149.89639 L144.67056 150.99799 L143.15976 151.73375 L141.50324 152.07435 L139.80759 151.99136 L138.18627 151.48791 L136.74696 150.59997 L135.58002 149.39079 L134.73993 147.91146 L134.29713 146.27442 z M146.70045 145.95310 L146.65326 144.39160 L146.18728 142.89997 L145.32889 141.57965 L144.16165 140.55308 L142.74311 139.87054 L141.20602 139.59878 L139.63944 139.75356 L138.19097 140.31767 L136.93190 141.26363 L135.98272 142.50506 L135.40298 143.95572 L135.23525 145.51360 L135.49337 147.05592 L136.15913 148.47415 L137.18694 149.66350 L138.48625 150.52421 L139.98169 151.00663 L141.55189 151.06621 L143.06755 150.70319 L144.44086 149.93836 L145.55254 148.83437 L146.32385 147.47405 z"/>
<path fill="#000000" stroke="#000000" d="M146.32385 147.47405 L145.55254 148.83437 L144.44086 149.93836 L143.06755 150.70319 L141.55189 151.06621 L139.98169 151.00663 L138.48625 150.52421 L137.18694 149.66350 L136.15913 148.47415 L135.49337 147.05592 L135.23525 145.51360 L135.40298 143.95572 L135.98272 142.50506 L136.93190 141.26363 L138.19097 140.31767 L139.63944 139.75356 L141.20602 139.59878 L142.74311 139.87054 L144.16165 140.55308 L145.32889 141.57965 L146.18728 142.89997 L146.65326 144.39160 L146.70045 145.95310 z"/>
<path fill="#000000" stroke="#000000" d="M150.04318 160.15182 L138.71881 158.14968 L138.98062 156.66882 L141.15425 156.84317 L143.32362 156.60368 L145.43046 155.94953 L147.34285 154.92564 L149.04099 153.54901 L150.45386 151.86734 L150.62188 151.56589 L151.53269 151.72693 z"/>
<path fill="#000000" stroke="#000000" d="M159.77544 144.58660 L160.17289 142.94694 L160.97144 141.44728 L162.11010 140.20223 L163.53307 139.27305 L165.13213 138.73095 L166.82115 138.60293 L168.47641 138.89558 L170.01914 139.59497 L171.33540 140.65249 L172.35351 142.01325 L172.99624 143.57326 L173.23218 145.25581 L173.04333 146.93235 L172.44423 148.51041 L171.46696 149.89639 L170.17056 150.99799 L168.65976 151.73375 L167.00324 152.07435 L165.30759 151.99136 L163.68627 151.48791 L162.24696 150.59997 L161.08002 149.39079 L160.23993 147.91146 L159.79713 146.27442 z M172.20045 145.95310 L172.15326 144.39160 L171.68728 142.89997 L170.82889 141.57965 L169.66165 140.55308 L168.24311 139.87054 L166.70602 139.59878 L165.13944 139.75356 L163.69097 140.31767 L162.43190 141.26363 L161.48272 142.50506 L160.90298 143.95572 L160.73525 145.51360 L160.99337 147.05592 L161.65913 148.47415 L162.68694 149.66350 L163.98625 150.52421 L165.48169 151.00663 L167.05189 151.06621 L168.56755 150.70319 L169.94086 149.93836 L171.05254 148.83437 L171.82385 147.47405 z"/>
<path fill="#000000" stroke="#000000" d="M171.82385 147.47405 L171.05254 148.83437 L169.94086 149.93836 L168.56755 150.70319 L167.05189 151.06621 L165.48169 151.00663 L163.98625 150.52421 L162.68694 149.66350 L161.65913 148.47415 L160.99337 147.05592 L160.73525 145.51360 L160.90298 143.95572 L161.48272 142.50506 L162.43190 141.26363 L163.69097 140.31767 L165.13944 139.75356 L166.70602 139.59878 L168.24311 139.87054 L169.66165 140.55308 L170.82889 141.57965 L171.68728 142.89997 L172.15326 144.39160 L172.20045 145.95310 z"/>
<path fill="#000000" stroke="#000000" d="M175.54318 160.15182 L164.21881 158.14968 L164.48062 156.66882 L166.65425 156.84317 L168.82362 156.60368 L170.93046 155.94953 L172.84285 154.92564 L174.54099 153.54901 L175.95386 151.86734 L176.12188 151.56589 L177.03269 151.72693 z"/>
<path fill="#000000" stroke="#000000" d="M83.27544 119.08660 L83.67289 117.44694 L84.47144 115.94728 L85.61010 114.70223 L87.03307 113.77305 L88.63213 113.23095 L90.32115 113.10293 L91.97641 113.39558 L93.51914 114.09497 L94.83540 115.15249 L95.85351 116.51325 L96.49624 118.07326 L96.73218 119.75581 L96.54333 121.43235 L95.94423 123.01041 L94.96696 124.39639 L93.67056 125.49799 L92.15976 126.23375 L90.50324 126.57435 L88.80759 126.49136 L87.18627 125.98791 L85.74696 125.09997 L84.58002 123.89079 L83.73993 122.41146 L83.29713 120.77442 z M95.70045 120.45310 L95.65326 118.89160 L95.18728 117.39997 L94.32889 116.07965 L93.16165 115.05308 L91.74311 114.37054 L90.20602 114.09878 L88.63944 114.25356 L87.19097 114.81767 L85.93190 115.76363 L84.98272 117.00506 L84.40298 118.45572 L84.23525 120.01360 L84.49337 121.55592 L85.15913 122.97415 L86.18694 124.16350 L87.48625 125.02421 L88.98169 125.50663 L90.55189 125.56621 L92.06755 125.20319 L93.44086 124.43836 L94.55254 123.33437 L95.32385 121.97405 z"/>
<path fill="#000000" stroke="#000000" d="M95.32385 121.97405 L94.55254 123.33437 L93.44086 124.43836 L92.06755 125.20319 L90.55189 125.56621 L88.98169 125.50663 L87.48625 125.02421 L86.18694 124.16350 L85.15913 122.97415 L84.49337 121.55592 L84.23525 120.01360 L84.40298 118.45572 L84.98272 117.00506 L85.93190 115.76363 L87.19097 114.81767 L88.63944 114.25356 L90.20602 114.09878 L91.74311 114.37054 L93.16165 115.05308 L94.32889 116.07965 L95.18728 117.39997 L95.65326 118.89160 L95.70045 120.45310 z"/>
<path fill="#000000" stroke="#000000" d="M99.04318 134.65182 L87.71881 132.64968 L87.98062 131.16882 L90.15425 131.34317 L92.32362 131.10368 L94.43046 130.44953 L96.34285 129.42564 L98.04099 128.04901 L99.45386 126.36734 L99.62188 126.06589 L100.53269 126.22693 z"/>
<path fill="#000000" stroke="#000000" d="M108.77544 119.08660 L109.17289 117.44694 L109.97144 115.94728 L111.11010 114.70223 L112.53307 113.77305 L114.13213 113.23095 L115.82115 113.10293 L117.47641 113.39558 L119.01914 114.09497 L120.33540 115.15249 L121.35351 116.51325 L121.99624 118.07326 L122.23218 119.75581 L122.04333 121.43235 L121.44423 123.01041 L120.46696 124.39639 L119.17056 125.49799 L117.65976 126.23375 L116.00324 126.57435 L114.30759 126.49136 L112.68627 125.98791 L111.24696 125.09997 L110.08002 123.89079 L109.23993 122.41146 L108.79713 120.77442 z M121.20045 120.45310 L121.15326 118.89160 L120.68728 117.39997 L119.82889 116.07965 L118.66165 115.05308 L117.24311 114.37054 L115.70602 114.09878 L114.13944 114.25356 L112.69097 114.81767 L111.43190 115.76363 L110.48272 117.00506 L109.90298 118.45572 L109.73525 120.01360 L109.99337 121.55592 L110.65913 122.97415 L111.68694 124.16350 L112.98625 125.02421 L114.48169 125.50663 L116.05189 125.56621 L117.56755 125.20319 L118.94086 124.43836 L120.05254 123.33437 L120.82385 121.97405 z"/>
<path fill="#000000" stroke="#000000" d="M120.82385 121.97405 L120.05254 123.33437 L118.94086 124.43836 L117.56755 125.20319 L116.05189 125.56621 L114.48169 125.50663 L112.98625 125.02421 L111.68694 124.16350 L110.65913 122.97415 L109.99337 121.55592 L109.73525 120.01360 L109.90298 118.45572 L110.48272 117.00506 L111.43190 115.76363 L112.69097 114.81767 L114.13944 114.25356 L115.70602 114.09878 L117.24311 114.37054 L118.66165 115.05308 L119.82889 116.07965 L120.68728 117.39997 L121.15326 118.89160 L121.20045 120.45310 z"/>
<path fill="#000000" stroke="#000000" d="M124.54318 134.65182 L113.21881 132.64968 L113.48062 131.16882 L115.65425 131.34317 L117.82362 131.10368 L119.93046 130.44953 L121.84285 129.42564 L123.54099 128.04901 L124.95386 126.36734 L125.12188 126.06589 L126.03269 126.22693 z"/>
<path fill="#000000" stroke="#000000" d="M134.27544 119.08660 L134.67289 117.44694 L135.47144 115.94728 L136.61010 114.70223 L138.03307 113.77305 L139.63213 113.23095 L141.32115 113.10293 L142.97641 113.39558 L144.51914 114.09497 L145.83540 115.15249 L146.85351 116.51325 L147.49624 118.07326 L147.73218 119.75581 L147.54333 121.43235 L146.94423 123.01041 L145.96696 124.39639 L144.67056 125.49799 L143.15976 126.23375 L141.50324 126.57435 L139.80759 126.49136 L138.18627 125.98791 L136.74696 125.09997 L135.58002 123.89079 L134.73993 122.41146 L134.29713 120.77442 z M146.70045 120.45310 L146.65326 118.89160 L146.18728 117.39997 L145.32889 116.07965 L144.16165 115.05308 L142.74311 114.37054 L141.20602 114.09878 L139.63944 114.25356 L138.19097 114.81767 L136.93190 115.76363 L135.98272 117.00506 L135.40298 118.45572 L135.23525 120.01360 L135.49337 121.55592 L136.15913 122.97415 L137.18694 124.16350 L138.48625 125.02421 L139.98169 125.50663 L141.55189 125.56621 L143.06755 125.20319 L144.44086 124.43836 L145.55254 123.33437 L146.32385 121.97405 z"/>
<path fill="#000000" stroke="#000000" d="M146.32385 121.97405 L145.55254 123.33437 L144.44086 124.43836 L143.06755 125.20319 L141.55189 125.56621 L139.98169 125.50663 L138.48625 125.02421 L137.18694 124.16350 L136.15913 122.97415 L135.49337 121.55592 L135.23525 120.01360 L135.40298 118.45572 L135.98272 117.00506 L136.93190 115.76363 L138.19097 114.81767 L139.63944 114.25356 L141.20602 114.09878 L142.74311 114.37054 L144.16165 115.05308 L145.32889 116.07965 L146.18728 117.39997 L146.65326 118.89160 L146.70045 120.45310 z"/>
<path fill="#000000" stroke="#000000" d="M150.04318 134.65182 L138.71881 132.64968 L138.98062 131.16882 L141.15425 131.34317 L143.32362 131.10368 L145.43046 130.44953 L147.34285 129.42564 L149.04099 128.04901 L150.45386 126.36734 L150.62188 126.06589 L151.53269 126.22693 z"/>
<path fill="#000000" stroke="#000000" d="M159.77544 119.08660 L160.17289 117.44694 L160.97144 115.94728 L162.11010 114.70223 L163.53307 113.77305 L165.13213 113.23095 L166.82115 113.10293 L168.47641 113.39558 L170.01914 114.09497 L171.33540 115.15249 L172.35351 116.51325 L172.99624 118.07326 L173.23218 119.75581 L173.04333 121.43235 L172.44423 123.01041 L171.46696 124.39639 L170.17056 125.49799 L168.65976 126.23375 L167.00324 126.57435 L165.30759 126.49136 L163.68627 125.98791 L162.24696 125.09997 L161.08002 123.89079 L160.23993 122.41146 L159.79713 120.77442 z M172.20045 120.45310 L172.15326 118.89160 L171.68728 117.39997 L170.82889 116.07965 L169.66165 115.05308 L168.24311 114.37054 L166.70602 114.09878 L165.13944 114.25356 L163.69097 114.81767 L162.43190 115.76363 L161.48272 117.00506 L160.90298 118.45572 L160.73525 120.01360 L160.99337 121.55592 L161.65913 122.97415 L162.68694 124.16350 L163.98625 125.02421 L165.48169 125.50663 L167.05189 125.56621 L168.56755 125.20319 L169.94086 124.43836 L171.05254 123.33437 L171.82385 121.97405 z"/>
<path fill="#000000" stroke="#000000" d="M171.82385 121.97405 L171.05254 123.33437 L169.94086 124.43836 L168.56755 125.20319 L167.05189 125.56621 L165.48169 125.50663 L163.98625 125.02421 L162.68694 124.16350 L161.65913 122.97415 L160.99337 121.55592 L160.73525 120.01360 L160.90298 118.45572 L161.48272 117.00506 L162.43190 115.76363 L163.69097 114.81767 L165.13944 114.25356 L166.70602 114.09878 L168.24311 114.37054 L169.66165 115.05308 L170.82889 116.07965 L171.68728 117.39997 L172.15326 118.89160 L172.20045 120.45310 z"/>
<path fill="#000000" stroke="#000000" d="M175.54318 134.65182 L164.21881 132.64968 L164.48062 131.16882 L166.65425 131.34317 L168.82362 131.10368 L170.93046 130.44953 L172.84285 129.42564 L174.54099 128.04901 L175.95386 126.36734 L176.12188 126.06589 L177.03269 126.22693 z"/>
<path fill="#000000" stroke="#000000" d="M83.27544 170.08660 L83.67289 168.44694 L84.47144 166.94728 L85.61010 165.70223 L87.03307 164.77305 L88.63213 164.23095 L90.32115 164.10293 L91.97641 164.39558 L93.51914 165.09497 L94.83540 166.15249 L95.85351 167.51325 L96.49624 169.07326 L96.73218 170.75581 L96.54333 172.43235 L95.94423 174.01041 L94.96696 175.39639 L93.67056 176.49799 L92.15976 177.23375 L90.50324 177.57435 L88.80759 177.49136 L87.18627 176.98791 L85.74696 176.09997 L84.58002 174.89079 L83.73993 173.41146 L83.29713 171.77442 z M95.70045 171.45310 L95.65326 169.89160 L95.18728 168.39997 L94.32889 167.07965 L93.16165 166.05308 L91.74311 165.37054 L90.20602 165.09878 L88.63944 165.25356 L87.19097 165.81767 L85.93190 166.76363 L84.98272 168.00506 L84.40298 169.45572 L84.23525 171.01360 L84.49337 172.55592 L85.15913 173.97415 L86.18694 175.16350 L87.48625 176.02421 L88.98169 176.50663 L90.55189 176.56621 L92.06755 176.20319 L93.44086 175.43836 L94.55254 174.33437 L95.32385 172.97405 z"/>
<path fill="#000000" stroke="#000000" d="M95.32385 172.97405 L94.55254 174.33437 L93.44086 175.43836 L92.06755 176.20319 L90.55189 176.56621 L88.98169 176.50663 L87.48625 176.02421 L86.18694 175.16350 L85.15913 173.97415 L84.49337 172.55592 L84.23525 171.01360 L84.40298 169.45572 L84.98272 168.00506 L85.93190 166.76363 L87.19097 165.81767 L88.63944 165.25356 L90.20602 165.09878 L91.74311 165.37054 L93.16165 166.05308 L94.32889 167.07965 L95.18728 168.39997 L95.65326 169.89160 L95.70045 171.45310 z"/>
<path fill="#000000" stroke="#000000" d="M99.04318 185.65182 L87.71881 183.64968 L87.98062 182.16882 L90.15425 182.34317 L92.32362 182.10368 L94.43046 181.44953 L96.34285 180.42564 L98.04099 179.04901 L99.45386 177.36734 L99.62188 177.06589 L100.53269 177.22693 z"/>
<path fill="#000000" stroke="#000000" d="M108.77544 170.08660 L109.17289 168.44694 L109.97144 166.94728 L111.11010 165.70223 L112.53307 164.77305 L114.13213 164.23095 L115.82115 164.10293 L117.47641 164.39558 L119.01914 165.09497 L120.33540 166.15249 L121.35351 167.51325 L121.99624 169.07326 L122.23218 170.75581 L122.04333 172.43235 L121.44423 174.01041 L120.46696 175.39639 L119.17056 176.49799 L117.65976 177.23375 L116.00324 177.57435 L114.30759 177.49136 L112.68627 176.98791 L111.24696 176.09997 L110.08002 174.89079 L109.23993 173.41146 L108.79713 171.77442 z M121.20045 171.45310 L121.15326 169.89160 L120.68728 168.39997 L119.82889 167.07965 L118.66165 166.05308 L117.24311 165.37054 L115.70602 165.09878 L114.13944 165.25356 L112.69097 165.81767 L111.43190 166.76363 L110.48272 168.00506 L109.90298 169.45572 L109.73525 171.01360 L109.99337 172.55592 L110.65913 173.97415 L111.68694 175.16350 L112.98625 176.02421 L114.48169 176.50663 L116.05189 176.56621 L117.56755 176.20319 L118.94086 175.43836 L120.05254 174.33437 L120.82385 172.97405 z"/>
<path fill="#000000" stroke="#000000" d="M120.82385 172.97405 L120.05254 174.33437 L118.94086 175.43836 L117.56755 176.20319 L116.05189 176.56621 L114.48169 176.50663 L112.98625 176.02421 L111.68694 175.16350 L110.65913 173.97415 L109.99337 172.55592 L109.73525 171.01360 L109.90298 169.45572 L110.48272 168.00506 L111.43190 166.76363 L112.69097 165.81767 L114.13944 165.25356 L115.70602 165.09878 L117.24311 165.37054 L118.66165 166.05308 L119.82889 167.07965 L120.68728 168.39997 L121.15326 169.89160 L121.20045 171.45310 z"/>
<path fill="#000000" stroke="#000000" d="M124.54318 185.65182 L113.21881 183.64968 L113.48062 182.16882 L115.65425 182.34317 L117.82362 182.10368 L119.93046 181.44953 L121.84285 180.42564 L123.54099 179.04901 L124.95386 177.36734 L125.12188 177.06589 L126.03269 177.22693 z"/>
<path fill="#000000" stroke="#000000" d="M134.27544 170.08660 L134.67289 168.44694 L135.47144 166.94728 L136.61010 165.70223 L138.03307 164.77305 L139.63213 164.23095 L141.32115 164.10293 L142.97641 164.39558 L144.51914 165.09497 L145.83540 166.15249 L146.85351 167.51325 L147.49624 169.07326 L147.73218 170.75581 L147.54333 172.43235 L146.94423 174.01041 L145.96696 175.39639 L144.67056 176.49799 L143.15976 177.23375 L141.50324 177.57435 L139.80759 177.49136 L138.18627 176.98791 L136.74696 176.09997 L135.58002 174.89079 L134.73993 173.41146 L134.29713 171.77442 z M146.70045 171.45310 L146.65326 169.89160 L146.18728 168.39997 L145.32889 167.07965 L144.16165 166.05308 L142.74311 165.37054 L141.20602 165.09878 L139.63944 165.25356 L138.19097 165.81767 L136.93190 166.76363 L135.98272 168.00506 L135.40298 169.45572 L135.23525 171.01360 L135.49337 172.55592 L136.15913 173.97415 L137.18694 175.16350 L138.48625 176.02421 L139.98169 176.50663 L141.55189 176.56621 L143.06755 176.20319 L144.44086 175.43836 L145.55254 174.33437 L146.32385 172.97405 z"/>
<path fill="#000000" stroke="#000000" d="M146.32385 172.97405 L145.55254 174.33437 L144.44086 175.43836 L143.06755 176.20319 L141.55189 176.56621 L139.98169 176.50663 L138.48625 176.02421 L137.18694 175.16350 L136.15913 173.97415 L135.49337 172.55592 L135.23525 171.01360 L135.40298 169.45572 L135.98272 168.00506 L136.93190 166.76363 L138.19097 165.81767 L139.63944 165.25356 L141.20602 165.09878 L142.74311 165.37054 L144.16165 166.05308 L145.32889 167.07965 L146.18728 168.39997 L146.65326 169.89160 L146.70045 171.45310 z"/>
<path fill="#000000" stroke="#000000" d="M150.04318 185.65182 L138.71881 183.64968 L138.98062 182.16882 L141.15425 182.34317 L143.32362 182.10368 L145.43046 181.44953 L147.34285 180.42564 L149.04099 179.04901 L150.45386 177.36734 L150.62188 177.06589 L151.53269 177.22693 z"/>
<path fill="#000000" stroke="#000000" d="M159.77544 170.08660 L160.17289 168.44694 L160.97144 166.94728 L162.11010 165.70223 L163.53307 164.77305 L165.13213 164.23095 L166.82115 164.10293 L168.47641 164.39558 L170.01914 165.09497 L171.33540 166.15249 L172.35351 167.51325 L172.99624 169.07326 L173.23218 170.75581 L173.04333 172.43235 L172.44423 174.01041 L171.46696 175.39639 L170.17056 176.49799 L168.65976 177.23375 L167.00324 177.57435 L165.30759 177.49136 L163.68627 176.98791 L162.24696 176.09997 L161.08002 174.89079 L160.23993 173.41146 L159.79713 171.77442 z M172.20045 171.45310 L172.15326 169.89160 L171.68728 168.39997 L170.82889 167.07965 L169.66165 166.05308 L168.24311 165.37054 L166.70602 165.09878 L165.13944 165.25356 L163.69097 165.81767 L162.43190 166.76363 L161.48272 168.00506 L160.90298 169.45572 L160.73525 171.01360 L160.99337 172.55592 L161.65913 173.97415 L162.68694 175.16350 L163.98625 176.02421 L165.48169 176.50663 L167.05189 176.56621 L168.56755 176.20319 L169.94086 175.43836 L171.05254 174.33437 L171.82385 172.97405 z"/>
<path fill="#000000" stroke="#000000" d="M171.82385 172.97405 L171.05254 174.33437 L169.94086 175.43836 L168.56755 176.20319 L167.05189 176.56621 L165.48169 176.50663 L163.98625 176.02421 L162.68694 175.16350 L161.65913 173.97415 L160.99337 172.55592 L160.73525 171.01360 L160.90298 169.45572 L161.48272 168.00506 L162.43190 166.76363 L163.69097 165.81767 L165.13944 165.25356 L166.70602 165.09878 L168.24311 165.37054 L169.66165 166.05308 L170.82889 167.07965 L171.68728 168.39997 L172.15326 169.89160 L172.20045 171.45310 z"/>
<path fill="#000000" stroke="#000000" d="M175.54318 185.65182 L164.21881 183.64968 L164.48062 182.16882 L166.65425 182.34317 L168.82362 182.10368 L170.93046 181.44953 L172.84285 180.42564 L174.54099 179.04901 L175.95386 177.36734 L176.12188 177.06589 L177.03269 177.22693 z"/>
<path fill="#000000" stroke="#000000" d="M83.27544 195.58660 L83.67289 193.94694 L84.47144 192.44728 L85.61010 191.20223 L87.03307 190.27305 L88.63213 189.73095 L90.32115 189.60293 L91.97641 189.89558 L93.51914 190.59497 L94.83540 191.65249 L95.85351 193.01325 L96.49624 194.57326 L96.73218 196.25581 L96.54333 197.93235 L95.94423 199.51041 L94.96696 200.89639 L93.67056 201.99799 L92.15976 202.73375 L90.50324 203.07435 L88.80759 202.99136 L87.18627 202.48791 L85.74696 201.59997 L84.58002 200.39079 L83.73993 198.91146 L83.29713 197.27442 z M95.70045 196.95310 L95.65326 195.39160 L95.18728 193.89997 L94.32889 192.57965 L93.16165 191.55308 L91.74311 190.87054 L90.20602 190.59878 L88.63944 190.75356 L87.19097 191.31767 L85.93190 192.26363 L84.98272 193.50506 L84.40298 194.95572 L84.23525 196.51360 L84.49337 198.05592 L85.15913 199.47415 L86.18694 200.66350 L87.48625 201.52421 L88.98169 202.00663 L90.55189 202.06621 L92.06755 201.70319 L93.44086 200.93836 L94.55254 199.83437 L95.32385 198.47405 z"/>
<path fill="#000000" stroke="#000000" d="M95.32385 198.47405 L94.55254 199.83437 L93.44086 200.93836 L92.06755 201.70319 L90.55189 202.06621 L88.98169 202.00663 L87.48625 201.52421 L86.18694 200.66350 L85.15913 199.47415 L84.49337 198.05592 L84.23525 196.51360 L84.40298 194.95572 L84.98272 193.50506 L85.93190 192.26363 L87.19097 191.31767 L88.63944 190.75356 L90.20602 190.59878 L91.74311 190.87054 L93.16165 191.55308 L94.32889 192.57965 L95.18728 193.89997 L95.65326 195.39160 L95.70045 196.95310 z"/>
<path fill="#000000" stroke="#000000" d="M99.04318 211.15182 L87.71881 209.14968 L87.98062 207.66882 L90.15425 207.84317 L92.32362 207.60368 L94.43046 206.94953 L96.34285 205.92564 L98.04099 204.54901 L99.45386 202.86734 L99.62188 202.56589 L100.53269 202.72693 z"/>
<path fill="#000000" stroke="#000000" d="M108.77544 195.58660 L109.17289 193.94694 L109.97144 192.44728 L111.11010 191.20223 L112.53307 190.27305 L114.13213 189.73095 L115.82115 189.60293 L117.47641 189.89558 L119.01914 190.59497 L120.33540 191.65249 L121.35351 193.01325 L121.99624 194.57326 L122.23218 196.25581 L122.04333 197.93235 L121.44423 199.51041 L120.46696 200.89639 L119.17056 201.99799 L117.65976 202.73375 L116.00324 203.07435 L114.30759 202.99136 L112.68627 202.48791 L111.24696 201.59997 L110.08002 200.39079 L109.23993 198.91146 L108.79713 197.27442 z M121.20045 196.95310 L121.15326 195.39160 L120.68728 193.89997 L119.82889 192.57965 L118.66165 191.55308 L117.24311 190.87054 L115.70602 190.59878 L114.13944 190.75356 L112.69097 191.31767 L111.43190 192.26363 L110.48272 193.50506 L109.90298 194.95572 L109.73525 196.51360 L109.99337 198.05592 L110.65913 199.47415 L111.68694 200.66350 L112.98625 201.52421 L114.48169 202.00663 L116.05189 202.06621 L117.56755 201.70319 L118.94086 200.93836 L120.05254 199.83437 L120.82385 198.47405 z"/>
<path fill="#000000" stroke="#000000" d="M120.82385 198.47405 L120.05254 199.83437 L118.94086 200.93836 L117.56755 201.70319 L116.05189 202.06621 L114.48169 202.00663 L112.98625 201.52421 L111.68694 200.66350 L110.65913 199.47415 L109.99337 198.05592 L109.73525 196.51360 L109.90298 194.95572 L110.48272 193.50506 L111.43190 192.26363 L112.69097 191.31767 L114.13944 190.75356 L115.70602 190.59878 L117.24311 190.87054 L118.66165 191.55308 L119.82889 192.57965 L120.68728 193.89997 L121.15326 195.39160 L121.20045 196.95310 z"/>
<path fill="#000000" stroke="#000000" d="M124.54318 211.15182 L113.21881 209.14968 L113.48062 207.66882 L115.65425 207.84317 L117.82362 207.60368 L119.93046 206.94953 L121.84285 205.92564 L123.54099 204.54901 L124.95386 202.86734 L125.12188 202.56589 L126.03269 202.72693 z"/>
<path fill="#000000" stroke="#000000" d="M134.27544 195.58660 L134.67289 193.94694 L135.47144 192.44728 L136.61010 191.20223 L138.03307 190.27305 L139.63213 189.73095 L141.32115 189.60293 L142.97641 189.89558 L144.51914 190.59497 L145.83540 191.65249 L146.85351 193.01325 L147.49624 194.57326 L147.73218 196.25581 L147.54333 197.93235 L146.94423 199.51041 L145.96696 200.89639 L144.67056 201.99799 L143.15976 202.73375 L141.50324 203.07435 L139.80759 202.99136 L138.18627 202.48791 L136.74696 201.59997 L135.58002 200.39079 L134.73993 198.91146 L134.29713 197.27442 z M146.70045 196.95310 L146.65326 195.39160 L146.18728 193.89997 L145.32889 192.57965 L144.16165 191.55308 L142.74311 190.87054 L141.20602 190.59878 L139.63944 190.75356 L138.19097 191.31767 L136.93190 192.26363 L135.98272 193.50506 L135.40298 194.95572 L135.23525 196.51360 L135.49337 198.05592 L136.15913 199.47415 L137.18694 200.66350 L138.48625 201.52421 L139.98169 202.00663 L141.55189 202.06621 L143.06755 201.70319 L144.44086 200.93836 L145.55254 199.83437 L146.32385 198.47405 z"/>
<path fill="#000000" stroke="#000000" d="M146.32385 198.47405 L145.55254 199.83437 L144.44086 200.93836 L143.06755 201.70319 L141.55189 202.06621 L139.98169 202.00663 L138.48625 201.52421 L137.18694 200.66350 L136.15913 199.47415 L135.49337 198.05592 L135.23525 196.51360 L135.40298 194.95572 L135.98272 193.50506 L136.93190 192.26363 L138.19097 191.31767 L139.63944 190.75356 L141.20602 190.59878 L142.74311 190.87054 L144.16165 191.55308 L145.32889 192.57965 L146.18728 193.89997 L146.65326 195.39160 L146.70045 196.95310 z"/>
<path fill="#000000" stroke="#000000" d="M150.04318 211.15182 L138.71881 209.14968 L138.98062 207.66882 L141.15425 207.84317 L143.32362 207.60368 L145.43046 206.94953 L147.34285 205.92564 L149.04099 204.54901 L150.45386 202.86734 L150.62188 202.56589 L151.53269 202.72693 z"/>
<path fill="#000000" stroke="#000000" d="M159.77544 195.58660 L160.17289 193.94694 L160.97144 192.44728 L162.11010 191.20223 L163.53307 190.27305 L165.13213 189.73095 L166.82115 189.60293 L168.47641 189.89558 L170.01914 190.59497 L171.33540 191.65249 L172.35351 193.01325 L172.99624 194.57326 L173.23218 196.25581 L173.04333 197.93235 L172.44423 199.51041 L171.46696 200.89639 L170.17056 201.99799 L168.65976 202.73375 L167.00324 203.07435 L165.30759 202.99136 L163.68627 202.48791 L162.24696 201.59997 L161.08002 200.39079 L160.23993 198.91146 L159.79713 197.27442 z M172.20045 196.95310 L172.15326 195.39160 L171.68728 193.89997 L170.82889 192.57965 L169.66165 191.55308 L168.24311 190.87054 L166.70602 190.59878 L165.13944 190.75356 L163.69097 191.31767 L162.43190 192.26363 L161.48272 193.50506 L160.90298 194.95572 L160.73525 196.51360 L160.99337 198.05592 L161.65913 199.47415 L162.68694 200.66350 L163.98625 201.52421 L165.48169 202.00663 L167.05189 202.06621 L168.56755 201.70319 L169.94086 200.93836 L171.05254 199.83437 L171.82385 198.47405 z"/>
<path fill="#000000" stroke="#000000" d="M171.82385 198.47405 L171.05254 199.83437 L169.94086 200.93836 L168.56755 201.70319 L167.05189 202.06621 L165.48169 202.00663 L163.98625 201.52421 L162.68694 200.66350 L161.65913 199.47415 L160.99337 198.05592 L160.73525 196.51360 L160.90298 194.95572 L161.48272 193.50506 L162.43190 192.26363 L163.69097 191.31767 L165.13944 190.75356 L166.70602 190.59878 L168.24311 190.87054 L169.66165 191.55308 L170.82889 192.57965 L171.68728 193.89997 L172.15326 195.39160 L172.20045 196.95310 z"/>
<path fill="#000000" stroke="#000000" d="M175.54318 211.15182 L164.21881 209.14968 L164.48062 207.66882 L166.65425 207.84317 L168.82362 207.60368 L170.93046 206.94953 L172.84285 205.92564 L174.54099 204.54901 L175.95386 202.86734 L176.12188 202.56589 L177.03269 202.72693 z"/>
<path stroke="#000000" d="M -0.00085 28.53675 L 179.99915 28.53675 L 179.99915 211.03675 L -0.00085 211.03675 z"/>
<path stroke="#000000" d="M 4.89201 236.42754 L 6.52296 237.24302 L 8.96939 239.68944 L 8.96939 222.56444"/>
<path stroke="#000000" d="M 30.17177 239.68944 L 22.01701 222.56444 M 18.75510 239.68944 z"/>
<path stroke="#000000" d="M 45.66582 233.98111 L 44.85034 231.53468 L 43.21939 229.90373 L 40.77296 229.08825 L 39.95749 229.08825 L 37.51106 229.90373 L 35.88010 231.53468 L 35.06463 233.98111 L 35.06463 234.79659 L 35.88010 237.24302 L 37.51106 238.87397 L 39.95749 239.68944 L 40.77296 239.68944 L 43.21939 238.87397 L 44.85034 237.24302 L 45.66582 233.98111 L 45.66582 229.90373 L 44.85034 225.82635 L 43.21939 223.37992 L 40.77296 222.56444 L 39.14201 222.56444 L 36.69558 223.37992 L 35.88010 225.01087"/>
<path stroke="#000000" d="M 53.00510 224.19540 L 52.18963 223.37992 L 53.00510 222.56444 L 53.82058 223.37992 z"/>
<path stroke="#000000" d="M 70.13010 233.98111 L 69.31463 231.53468 L 67.68368 229.90373 L 65.23725 229.08825 L 64.42177 229.08825 L 61.97534 229.90373 L 60.34439 231.53468 L 59.52891 233.98111 L 59.52891 234.79659 L 60.34439 237.24302 L 61.97534 238.87397 L 64.42177 239.68944 L 65.23725 239.68944 L 67.68368 238.87397 L 69.31463 237.24302 L 70.13010 233.98111 L 70.13010 229.90373 L 69.31463 225.82635 L 67.68368 223.37992 L 65.23725 222.56444 L 63.60629 222.56444 L 61.15987 223.37992 L 60.34439 225.01087"/>
<path stroke="#000000" d="M 86.43963 237.24302 L 85.62415 238.87397 L 83.17772 239.68944 L 81.54677 239.68944 L 79.10034 238.87397 L 77.46939 236.42754 L 76.65391 232.35016 L 76.65391 228.27278 L 77.46939 225.01087 L 79.10034 223.37992 L 81.54677 222.56444 L 82.36225 222.56444 L 84.80868 223.37992 L 86.43963 225.01087 L 87.25510 227.45730 L 87.25510 228.27278 L 86.43963 230.71921 L 84.80868 232.35016 L 82.36225 233.16563 L 81.54677 233.16563 L 79.10034 232.35016 L 77.46939 230.71921 L 76.65391 228.27278"/>
<path stroke="#000000" d=""/>
<path stroke="#000000" d="M 105.19558 233.98111 L 114.16582 222.56444 M 114.16582 233.98111 L 105.19558 222.56444"/>
<path stroke="#000000" d=""/>
<path stroke="#000000" d="M 134.55272 236.42754 L 136.18368 237.24302 L 138.63010 239.68944 L 138.63010 222.56444"/>
<path stroke="#000000" d="M 152.49320 239.68944 L 150.04677 238.87397 L 149.23129 237.24302 L 149.23129 235.61206 L 150.04677 233.98111 L 151.67772 233.16563 L 154.93963 232.35016 L 157.38606 231.53468 L 159.01701 229.90373 L 159.83249 228.27278 L 159.83249 225.82635 L 159.01701 224.19540 L 158.20153 223.37992 L 155.75510 222.56444 L 152.49320 222.56444 L 150.04677 223.37992 L 149.23129 224.19540 L 148.41582 225.82635 L 148.41582 228.27278 L 149.23129 229.90373 L 150.86225 231.53468 L 153.30868 232.35016 L 156.57058 233.16563 L 158.20153 233.98111 L 159.01701 235.61206 L 159.01701 237.24302 L 158.20153 238.87397 L 155.75510 239.68944 z"/>
<path stroke="#000000" d="M 165.54082 235.61206 L 165.54082 236.42754 L 166.35629 238.05849 L 167.17177 238.87397 L 168.80272 239.68944 L 172.06463 239.68944 L 173.69558 238.87397 L 174.51106 238.05849 L 175.32653 236.42754 L 175.32653 234.79659 L 174.51106 233.16563 L 172.88010 230.71921 L 164.72534 222.56444 L 176.14201 222.56444"/>
<path stroke="#000000" d="M 182.66582 224.19540 L 181.85034 223.37992 L 182.66582 222.56444 L 183.48129 223.37992 z"/>
<path stroke="#000000" d="M 199.79082 237.24302 L 198.97534 238.87397 L 196.52891 239.68944 L 194.89796 239.68944 L 192.45153 238.87397 L 190.82058 236.42754 L 190.00510 232.35016 L 190.00510 228.27278 L 190.82058 225.01087 L 192.45153 223.37992 L 194.89796 222.56444 L 195.71344 222.56444 L 198.15987 223.37992 L 199.79082 225.01087 L 200.60629 227.45730 L 200.60629 228.27278 L 199.79082 230.71921 L 198.15987 232.35016 L 195.71344 233.16563 L 194.89796 233.16563 L 192.45153 232.35016 L 190.82058 230.71921 L 190.00510 228.27278"/>
<path stroke="#000000" d="M 207.94558 236.42754 L 209.57653 237.24302 L 212.02296 239.68944 L 212.02296 222.56444"/>
</svg>